SplineFontDB: 3.2
FontName: NotoSansGlagolitic-Regular
FullName: Noto Sans Glagolitic Regular
FamilyName: Noto Sans Glagolitic
Weight: Book
Copyright: Copyright 2017 Google Inc. All Rights Reserved.
Version: 2.000; ttfautohint (v1.8.3) -l 8 -r 50 -G 200 -x 14 -D glag -f none -a qsq -X ""
ItalicAngle: 0
UnderlinePosition: -125
UnderlineWidth: 50
Ascent: 800
Descent: 200
InvalidEm: 0
sfntRevision: 0x00020000
LayerCount: 2
Layer: 0 1 "+BBcEMAQ0BD0EOAQ5 +BD8EOwQwBD0A" 1
Layer: 1 1 "+BB8ENQRABDUENAQ9BDgEOQAA +BD8EOwQwBD0A" 0
XUID: [1021 59 1751208496 23704]
StyleMap: 0x0040
FSType: 0
OS2Version: 4
OS2_WeightWidthSlopeOnly: 1
OS2_UseTypoMetrics: 0
CreationTime: 1489501961
ModificationTime: 1632247477
PfmFamily: 17
TTFWeight: 400
TTFWidth: 5
LineGap: 0
VLineGap: 0
Panose: 2 11 5 2 4 5 4 2 2 4
OS2TypoAscent: 1069
OS2TypoAOffset: 0
OS2TypoDescent: -293
OS2TypoDOffset: 0
OS2TypoLinegap: 0
OS2WinAscent: 1069
OS2WinAOffset: 0
OS2WinDescent: 293
OS2WinDOffset: 0
HheadAscent: 1069
HheadAOffset: 0
HheadDescent: -293
HheadDOffset: 0
OS2SubXSize: 650
OS2SubYSize: 600
OS2SubXOff: 0
OS2SubYOff: 75
OS2SupXSize: 650
OS2SupYSize: 600
OS2SupXOff: 0
OS2SupYOff: 350
OS2StrikeYSize: 50
OS2StrikeYPos: 322
OS2CapHeight: 714
OS2XHeight: 536
OS2Vendor: 'GOOG'
OS2CodePages: 00000001.00000000
OS2UnicodeRanges: 00000243.02000000.00000000.00000002
Lookup: 260 0 0 "'mark' Mark Positioning in +BBMEOwQwBDMEPgQ7BDgERgQw lookup 0" { "'mark' Mark Positioning in +BBMEOwQwBDMEPgQ7BDgERgQw lookup 0 subtable"  } ['mark' ('DFLT' <'dflt' > 'glag' <'dflt' > ) ]
Lookup: 262 0 0 "'mkmk' Mark to Mark in +BBMEOwQwBDMEPgQ7BDgERgQw lookup 1" { "'mkmk' Mark to Mark in +BBMEOwQwBDMEPgQ7BDgERgQw lookup 1 subtable"  } ['mkmk' ('DFLT' <'dflt' > 'glag' <'dflt' > ) ]
DEI: 91125
TtTable: prep
SVTCA[y-axis]
MPPEM
PUSHW_1
 200
GT
IF
PUSHB_2
 1
 1
INSTCTRL
EIF
PUSHB_1
 1
PUSHW_2
 2048
 2048
MUL
WCVTF
PUSHB_2
 0
 7
WS
PUSHB_3
 20
 1
 0
LOOPCALL
PUSHB_2
 0
 7
WS
PUSHB_4
 12
 6
 1
 10
LOOPCALL
PUSHB_2
 0
 7
WS
PUSHB_4
 18
 4
 1

StartChar: .notdef
Encoding: 141 -1 0
Width: 500
Flags: W
LayerCount: 2
Fore
SplineSet
50 0 m 1,0,-1
 50 714 l 1,1,-1
 450 714 l 1,2,-1
 450 0 l 1,3,-1
 50 0 l 1,0,-1
98 48 m 1,4,-1
 402 48 l 1,5,-1
 402 666 l 1,6,-1
 98 666 l 1,7,-1
 98 48 l 1,4,-1
EndSplineSet
EndChar

StartChar: tildecomb
Encoding: 4 771 5
Width: 0
GlyphClass: 4
Flags: W
AnchorPoint: "+BBEENQQ3BEsEPARPBD0EPQQ+BDUA--1" 0 605 mark 0
AnchorPoint: "+BBEENQQ3BEsEPARPBD0EPQQ+BDUA--0" 0 605 mark 0
LayerCount: 2
Fore
SplineSet
-184 605 m 1,0,1
 -177 665 -177 665 -148.5 699 c 128,-1,2
 -120 733 -120 733 -73 733 c 0,3,4
 -43 733 -43 733 -16.5 718.5 c 128,-1,5
 10 704 10 704 34 690 c 128,-1,6
 58 676 58 676 79 676 c 0,7,8
 102 676 102 676 114.5 690.5 c 128,-1,9
 127 705 127 705 134 734 c 1,10,-1
 184 734 l 1,11,12
 178 676 178 676 150 641 c 128,-1,13
 122 606 122 606 75 606 c 0,14,15
 47 606 47 606 20.5 620.5 c 128,-1,16
 -6 635 -6 635 -30.5 649.5 c 128,-1,17
 -55 664 -55 664 -77 664 c 0,18,19
 -101 664 -101 664 -113.5 649.5 c 128,-1,20
 -126 635 -126 635 -132 605 c 1,21,-1
 -184 605 l 1,0,1
EndSplineSet
EndChar

StartChar: uni0305
Encoding: 5 773 6
Width: 0
GlyphClass: 4
Flags: W
AnchorPoint: "+BBEENQQ3BEsEPARPBD0EPQQ+BDUA--1" 0 605 mark 0
AnchorPoint: "+BBEENQQ3BEsEPARPBD0EPQQ+BDUA--0" 0 605 mark 0
LayerCount: 2
Fore
SplineSet
-208 620 m 1,0,-1
 -208 687 l 1,1,-1
 209 687 l 1,2,-1
 209 620 l 1,3,-1
 -208 620 l 1,0,-1
EndSplineSet
EndChar

StartChar: uni0484
Encoding: 6 1156 7
Width: 0
GlyphClass: 4
Flags: W
AnchorPoint: "+BBEENQQ3BEsEPARPBD0EPQQ+BDUA--1" 0 605 mark 0
AnchorPoint: "+BBEENQQ3BEsEPARPBD0EPQQ+BDUA--0" 0 605 mark 0
LayerCount: 2
Fore
SplineSet
119 605 m 1,0,1
 119 642 119 642 103 653 c 128,-1,2
 87 664 87 664 66 664 c 0,3,4
 38 664 38 664 3.5 649.5 c 128,-1,5
 -31 635 -31 635 -74.5 621 c 128,-1,6
 -118 607 -118 607 -174 607 c 2,7,-1
 -182 607 l 1,8,-1
 -182 668 l 1,9,-1
 -176 668 l 2,10,11
 -125 668 -125 668 -84 682 c 128,-1,12
 -43 696 -43 696 -6.5 710.5 c 128,-1,13
 30 725 30 725 68 725 c 0,14,15
 122 725 122 725 152 700 c 128,-1,16
 182 675 182 675 182 622 c 2,17,-1
 182 605 l 1,18,-1
 119 605 l 1,0,1
EndSplineSet
EndChar

StartChar: uni0487
Encoding: 7 1159 8
Width: 0
GlyphClass: 4
Flags: W
AnchorPoint: "+BBEENQQ3BEsEPARPBD0EPQQ+BDUA--1" 0 605 mark 0
AnchorPoint: "+BBEENQQ3BEsEPARPBD0EPQQ+BDUA--0" 0 605 mark 0
LayerCount: 2
Fore
SplineSet
-184 605 m 1,0,-1
 -184 621 l 2,1,2
 -184 674 -184 674 -153.5 699.5 c 128,-1,3
 -123 725 -123 725 -70 725 c 0,4,5
 -32 725 -32 725 4.5 710.5 c 128,-1,6
 41 696 41 696 82 681.5 c 128,-1,7
 123 667 123 667 174 667 c 2,8,-1
 180 667 l 1,9,-1
 180 608 l 1,10,-1
 172 608 l 2,11,12
 116 608 116 608 72 622 c 128,-1,13
 28 636 28 636 -6 649.5 c 128,-1,14
 -40 663 -40 663 -68 663 c 0,15,16
 -120 663 -120 663 -120 605 c 1,17,-1
 -184 605 l 1,0,-1
EndSplineSet
EndChar

StartChar: uni2C00
Encoding: 8 11264 9
Width: 817
GlyphClass: 2
Flags: W
AnchorPoint: "+BBEENQQ3BEsEPARPBD0EPQQ+BDUA--0" 410 781 basechar 0
LayerCount: 2
Fore
SplineSet
78 0 m 1,0,-1
 78 283 l 2,1,2
 78 342 78 342 98 361.5 c 128,-1,3
 118 381 118 381 176 381 c 2,4,-1
 364 381 l 1,5,-1
 364 714 l 1,6,-1
 454 714 l 1,7,-1
 454 381 l 1,8,-1
 642 381 l 2,9,10
 681 381 681 381 702 373 c 128,-1,11
 723 365 723 365 731 343.5 c 128,-1,12
 739 322 739 322 739 283 c 2,13,-1
 739 0 l 1,14,-1
 649 0 l 1,15,-1
 649 253 l 2,16,17
 649 282 649 282 639.5 292 c 128,-1,18
 630 302 630 302 601 302 c 2,19,-1
 454 302 l 1,20,-1
 454 0 l 1,21,-1
 364 0 l 1,22,-1
 364 302 l 1,23,-1
 217 302 l 2,24,25
 188 302 188 302 178 292 c 128,-1,26
 168 282 168 282 168 253 c 2,27,-1
 168 0 l 1,28,-1
 78 0 l 1,0,-1
EndSplineSet
EndChar

StartChar: uni2C01
Encoding: 9 11265 10
Width: 847
GlyphClass: 2
Flags: W
AnchorPoint: "+BBEENQQ3BEsEPARPBD0EPQQ+BDUA--0" 431 781 basechar 0
LayerCount: 2
Fore
SplineSet
195 0 m 2,0,1
 156 0 156 0 135 8.5 c 128,-1,2
 114 17 114 17 106 38 c 128,-1,3
 98 59 98 59 98 98 c 2,4,-1
 98 714 l 1,5,-1
 188 714 l 1,6,-1
 188 381 l 1,7,-1
 383 399 l 1,8,-1
 383 714 l 1,9,-1
 473 714 l 1,10,-1
 473 408 l 1,11,-1
 638 423 l 2,12,13
 651 425 651 425 660 430 c 128,-1,14
 669 435 669 435 669 456 c 2,15,-1
 669 714 l 1,16,-1
 759 714 l 1,17,-1
 759 445 l 2,18,19
 759 404 759 404 752 384.5 c 128,-1,20
 745 365 745 365 724 358.5 c 128,-1,21
 703 352 703 352 662 348 c 2,22,-1
 188 304 l 1,23,-1
 188 128 l 2,24,25
 188 95 188 95 197.5 87 c 128,-1,26
 207 79 207 79 236 79 c 2,27,-1
 735 79 l 1,28,-1
 735 0 l 1,29,-1
 195 0 l 2,0,1
EndSplineSet
EndChar

StartChar: uni2C02
Encoding: 10 11266 11
Width: 1063
GlyphClass: 2
Flags: W
AnchorPoint: "+BBEENQQ3BEsEPARPBD0EPQQ+BDUA--0" 528 781 basechar 0
LayerCount: 2
Fore
SplineSet
195 0 m 2,0,1
 156 0 156 0 135 8.5 c 128,-1,2
 114 17 114 17 106 38 c 128,-1,3
 98 59 98 59 98 98 c 2,4,-1
 98 616 l 2,5,6
 98 655 98 655 106 676 c 128,-1,7
 114 697 114 697 135 705.5 c 128,-1,8
 156 714 156 714 195 714 c 2,9,-1
 365 714 l 2,10,11
 424 714 424 714 443.5 694.5 c 128,-1,12
 463 675 463 675 463 616 c 2,13,-1
 463 79 l 1,14,-1
 600 79 l 1,15,-1
 600 616 l 2,16,17
 600 655 600 655 608 676 c 128,-1,18
 616 697 616 697 637 705.5 c 128,-1,19
 658 714 658 714 697 714 c 2,20,-1
 867 714 l 2,21,22
 926 714 926 714 945.5 694.5 c 128,-1,23
 965 675 965 675 965 616 c 2,24,-1
 965 98 l 2,25,26
 965 40 965 40 945.5 20 c 128,-1,27
 926 0 926 0 867 0 c 2,28,-1
 195 0 l 2,0,1
236 79 m 2,29,-1
 373 79 l 1,30,-1
 373 586 l 2,31,32
 373 615 373 615 363 625 c 128,-1,33
 353 635 353 635 324 635 c 2,34,-1
 236 635 l 2,35,36
 207 635 207 635 197.5 625 c 128,-1,37
 188 615 188 615 188 586 c 2,38,-1
 188 128 l 2,39,40
 188 99 188 99 197.5 89 c 128,-1,41
 207 79 207 79 236 79 c 2,29,-1
689 79 m 1,42,-1
 826 79 l 2,43,44
 855 79 855 79 865 89 c 128,-1,45
 875 99 875 99 875 128 c 2,46,-1
 875 586 l 2,47,48
 875 615 875 615 865 625 c 128,-1,49
 855 635 855 635 826 635 c 2,50,-1
 738 635 l 2,51,52
 709 635 709 635 699 625 c 128,-1,53
 689 615 689 615 689 586 c 2,54,-1
 689 79 l 1,42,-1
EndSplineSet
EndChar

StartChar: uni2C03
Encoding: 11 11267 12
Width: 958
GlyphClass: 2
Flags: W
AnchorPoint: "+BBEENQQ3BEsEPARPBD0EPQQ+BDUA--0" 501 781 basechar 0
LayerCount: 2
Fore
SplineSet
180 0 m 1,0,-1
 289 292 l 1,1,2
 225 312 225 312 177.5 353 c 128,-1,3
 130 394 130 394 104 451 c 128,-1,4
 78 508 78 508 78 575 c 2,5,-1
 78 636 l 2,6,7
 78 685 78 685 96.5 699.5 c 128,-1,8
 115 714 115 714 146 714 c 2,9,-1
 532 714 l 1,10,-1
 399 355 l 1,11,-1
 488 355 l 1,12,13
 494 389 494 389 515.5 401 c 128,-1,14
 537 413 537 413 583 413 c 2,15,-1
 782 413 l 2,16,17
 821 413 821 413 842 405 c 128,-1,18
 863 397 863 397 871 376 c 128,-1,19
 879 355 879 355 879 315 c 2,20,-1
 879 0 l 1,21,-1
 583 0 l 2,22,23
 544 0 544 0 523 8.5 c 128,-1,24
 502 17 502 17 494 38 c 128,-1,25
 486 59 486 59 486 98 c 2,26,-1
 486 276 l 1,27,-1
 392 276 l 2,28,29
 386 276 386 276 380.5 276 c 128,-1,30
 375 276 375 276 370 277 c 1,31,-1
 267 0 l 1,32,-1
 180 0 l 1,0,-1
316 365 m 1,33,-1
 417 635 l 1,34,-1
 204 635 l 2,35,36
 180 635 180 635 174 622.5 c 128,-1,37
 168 610 168 610 168 563 c 0,38,39
 168 524 168 524 183 483.5 c 128,-1,40
 198 443 198 443 231 411.5 c 128,-1,41
 264 380 264 380 316 365 c 1,33,-1
625 79 m 2,42,-1
 790 79 l 1,43,-1
 790 285 l 2,44,45
 790 314 790 314 780 324 c 128,-1,46
 770 334 770 334 741 334 c 2,47,-1
 625 334 l 2,48,49
 595 334 595 334 585.5 324 c 128,-1,50
 576 314 576 314 576 285 c 2,51,-1
 576 128 l 2,52,53
 576 99 576 99 585.5 89 c 128,-1,54
 595 79 595 79 625 79 c 2,42,-1
EndSplineSet
EndChar

StartChar: uni2C04
Encoding: 12 11268 13
Width: 1071
GlyphClass: 2
Flags: W
AnchorPoint: "+BBEENQQ3BEsEPARPBD0EPQQ+BDUA--0" 372 781 basechar 0
LayerCount: 2
Fore
SplineSet
195 0 m 2,0,1
 156 0 156 0 135 8.5 c 128,-1,2
 114 17 114 17 106 38 c 128,-1,3
 98 59 98 59 98 98 c 2,4,-1
 98 616 l 2,5,6
 98 655 98 655 106 676 c 128,-1,7
 114 697 114 697 135 705.5 c 128,-1,8
 156 714 156 714 195 714 c 2,9,-1
 592 714 l 2,10,11
 631 714 631 714 652 705.5 c 128,-1,12
 673 697 673 697 681 676 c 128,-1,13
 689 655 689 655 689 616 c 2,14,-1
 689 429 l 1,15,-1
 896 429 l 2,16,17
 935 429 935 429 956 421 c 128,-1,18
 977 413 977 413 985 391.5 c 128,-1,19
 993 370 993 370 993 331 c 2,20,-1
 993 98 l 2,21,22
 993 59 993 59 985 38 c 128,-1,23
 977 17 977 17 956 8.5 c 128,-1,24
 935 0 935 0 896 0 c 2,25,-1
 697 0 l 2,26,27
 658 0 658 0 637 8.5 c 128,-1,28
 616 17 616 17 608 38 c 128,-1,29
 600 59 600 59 600 98 c 2,30,-1
 600 586 l 2,31,32
 600 615 600 615 590 625 c 128,-1,33
 580 635 580 635 551 635 c 2,34,-1
 463 635 l 1,35,-1
 463 98 l 2,36,37
 463 40 463 40 443.5 20 c 128,-1,38
 424 0 424 0 365 0 c 2,39,-1
 195 0 l 2,0,1
236 79 m 2,40,-1
 324 79 l 2,41,42
 353 79 353 79 363 89 c 128,-1,43
 373 99 373 99 373 128 c 2,44,-1
 373 635 l 1,45,-1
 236 635 l 2,46,47
 207 635 207 635 197.5 625 c 128,-1,48
 188 615 188 615 188 586 c 2,49,-1
 188 128 l 2,50,51
 188 99 188 99 197.5 89 c 128,-1,52
 207 79 207 79 236 79 c 2,40,-1
738 79 m 2,53,-1
 854 79 l 2,54,55
 884 79 884 79 893.5 89 c 128,-1,56
 903 99 903 99 903 128 c 2,57,-1
 903 301 l 2,58,59
 903 330 903 330 893.5 340 c 128,-1,60
 884 350 884 350 854 350 c 2,61,-1
 689 350 l 1,62,-1
 689 128 l 2,63,64
 689 99 689 99 699 89 c 128,-1,65
 709 79 709 79 738 79 c 2,53,-1
EndSplineSet
EndChar

StartChar: uni2C05
Encoding: 13 11269 14
Width: 658
GlyphClass: 2
Flags: W
AnchorPoint: "+BBEENQQ3BEsEPARPBD0EPQQ+BDUA--0" 254 781 basechar 0
LayerCount: 2
Fore
SplineSet
245 -10 m 0,0,1
 183 -10 183 -10 140 -3 c 128,-1,2
 97 4 97 4 55 19 c 1,3,-1
 55 97 l 1,4,5
 97 86 97 86 140 77.5 c 128,-1,6
 183 69 183 69 231 69 c 0,7,8
 360 69 360 69 425.5 137.5 c 128,-1,9
 491 206 491 206 495 334 c 1,10,-1
 148 334 l 1,11,-1
 148 413 l 1,12,-1
 494 413 l 1,13,14
 484 523 484 523 419.5 584 c 128,-1,15
 355 645 355 645 251 645 c 0,16,17
 201 645 201 645 160 633.5 c 128,-1,18
 119 622 119 622 86 607 c 1,19,-1
 49 682 l 1,20,21
 90 702 90 702 143 713 c 128,-1,22
 196 724 196 724 252 724 c 0,23,24
 367 724 367 724 441.5 678 c 128,-1,25
 516 632 516 632 553 551.5 c 128,-1,26
 590 471 590 471 590 369 c 0,27,28
 590 252 590 252 552 167 c 128,-1,29
 514 82 514 82 437.5 36 c 128,-1,30
 361 -10 361 -10 245 -10 c 0,0,1
EndSplineSet
EndChar

StartChar: uni2C06
Encoding: 14 11270 15
Width: 1063
GlyphClass: 2
Flags: W
AnchorPoint: "+BBEENQQ3BEsEPARPBD0EPQQ+BDUA--0" 528 927 basechar 0
LayerCount: 2
Fore
SplineSet
195 0 m 2,0,1
 156 0 156 0 135 8.5 c 128,-1,2
 114 17 114 17 106 38 c 128,-1,3
 98 59 98 59 98 98 c 2,4,-1
 98 616 l 2,5,6
 98 655 98 655 106 676 c 128,-1,7
 114 697 114 697 135 705.5 c 128,-1,8
 156 714 156 714 195 714 c 2,9,-1
 448 714 l 1,10,11
 428 762 428 762 382.5 786.5 c 128,-1,12
 337 811 337 811 254 811 c 2,13,-1
 229 811 l 1,14,-1
 229 890 l 1,15,-1
 247 890 l 2,16,17
 334 890 334 890 391 867 c 128,-1,18
 448 844 448 844 482 807.5 c 128,-1,19
 516 771 516 771 531 730 c 1,20,21
 547 771 547 771 580.5 807.5 c 128,-1,22
 614 844 614 844 671.5 867 c 128,-1,23
 729 890 729 890 815 890 c 2,24,-1
 834 890 l 1,25,-1
 834 811 l 1,26,-1
 809 811 l 2,27,28
 726 811 726 811 680 786.5 c 128,-1,29
 634 762 634 762 614 714 c 1,30,-1
 867 714 l 2,31,32
 926 714 926 714 945.5 694.5 c 128,-1,33
 965 675 965 675 965 616 c 2,34,-1
 965 98 l 2,35,36
 965 40 965 40 945.5 20 c 128,-1,37
 926 0 926 0 867 0 c 2,38,-1
 697 0 l 2,39,40
 658 0 658 0 637 8.5 c 128,-1,41
 616 17 616 17 608 38 c 128,-1,42
 600 59 600 59 600 98 c 2,43,-1
 600 635 l 1,44,-1
 463 635 l 1,45,-1
 463 98 l 2,46,47
 463 40 463 40 443.5 20 c 128,-1,48
 424 0 424 0 365 0 c 2,49,-1
 195 0 l 2,0,1
236 79 m 2,50,-1
 324 79 l 2,51,52
 353 79 353 79 363 89 c 128,-1,53
 373 99 373 99 373 128 c 2,54,-1
 373 635 l 1,55,-1
 236 635 l 2,56,57
 207 635 207 635 197.5 625 c 128,-1,58
 188 615 188 615 188 586 c 2,59,-1
 188 128 l 2,60,61
 188 99 188 99 197.5 89 c 128,-1,62
 207 79 207 79 236 79 c 2,50,-1
738 79 m 2,63,-1
 826 79 l 2,64,65
 855 79 855 79 865 89 c 128,-1,66
 875 99 875 99 875 128 c 2,67,-1
 875 586 l 2,68,69
 875 615 875 615 865 625 c 128,-1,70
 855 635 855 635 826 635 c 2,71,-1
 689 635 l 1,72,-1
 689 128 l 2,73,74
 689 99 689 99 699 89 c 128,-1,75
 709 79 709 79 738 79 c 2,63,-1
EndSplineSet
EndChar

StartChar: uni2C07
Encoding: 15 11271 16
Width: 854
GlyphClass: 2
Flags: W
AnchorPoint: "+BBEENQQ3BEsEPARPBD0EPQQ+BDUA--0" 474 781 basechar 0
LayerCount: 2
Fore
SplineSet
195 0 m 2,0,1
 156 0 156 0 135 8.5 c 128,-1,2
 114 17 114 17 106 38 c 128,-1,3
 98 59 98 59 98 98 c 2,4,-1
 98 315 l 2,5,6
 98 355 98 355 106 376 c 128,-1,7
 114 397 114 397 135 405 c 128,-1,8
 156 413 156 413 195 413 c 2,9,-1
 382 413 l 1,10,-1
 382 616 l 2,11,12
 382 655 382 655 390 676 c 128,-1,13
 398 697 398 697 419 705.5 c 128,-1,14
 440 714 440 714 479 714 c 2,15,-1
 692 714 l 2,16,17
 724 714 724 714 740 701.5 c 128,-1,18
 756 689 756 689 756 651 c 2,19,-1
 756 610 l 2,20,21
 756 552 756 552 732.5 500.5 c 128,-1,22
 709 449 709 449 662 413 c 1,23,24
 718 412 718 412 737 392.5 c 128,-1,25
 756 373 756 373 756 315 c 2,26,-1
 756 98 l 2,27,28
 756 40 756 40 736.5 20 c 128,-1,29
 717 0 717 0 658 0 c 2,30,-1
 195 0 l 2,0,1
472 413 m 1,31,-1
 488 413 l 1,32,33
 542 419 542 419 577 439.5 c 128,-1,34
 612 460 612 460 631.5 488 c 128,-1,35
 651 516 651 516 658.5 546.5 c 128,-1,36
 666 577 666 577 666 602 c 0,37,38
 666 618 666 618 660 626.5 c 128,-1,39
 654 635 654 635 630 635 c 2,40,-1
 521 635 l 2,41,42
 491 635 491 635 481.5 625 c 128,-1,43
 472 615 472 615 472 586 c 2,44,-1
 472 413 l 1,31,-1
236 79 m 2,45,-1
 382 79 l 1,46,-1
 382 334 l 1,47,-1
 236 334 l 2,48,49
 207 334 207 334 197.5 324 c 128,-1,50
 188 314 188 314 188 285 c 2,51,-1
 188 128 l 2,52,53
 188 99 188 99 197.5 89 c 128,-1,54
 207 79 207 79 236 79 c 2,45,-1
472 79 m 1,55,-1
 617 79 l 2,56,57
 646 79 646 79 656 89 c 128,-1,58
 666 99 666 99 666 128 c 2,59,-1
 666 285 l 2,60,61
 666 314 666 314 656 324 c 128,-1,62
 646 334 646 334 617 334 c 2,63,-1
 472 334 l 1,64,-1
 472 79 l 1,55,-1
EndSplineSet
EndChar

StartChar: uni2C08
Encoding: 16 11272 17
Width: 1019
GlyphClass: 2
Flags: W
AnchorPoint: "+BBEENQQ3BEsEPARPBD0EPQQ+BDUA--0" 506 781 basechar 0
LayerCount: 2
Fore
SplineSet
98 0 m 1,0,-1
 98 714 l 1,1,-1
 214 714 l 2,2,3
 300 714 300 714 353.5 673 c 128,-1,4
 407 632 407 632 433.5 563.5 c 128,-1,5
 460 495 460 495 465 413 c 1,6,-1
 843 413 l 2,7,8
 882 413 882 413 903 405 c 128,-1,9
 924 397 924 397 932 376 c 128,-1,10
 940 355 940 355 940 315 c 2,11,-1
 940 98 l 2,12,13
 940 59 940 59 932 38 c 128,-1,14
 924 17 924 17 903 8.5 c 128,-1,15
 882 0 882 0 843 0 c 2,16,-1
 645 0 l 2,17,18
 606 0 606 0 584.5 8.5 c 128,-1,19
 563 17 563 17 555 38 c 128,-1,20
 547 59 547 59 547 98 c 2,21,-1
 547 334 l 1,22,-1
 466 334 l 1,23,24
 463 240 463 240 436.5 164 c 128,-1,25
 410 88 410 88 353.5 44 c 128,-1,26
 297 0 297 0 205 0 c 2,27,-1
 98 0 l 1,0,-1
188 413 m 1,28,-1
 371 413 l 1,29,30
 366 496 366 496 343.5 544.5 c 128,-1,31
 321 593 321 593 287.5 614 c 128,-1,32
 254 635 254 635 213 635 c 2,33,-1
 188 635 l 1,34,-1
 188 413 l 1,28,-1
188 79 m 1,35,-1
 196 79 l 2,36,37
 281 79 281 79 324.5 137 c 128,-1,38
 368 195 368 195 372 334 c 1,39,-1
 188 334 l 1,40,-1
 188 79 l 1,35,-1
686 79 m 2,41,-1
 802 79 l 2,42,43
 831 79 831 79 841 89 c 128,-1,44
 851 99 851 99 851 128 c 2,45,-1
 851 285 l 2,46,47
 851 314 851 314 841 324 c 128,-1,48
 831 334 831 334 802 334 c 2,49,-1
 637 334 l 1,50,-1
 637 128 l 2,51,52
 637 99 637 99 646.5 89 c 128,-1,53
 656 79 656 79 686 79 c 2,41,-1
EndSplineSet
EndChar

StartChar: uni2C09
Encoding: 17 11273 18
Width: 1072
GlyphClass: 2
Flags: W
AnchorPoint: "+BBEENQQ3BEsEPARPBD0EPQQ+BDUA--0" 532 781 basechar 0
LayerCount: 2
Fore
SplineSet
388 0 m 1,0,-1
 388 79 l 1,1,-1
 491 79 l 1,2,-1
 491 313 l 1,3,4
 460 319 460 319 437 333 c 128,-1,5
 414 347 414 347 398 367 c 1,6,7
 378 341 378 341 344.5 325 c 128,-1,8
 311 309 311 309 261 309 c 0,9,10
 189 309 189 309 149.5 337 c 128,-1,11
 110 365 110 365 94 416 c 128,-1,12
 78 467 78 467 78 536 c 2,13,-1
 78 714 l 1,14,-1
 994 714 l 1,15,-1
 994 536 l 2,16,17
 994 467 994 467 978.5 416 c 128,-1,18
 963 365 963 365 923.5 337 c 128,-1,19
 884 309 884 309 812 309 c 0,20,21
 761 309 761 309 727.5 325 c 128,-1,22
 694 341 694 341 673 367 c 1,23,24
 657 347 657 347 634.5 333 c 128,-1,25
 612 319 612 319 581 313 c 1,26,-1
 581 79 l 1,27,-1
 685 79 l 1,28,-1
 685 0 l 1,29,-1
 388 0 l 1,0,-1
261 388 m 256,30,31
 301 388 301 388 321 404.5 c 128,-1,32
 341 421 341 421 347.5 454 c 128,-1,33
 354 487 354 487 354 536 c 2,34,-1
 354 635 l 1,35,-1
 168 635 l 1,36,-1
 168 536 l 2,37,38
 168 488 168 488 174.5 455 c 128,-1,39
 181 422 181 422 201 405 c 128,-1,40
 221 388 221 388 261 388 c 256,30,31
536 388 m 0,41,42
 595 388 595 388 612 424 c 128,-1,43
 629 460 629 460 629 528 c 2,44,-1
 629 635 l 1,45,-1
 443 635 l 1,46,-1
 443 528 l 2,47,48
 443 459 443 459 460.5 423.5 c 128,-1,49
 478 388 478 388 536 388 c 0,41,42
812 388 m 0,50,51
 853 388 853 388 872.5 405 c 128,-1,52
 892 422 892 422 898 455 c 128,-1,53
 904 488 904 488 904 536 c 2,54,-1
 904 635 l 1,55,-1
 719 635 l 1,56,-1
 719 527 l 2,57,58
 719 459 719 459 736.5 423.5 c 128,-1,59
 754 388 754 388 812 388 c 0,50,51
EndSplineSet
EndChar

StartChar: uni2C0A
Encoding: 18 11274 19
Width: 1072
GlyphClass: 2
Flags: W
AnchorPoint: "+BBEENQQ3BEsEPARPBD0EPQQ+BDUA--0" 532 781 basechar 0
LayerCount: 2
Fore
SplineSet
354 0 m 1,0,-1
 354 168 l 2,1,2
 354 218 354 218 366 268 c 128,-1,3
 378 318 378 318 415 350 c 1,4,-1
 398 367 l 1,5,6
 378 341 378 341 344.5 325 c 128,-1,7
 311 309 311 309 261 309 c 0,8,9
 189 309 189 309 149.5 337 c 128,-1,10
 110 365 110 365 94 416 c 128,-1,11
 78 467 78 467 78 536 c 2,12,-1
 78 714 l 1,13,-1
 994 714 l 1,14,-1
 994 536 l 2,15,16
 994 467 994 467 978.5 416 c 128,-1,17
 963 365 963 365 923.5 337 c 128,-1,18
 884 309 884 309 812 309 c 0,19,20
 761 309 761 309 727.5 325 c 128,-1,21
 694 341 694 341 673 367 c 1,22,-1
 657 350 l 1,23,24
 692 319 692 319 705.5 271.5 c 128,-1,25
 719 224 719 224 719 168 c 2,26,-1
 719 0 l 1,27,-1
 354 0 l 1,0,-1
261 388 m 256,28,29
 301 388 301 388 321 404.5 c 128,-1,30
 341 421 341 421 347.5 454 c 128,-1,31
 354 487 354 487 354 536 c 2,32,-1
 354 635 l 1,33,-1
 168 635 l 1,34,-1
 168 536 l 2,35,36
 168 488 168 488 174.5 455 c 128,-1,37
 181 422 181 422 201 405 c 128,-1,38
 221 388 221 388 261 388 c 256,28,29
536 388 m 0,39,40
 595 388 595 388 612 425 c 128,-1,41
 629 462 629 462 629 536 c 2,42,-1
 629 635 l 1,43,-1
 443 635 l 1,44,-1
 443 536 l 2,45,46
 443 487 443 487 449.5 454 c 128,-1,47
 456 421 456 421 476 404.5 c 128,-1,48
 496 388 496 388 536 388 c 0,39,40
812 388 m 0,49,50
 853 388 853 388 872.5 405 c 128,-1,51
 892 422 892 422 898 455 c 128,-1,52
 904 488 904 488 904 536 c 2,53,-1
 904 635 l 1,54,-1
 719 635 l 1,55,-1
 719 536 l 2,56,57
 719 461 719 461 736.5 424.5 c 128,-1,58
 754 388 754 388 812 388 c 0,49,50
443 79 m 1,59,-1
 629 79 l 1,60,-1
 629 168 l 2,61,62
 629 217 629 217 622.5 248 c 128,-1,63
 616 279 616 279 596.5 294 c 128,-1,64
 577 309 577 309 536 309 c 0,65,66
 496 309 496 309 476 294 c 128,-1,67
 456 279 456 279 449.5 248 c 128,-1,68
 443 217 443 217 443 168 c 2,69,-1
 443 79 l 1,59,-1
EndSplineSet
EndChar

StartChar: uni2C0B
Encoding: 19 11275 20
Width: 521
GlyphClass: 2
Flags: W
AnchorPoint: "+BBEENQQ3BEsEPARPBD0EPQQ+BDUA--0" 258 781 basechar 0
LayerCount: 2
Fore
SplineSet
78 0 m 1,0,-1
 78 178 l 2,1,2
 78 228 78 228 90 279 c 128,-1,3
 102 330 102 330 139 364 c 1,4,5
 102 396 102 396 90 446 c 128,-1,6
 78 496 78 496 78 546 c 2,7,-1
 78 714 l 1,8,-1
 443 714 l 1,9,-1
 443 546 l 2,10,11
 443 491 443 491 430 442.5 c 128,-1,12
 417 394 417 394 382 364 c 1,13,14
 417 333 417 333 430 283 c 128,-1,15
 443 233 443 233 443 178 c 2,16,-1
 443 0 l 1,17,-1
 78 0 l 1,0,-1
261 405 m 0,18,19
 302 405 302 405 321.5 420 c 128,-1,20
 341 435 341 435 347.5 466 c 128,-1,21
 354 497 354 497 354 546 c 2,22,-1
 354 635 l 1,23,-1
 168 635 l 1,24,-1
 168 546 l 2,25,26
 168 497 168 497 174.5 466 c 128,-1,27
 181 435 181 435 201 420 c 128,-1,28
 221 405 221 405 261 405 c 0,18,19
168 79 m 1,29,-1
 354 79 l 1,30,-1
 354 178 l 2,31,32
 354 226 354 226 347.5 259 c 128,-1,33
 341 292 341 292 321.5 309 c 128,-1,34
 302 326 302 326 261 326 c 0,35,36
 221 326 221 326 201 309 c 128,-1,37
 181 292 181 292 174.5 259.5 c 128,-1,38
 168 227 168 227 168 178 c 2,39,-1
 168 79 l 1,29,-1
EndSplineSet
EndChar

StartChar: uni2C0C
Encoding: 20 11276 21
Width: 1096
GlyphClass: 2
Flags: W
AnchorPoint: "+BBEENQQ3BEsEPARPBD0EPQQ+BDUA--0" 528 781 basechar 0
LayerCount: 2
Fore
SplineSet
98 0 m 1,0,-1
 98 616 l 2,1,2
 98 655 98 655 106 676 c 128,-1,3
 114 697 114 697 135 705.5 c 128,-1,4
 156 714 156 714 195 714 c 2,5,-1
 365 714 l 2,6,7
 424 714 424 714 443.5 694.5 c 128,-1,8
 463 675 463 675 463 616 c 2,9,-1
 463 380 l 1,10,-1
 614 380 l 1,11,-1
 614 616 l 2,12,13
 614 675 614 675 634 694.5 c 128,-1,14
 654 714 654 714 712 714 c 2,15,-1
 969 714 l 2,16,17
 986 714 986 714 1002 703 c 128,-1,18
 1018 692 1018 692 1018 666 c 2,19,-1
 1018 575 l 2,20,21
 1018 495 1018 495 978 435 c 128,-1,22
 938 375 938 375 867.5 340.5 c 128,-1,23
 797 306 797 306 704 301 c 1,24,-1
 704 0 l 1,25,-1
 614 0 l 1,26,-1
 614 301 l 1,27,-1
 463 301 l 1,28,-1
 463 0 l 1,29,-1
 373 0 l 1,30,-1
 373 586 l 2,31,32
 373 615 373 615 363 625 c 128,-1,33
 353 635 353 635 324 635 c 2,34,-1
 236 635 l 2,35,36
 207 635 207 635 197.5 625 c 128,-1,37
 188 615 188 615 188 586 c 2,38,-1
 188 0 l 1,39,-1
 98 0 l 1,0,-1
704 380 m 1,40,41
 784 385 784 385 833 410.5 c 128,-1,42
 882 436 882 436 905 476 c 128,-1,43
 928 516 928 516 928 563 c 256,44,45
 928 610 928 610 921.5 622.5 c 128,-1,46
 915 635 915 635 892 635 c 2,47,-1
 753 635 l 2,48,49
 724 635 724 635 714 625 c 128,-1,50
 704 615 704 615 704 586 c 2,51,-1
 704 380 l 1,40,41
EndSplineSet
EndChar

StartChar: uni2C0D
Encoding: 21 11277 22
Width: 445
GlyphClass: 2
Flags: W
AnchorPoint: "+BBEENQQ3BEsEPARPBD0EPQQ+BDUA--0" 163 781 basechar 0
LayerCount: 2
Fore
SplineSet
277 0 m 1,0,-1
 277 285 l 2,1,2
 277 314 277 314 267.5 324 c 128,-1,3
 258 334 258 334 229 334 c 2,4,-1
 39 334 l 1,5,-1
 118 714 l 1,6,-1
 204 714 l 1,7,-1
 141 413 l 1,8,-1
 270 413 l 2,9,10
 309 413 309 413 330 405 c 128,-1,11
 351 397 351 397 359 376 c 128,-1,12
 367 355 367 355 367 315 c 2,13,-1
 367 0 l 1,14,-1
 277 0 l 1,0,-1
EndSplineSet
EndChar

StartChar: uni2C0E
Encoding: 22 11278 23
Width: 1038
GlyphClass: 2
Flags: W
AnchorPoint: "+BBEENQQ3BEsEPARPBD0EPQQ+BDUA--0" 517 781 basechar 0
LayerCount: 2
Fore
SplineSet
176 0 m 2,0,1
 118 0 118 0 98 20 c 128,-1,2
 78 40 78 40 78 98 c 2,3,-1
 78 315 l 2,4,5
 78 355 78 355 86.5 376 c 128,-1,6
 95 397 95 397 116 405 c 128,-1,7
 137 413 137 413 176 413 c 2,8,-1
 354 413 l 1,9,-1
 354 616 l 2,10,11
 354 655 354 655 362 676 c 128,-1,12
 370 697 370 697 391 705.5 c 128,-1,13
 412 714 412 714 451 714 c 2,14,-1
 587 714 l 2,15,16
 646 714 646 714 665.5 694.5 c 128,-1,17
 685 675 685 675 685 616 c 2,18,-1
 685 413 l 1,19,-1
 862 413 l 2,20,21
 901 413 901 413 922 405 c 128,-1,22
 943 397 943 397 951.5 376 c 128,-1,23
 960 355 960 355 960 315 c 2,24,-1
 960 98 l 2,25,26
 960 40 960 40 940.5 20 c 128,-1,27
 921 0 921 0 862 0 c 2,28,-1
 692 0 l 2,29,30
 653 0 653 0 632 8.5 c 128,-1,31
 611 17 611 17 603 38 c 128,-1,32
 595 59 595 59 595 98 c 2,33,-1
 595 334 l 1,34,-1
 443 334 l 1,35,-1
 443 98 l 2,36,37
 443 59 443 59 435 38 c 128,-1,38
 427 17 427 17 406 8.5 c 128,-1,39
 385 0 385 0 346 0 c 2,40,-1
 176 0 l 2,0,1
443 413 m 1,41,-1
 595 413 l 1,42,-1
 595 586 l 2,43,44
 595 615 595 615 585 625 c 128,-1,45
 575 635 575 635 546 635 c 2,46,-1
 492 635 l 2,47,48
 463 635 463 635 453 625 c 128,-1,49
 443 615 443 615 443 586 c 2,50,-1
 443 413 l 1,41,-1
217 79 m 2,51,-1
 305 79 l 2,52,53
 334 79 334 79 344 89 c 128,-1,54
 354 99 354 99 354 128 c 2,55,-1
 354 334 l 1,56,-1
 217 334 l 2,57,58
 188 334 188 334 178 324 c 128,-1,59
 168 314 168 314 168 285 c 2,60,-1
 168 128 l 2,61,62
 168 99 168 99 178 89 c 128,-1,63
 188 79 188 79 217 79 c 2,51,-1
733 79 m 2,64,-1
 821 79 l 2,65,66
 850 79 850 79 860 89 c 128,-1,67
 870 99 870 99 870 128 c 2,68,-1
 870 285 l 2,69,70
 870 314 870 314 860 324 c 128,-1,71
 850 334 850 334 821 334 c 2,72,-1
 685 334 l 1,73,-1
 685 128 l 2,74,75
 685 99 685 99 694.5 89 c 128,-1,76
 704 79 704 79 733 79 c 2,64,-1
EndSplineSet
EndChar

StartChar: uni2C0F
Encoding: 23 11279 24
Width: 836
GlyphClass: 2
Flags: W
AnchorPoint: "+BBEENQQ3BEsEPARPBD0EPQQ+BDUA--0" 415 781 basechar 0
LayerCount: 2
Fore
SplineSet
98 0 m 1,0,-1
 98 477 l 2,1,2
 98 516 98 516 103.5 559 c 128,-1,3
 109 602 109 602 127 639.5 c 128,-1,4
 145 677 145 677 181.5 700.5 c 128,-1,5
 218 724 218 724 280 724 c 0,6,7
 330 724 330 724 364 708.5 c 128,-1,8
 398 693 398 693 418 665 c 1,9,10
 438 691 438 691 471.5 707.5 c 128,-1,11
 505 724 505 724 556 724 c 0,12,13
 630 724 630 724 669.5 691 c 128,-1,14
 709 658 709 658 723.5 602 c 128,-1,15
 738 546 738 546 738 477 c 2,16,-1
 738 0 l 1,17,-1
 648 0 l 1,18,-1
 648 477 l 2,19,20
 648 526 648 526 642 563.5 c 128,-1,21
 636 601 636 601 616.5 623 c 128,-1,22
 597 645 597 645 556 645 c 0,23,24
 518 645 518 645 497.5 625 c 128,-1,25
 477 605 477 605 470 569.5 c 128,-1,26
 463 534 463 534 463 487 c 2,27,-1
 463 0 l 1,28,-1
 373 0 l 1,29,-1
 373 485 l 2,30,31
 373 532 373 532 366 568 c 128,-1,32
 359 604 359 604 339.5 624.5 c 128,-1,33
 320 645 320 645 280 645 c 256,34,35
 240 645 240 645 220.5 623.5 c 128,-1,36
 201 602 201 602 194.5 564 c 128,-1,37
 188 526 188 526 188 477 c 2,38,-1
 188 0 l 1,39,-1
 98 0 l 1,0,-1
EndSplineSet
EndChar

StartChar: uni2C10
Encoding: 24 11280 25
Width: 569
GlyphClass: 2
Flags: W
AnchorPoint: "+BBEENQQ3BEsEPARPBD0EPQQ+BDUA--0" 313 781 basechar 0
LayerCount: 2
Fore
SplineSet
98 0 m 1,0,-1
 98 616 l 2,1,2
 98 655 98 655 106 676 c 128,-1,3
 114 697 114 697 135 705.5 c 128,-1,4
 156 714 156 714 195 714 c 2,5,-1
 433 714 l 2,6,7
 465 714 465 714 483 700.5 c 128,-1,8
 501 687 501 687 501 646 c 2,9,-1
 501 575 l 2,10,11
 501 495 501 495 461.5 435 c 128,-1,12
 422 375 422 375 351.5 340.5 c 128,-1,13
 281 306 281 306 188 301 c 1,14,-1
 188 0 l 1,15,-1
 98 0 l 1,0,-1
188 380 m 1,16,17
 268 385 268 385 317 410.5 c 128,-1,18
 366 436 366 436 388.5 476 c 128,-1,19
 411 516 411 516 411 563 c 256,20,21
 411 610 411 610 405 622.5 c 128,-1,22
 399 635 399 635 375 635 c 2,23,-1
 236 635 l 2,24,25
 207 635 207 635 197.5 625 c 128,-1,26
 188 615 188 615 188 586 c 2,27,-1
 188 380 l 1,16,17
EndSplineSet
EndChar

StartChar: uni2C11
Encoding: 25 11281 26
Width: 569
GlyphClass: 2
Flags: W
AnchorPoint: "+BBEENQQ3BEsEPARPBD0EPQQ+BDUA--0" 275 781 basechar 0
LayerCount: 2
Fore
SplineSet
179 0 m 2,0,1
 130 0 130 0 106 22 c 128,-1,2
 82 44 82 44 75 76 c 128,-1,3
 68 108 68 108 68 139 c 0,4,5
 68 213 68 213 106.5 274 c 128,-1,6
 145 335 145 335 209 368 c 1,7,8
 145 394 145 394 106.5 448 c 128,-1,9
 68 502 68 502 68 575 c 0,10,11
 68 606 68 606 75 638 c 128,-1,12
 82 670 82 670 106 692 c 128,-1,13
 130 714 130 714 179 714 c 2,14,-1
 374 714 l 2,15,16
 416 714 416 714 437 707 c 128,-1,17
 458 700 458 700 465 679 c 128,-1,18
 472 658 472 658 472 616 c 2,19,-1
 472 98 l 2,20,21
 472 56 472 56 465 35 c 128,-1,22
 458 14 458 14 437 7 c 128,-1,23
 416 0 416 0 374 0 c 2,24,-1
 179 0 l 2,0,1
382 413 m 1,25,-1
 382 592 l 2,26,27
 382 612 382 612 374 623.5 c 128,-1,28
 366 635 366 635 345 635 c 2,29,-1
 210 635 l 2,30,31
 176 635 176 635 167 614.5 c 128,-1,32
 158 594 158 594 158 559 c 0,33,34
 158 514 158 514 186.5 481.5 c 128,-1,35
 215 449 215 449 266 431.5 c 128,-1,36
 317 414 317 414 382 413 c 1,25,-1
210 79 m 2,37,-1
 345 79 l 2,38,39
 366 79 366 79 374 91 c 128,-1,40
 382 103 382 103 382 122 c 2,41,-1
 382 334 l 1,42,43
 317 334 317 334 266 310.5 c 128,-1,44
 215 287 215 287 186.5 246.5 c 128,-1,45
 158 206 158 206 158 155 c 0,46,47
 158 119 158 119 167 99 c 128,-1,48
 176 79 176 79 210 79 c 2,37,-1
EndSplineSet
EndChar

StartChar: uni2C12
Encoding: 26 11282 27
Width: 769
GlyphClass: 2
Flags: W
AnchorPoint: "+BBEENQQ3BEsEPARPBD0EPQQ+BDUA--0" 383 781 basechar 0
LayerCount: 2
Fore
SplineSet
98 0 m 1,0,-1
 98 616 l 2,1,2
 98 655 98 655 106 676 c 128,-1,3
 114 697 114 697 135 705.5 c 128,-1,4
 156 714 156 714 195 714 c 2,5,-1
 593 714 l 2,6,7
 652 714 652 714 671.5 694.5 c 128,-1,8
 691 675 691 675 691 616 c 2,9,-1
 691 293 l 2,10,11
 691 235 691 235 671.5 215 c 128,-1,12
 652 195 652 195 593 195 c 2,13,-1
 423 195 l 2,14,15
 384 195 384 195 363 203.5 c 128,-1,16
 342 212 342 212 334 233 c 128,-1,17
 326 254 326 254 326 293 c 2,18,-1
 326 635 l 1,19,-1
 236 635 l 2,20,21
 207 635 207 635 197.5 625 c 128,-1,22
 188 615 188 615 188 586 c 2,23,-1
 188 0 l 1,24,-1
 98 0 l 1,0,-1
464 274 m 2,25,-1
 552 274 l 2,26,27
 581 274 581 274 591 284 c 128,-1,28
 601 294 601 294 601 323 c 2,29,-1
 601 586 l 2,30,31
 601 615 601 615 591 625 c 128,-1,32
 581 635 581 635 552 635 c 2,33,-1
 416 635 l 1,34,-1
 416 323 l 2,35,36
 416 294 416 294 425.5 284 c 128,-1,37
 435 274 435 274 464 274 c 2,25,-1
EndSplineSet
EndChar

StartChar: uni2C13
Encoding: 27 11283 28
Width: 569
GlyphClass: 2
Flags: W
AnchorPoint: "+BBEENQQ3BEsEPARPBD0EPQQ+BDUA--0" 286 781 basechar 0
LayerCount: 2
Fore
SplineSet
195 0 m 2,0,1
 154 0 154 0 133 7 c 128,-1,2
 112 14 112 14 105 35 c 128,-1,3
 98 56 98 56 98 98 c 2,4,-1
 98 714 l 1,5,-1
 188 714 l 1,6,-1
 188 413 l 1,7,8
 276 413 276 413 347 376.5 c 128,-1,9
 418 340 418 340 459.5 278.5 c 128,-1,10
 501 217 501 217 501 139 c 0,11,12
 501 108 501 108 491 76 c 128,-1,13
 481 44 481 44 453.5 22 c 128,-1,14
 426 0 426 0 371 0 c 2,15,-1
 195 0 l 2,0,1
224 79 m 2,16,-1
 359 79 l 2,17,18
 394 79 394 79 402.5 99 c 128,-1,19
 411 119 411 119 411 155 c 0,20,21
 411 201 411 201 382 241.5 c 128,-1,22
 353 282 353 282 303 308 c 128,-1,23
 253 334 253 334 188 334 c 1,24,-1
 188 122 l 2,25,26
 188 103 188 103 196 91 c 128,-1,27
 204 79 204 79 224 79 c 2,16,-1
EndSplineSet
EndChar

StartChar: uni2C14
Encoding: 28 11284 29
Width: 804
GlyphClass: 2
Flags: W
AnchorPoint: "+BBEENQQ3BEsEPARPBD0EPQQ+BDUA--0" 410 781 basechar 0
LayerCount: 2
Fore
SplineSet
223 0 m 1,0,-1
 223 202 l 1,1,2
 169 228 169 228 134.5 267.5 c 128,-1,3
 100 307 100 307 84 353 c 128,-1,4
 68 399 68 399 68 445 c 0,5,6
 68 495 68 495 86.5 544.5 c 128,-1,7
 105 594 105 594 145 635 c 128,-1,8
 185 676 185 676 248.5 700.5 c 128,-1,9
 312 725 312 725 402 725 c 256,10,11
 492 725 492 725 555.5 700.5 c 128,-1,12
 619 676 619 676 658.5 635.5 c 128,-1,13
 698 595 698 595 716.5 547 c 128,-1,14
 735 499 735 499 735 451 c 0,15,16
 735 381 735 381 700 313 c 128,-1,17
 665 245 665 245 587 205 c 1,18,19
 587 198 587 198 587.5 191.5 c 128,-1,20
 588 185 588 185 588 178 c 2,21,-1
 588 0 l 1,22,-1
 223 0 l 1,0,-1
238 290 m 1,23,24
 254 338 254 338 292.5 371.5 c 128,-1,25
 331 405 331 405 405 405 c 0,26,27
 475 405 475 405 514 374 c 128,-1,28
 553 343 553 343 570 295 c 1,29,30
 604 320 604 320 623.5 357 c 128,-1,31
 643 394 643 394 643 446 c 0,32,33
 643 515 643 515 609 559 c 128,-1,34
 575 603 575 603 520 624.5 c 128,-1,35
 465 646 465 646 401 646 c 0,36,37
 336 646 336 646 281.5 622.5 c 128,-1,38
 227 599 227 599 194 554 c 128,-1,39
 161 509 161 509 161 446 c 0,40,41
 161 390 161 390 182 352 c 128,-1,42
 203 314 203 314 238 290 c 1,23,24
313 79 m 1,43,-1
 498 79 l 1,44,-1
 498 178 l 2,45,46
 498 226 498 226 491.5 259 c 128,-1,47
 485 292 485 292 465.5 309 c 128,-1,48
 446 326 446 326 405 326 c 0,49,50
 365 326 365 326 345.5 309 c 128,-1,51
 326 292 326 292 319.5 259.5 c 128,-1,52
 313 227 313 227 313 178 c 2,53,-1
 313 79 l 1,43,-1
EndSplineSet
EndChar

StartChar: uni2C15
Encoding: 29 11285 30
Width: 1063
GlyphClass: 2
Flags: W
AnchorPoint: "+BBEENQQ3BEsEPARPBD0EPQQ+BDUA--0" 517 781 basechar 0
LayerCount: 2
Fore
SplineSet
195 0 m 2,0,1
 156 0 156 0 135 8.5 c 128,-1,2
 114 17 114 17 106 38 c 128,-1,3
 98 59 98 59 98 98 c 2,4,-1
 98 616 l 2,5,6
 98 655 98 655 106 676 c 128,-1,7
 114 697 114 697 135 705.5 c 128,-1,8
 156 714 156 714 195 714 c 2,9,-1
 867 714 l 2,10,11
 926 714 926 714 945.5 694.5 c 128,-1,12
 965 675 965 675 965 616 c 2,13,-1
 965 98 l 2,14,15
 965 40 965 40 945.5 20 c 128,-1,16
 926 0 926 0 867 0 c 2,17,-1
 697 0 l 2,18,19
 658 0 658 0 637 8.5 c 128,-1,20
 616 17 616 17 608 38 c 128,-1,21
 600 59 600 59 600 98 c 2,22,-1
 600 635 l 1,23,-1
 463 635 l 1,24,-1
 463 98 l 2,25,26
 463 40 463 40 443.5 20 c 128,-1,27
 424 0 424 0 365 0 c 2,28,-1
 195 0 l 2,0,1
236 79 m 2,29,-1
 324 79 l 2,30,31
 353 79 353 79 363 89 c 128,-1,32
 373 99 373 99 373 128 c 2,33,-1
 373 635 l 1,34,-1
 236 635 l 2,35,36
 207 635 207 635 197.5 625 c 128,-1,37
 188 615 188 615 188 586 c 2,38,-1
 188 128 l 2,39,40
 188 99 188 99 197.5 89 c 128,-1,41
 207 79 207 79 236 79 c 2,29,-1
738 79 m 2,42,-1
 826 79 l 2,43,44
 855 79 855 79 865 89 c 128,-1,45
 875 99 875 99 875 128 c 2,46,-1
 875 586 l 2,47,48
 875 615 875 615 865 625 c 128,-1,49
 855 635 855 635 826 635 c 2,50,-1
 689 635 l 1,51,-1
 689 128 l 2,52,53
 689 99 689 99 699 89 c 128,-1,54
 709 79 709 79 738 79 c 2,42,-1
EndSplineSet
EndChar

StartChar: uni2C16
Encoding: 30 11286 31
Width: 854
GlyphClass: 2
Flags: W
AnchorPoint: "+BBEENQQ3BEsEPARPBD0EPQQ+BDUA--0" 431 781 basechar 0
LayerCount: 2
Fore
SplineSet
189 0 m 2,0,1
 139 0 139 0 115.5 22 c 128,-1,2
 92 44 92 44 85 76 c 128,-1,3
 78 108 78 108 78 139 c 0,4,5
 78 213 78 213 117.5 275.5 c 128,-1,6
 157 338 157 338 221 372 c 1,7,8
 157 404 157 404 117.5 453 c 128,-1,9
 78 502 78 502 78 575 c 0,10,11
 78 606 78 606 85 638 c 128,-1,12
 92 670 92 670 115.5 692 c 128,-1,13
 139 714 139 714 189 714 c 2,14,-1
 659 714 l 2,15,16
 718 714 718 714 737.5 694.5 c 128,-1,17
 757 675 757 675 757 616 c 2,18,-1
 757 98 l 2,19,20
 757 40 757 40 737.5 20 c 128,-1,21
 718 0 718 0 659 0 c 2,22,-1
 189 0 l 2,0,1
392 413 m 1,23,-1
 392 635 l 1,24,-1
 220 635 l 2,25,26
 185 635 185 635 176.5 614.5 c 128,-1,27
 168 594 168 594 168 559 c 0,28,29
 168 491 168 491 227 452.5 c 128,-1,30
 286 414 286 414 392 413 c 1,23,-1
481 413 m 1,31,-1
 667 413 l 1,32,-1
 667 586 l 2,33,34
 667 615 667 615 657 625 c 128,-1,35
 647 635 647 635 618 635 c 2,36,-1
 481 635 l 1,37,-1
 481 413 l 1,31,-1
220 79 m 2,38,-1
 392 79 l 1,39,-1
 392 334 l 1,40,41
 327 334 327 334 276 312 c 128,-1,42
 225 290 225 290 196.5 250.5 c 128,-1,43
 168 211 168 211 168 155 c 0,44,45
 168 119 168 119 176.5 99 c 128,-1,46
 185 79 185 79 220 79 c 2,38,-1
481 79 m 1,47,-1
 618 79 l 2,48,49
 647 79 647 79 657 89 c 128,-1,50
 667 99 667 99 667 128 c 2,51,-1
 667 334 l 1,52,-1
 481 334 l 1,53,-1
 481 79 l 1,47,-1
EndSplineSet
EndChar

StartChar: uni2C17
Encoding: 31 11287 32
Width: 796
GlyphClass: 2
Flags: W
AnchorPoint: "+BBEENQQ3BEsEPARPBD0EPQQ+BDUA--0" 400 859 basechar 0
LayerCount: 2
Fore
SplineSet
353 -107 m 1,0,-1
 353 -7 l 1,1,2
 257 3 257 3 194 50.5 c 128,-1,3
 131 98 131 98 99.5 177.5 c 128,-1,4
 68 257 68 257 68 359 c 256,5,6
 68 461 68 461 99 539 c 128,-1,7
 130 617 130 617 193.5 665 c 128,-1,8
 257 713 257 713 353 723 c 1,9,-1
 353 812 l 1,10,-1
 442 812 l 1,11,-1
 442 723 l 1,12,13
 535 714 535 714 598.5 666.5 c 128,-1,14
 662 619 662 619 695 540 c 128,-1,15
 728 461 728 461 728 358 c 0,16,17
 728 256 728 256 695.5 177 c 128,-1,18
 663 98 663 98 599.5 50 c 128,-1,19
 536 2 536 2 442 -7 c 1,20,-1
 442 -107 l 1,21,-1
 353 -107 l 1,0,-1
442 68 m 1,22,23
 541 82 541 82 589 159 c 128,-1,24
 637 236 637 236 637 358 c 256,25,26
 637 480 637 480 589 556 c 128,-1,27
 541 632 541 632 442 646 c 1,28,-1
 442 68 l 1,22,23
353 69 m 1,29,-1
 353 645 l 1,30,31
 255 630 255 630 207 555 c 128,-1,32
 159 480 159 480 159 358 c 0,33,34
 159 237 159 237 207 160 c 128,-1,35
 255 83 255 83 353 69 c 1,29,-1
EndSplineSet
EndChar

StartChar: uni2C18
Encoding: 32 11288 33
Width: 855
GlyphClass: 2
Flags: W
AnchorPoint: "+BBEENQQ3BEsEPARPBD0EPQQ+BDUA--0" 410 781 basechar 0
LayerCount: 2
Fore
SplineSet
78 0 m 1,0,-1
 314 635 l 1,1,-1
 49 635 l 1,2,-1
 49 714 l 1,3,-1
 430 714 l 1,4,-1
 296 355 l 1,5,-1
 386 355 l 1,6,7
 392 389 392 389 413 401 c 128,-1,8
 434 413 434 413 481 413 c 2,9,-1
 679 413 l 2,10,11
 718 413 718 413 739 405 c 128,-1,12
 760 397 760 397 768.5 376 c 128,-1,13
 777 355 777 355 777 315 c 2,14,-1
 777 0 l 1,15,-1
 481 0 l 2,16,17
 423 0 423 0 403 20 c 128,-1,18
 383 40 383 40 383 98 c 2,19,-1
 383 276 l 1,20,-1
 267 276 l 1,21,-1
 164 0 l 1,22,-1
 78 0 l 1,0,-1
522 79 m 2,23,-1
 687 79 l 1,24,-1
 687 285 l 2,25,26
 687 314 687 314 677 324 c 128,-1,27
 667 334 667 334 638 334 c 2,28,-1
 522 334 l 2,29,30
 493 334 493 334 483 324 c 128,-1,31
 473 314 473 314 473 285 c 2,32,-1
 473 128 l 2,33,34
 473 99 473 99 483 89 c 128,-1,35
 493 79 493 79 522 79 c 2,23,-1
EndSplineSet
EndChar

StartChar: uni2C19
Encoding: 33 11289 34
Width: 796
GlyphClass: 2
Flags: W
AnchorPoint: "+BBEENQQ3BEsEPARPBD0EPQQ+BDUA--0" 400 781 basechar 0
LayerCount: 2
Fore
SplineSet
398 -10 m 0,0,1
 287 -10 287 -10 213.5 36 c 128,-1,2
 140 82 140 82 104 165 c 128,-1,3
 68 248 68 248 68 359 c 0,4,5
 68 469 68 469 104 551 c 128,-1,6
 140 633 140 633 213.5 679 c 128,-1,7
 287 725 287 725 399 725 c 0,8,9
 506 725 506 725 579.5 679.5 c 128,-1,10
 653 634 653 634 690.5 551.5 c 128,-1,11
 728 469 728 469 728 358 c 256,12,13
 728 247 728 247 690.5 164.5 c 128,-1,14
 653 82 653 82 579.5 36 c 128,-1,15
 506 -10 506 -10 398 -10 c 0,0,1
399 555 m 0,16,17
 420 555 420 555 434.5 569.5 c 128,-1,18
 449 584 449 584 449 604 c 256,19,20
 449 624 449 624 434.5 639 c 128,-1,21
 420 654 420 654 397 654 c 0,22,23
 378 654 378 654 364 639 c 128,-1,24
 350 624 350 624 350 604 c 256,25,26
 350 584 350 584 364.5 569.5 c 128,-1,27
 379 555 379 555 399 555 c 0,16,17
292 81 m 1,28,29
 289 95 289 95 289 109 c 0,30,31
 289 156 289 156 321 188 c 128,-1,32
 353 220 353 220 399 220 c 256,33,34
 445 220 445 220 477.5 188 c 128,-1,35
 510 156 510 156 510 109 c 0,36,37
 510 102 510 102 509 95 c 128,-1,38
 508 88 508 88 506 82 c 1,39,40
 572 112 572 112 603.5 185 c 128,-1,41
 635 258 635 258 635 358 c 0,42,43
 635 459 635 459 603 531 c 128,-1,44
 571 603 571 603 506 633 c 1,45,46
 508 626 508 626 509 619 c 128,-1,47
 510 612 510 612 510 604 c 0,48,49
 510 558 510 558 477.5 526 c 128,-1,50
 445 494 445 494 399 494 c 256,51,52
 353 494 353 494 321 526 c 128,-1,53
 289 558 289 558 289 604 c 0,54,55
 289 620 289 620 292 633 c 1,56,57
 225 604 225 604 193 531.5 c 128,-1,58
 161 459 161 459 161 358 c 0,59,60
 161 258 161 258 193 184.5 c 128,-1,61
 225 111 225 111 292 81 c 1,28,29
399 61 m 0,62,63
 420 61 420 61 434.5 75.5 c 128,-1,64
 449 90 449 90 449 110 c 256,65,66
 449 130 449 130 434.5 144.5 c 128,-1,67
 420 159 420 159 399 159 c 0,68,69
 379 159 379 159 364.5 144.5 c 128,-1,70
 350 130 350 130 350 110 c 256,71,72
 350 90 350 90 364.5 75.5 c 128,-1,73
 379 61 379 61 399 61 c 0,62,63
EndSplineSet
EndChar

StartChar: uni2C1A
Encoding: 34 11290 35
Width: 865
GlyphClass: 2
Flags: W
AnchorPoint: "+BBEENQQ3BEsEPARPBD0EPQQ+BDUA--0" 410 781 basechar 0
LayerCount: 2
Fore
SplineSet
176 0 m 2,0,1
 118 0 118 0 98 20 c 128,-1,2
 78 40 78 40 78 98 c 2,3,-1
 78 315 l 2,4,5
 78 355 78 355 86.5 376 c 128,-1,6
 95 397 95 397 116 405 c 128,-1,7
 137 413 137 413 176 413 c 2,8,-1
 382 413 l 1,9,-1
 382 616 l 2,10,11
 382 655 382 655 390 676 c 128,-1,12
 398 697 398 697 419 705.5 c 128,-1,13
 440 714 440 714 479 714 c 2,14,-1
 669 714 l 2,15,16
 709 714 709 714 730 705.5 c 128,-1,17
 751 697 751 697 759 676 c 128,-1,18
 767 655 767 655 767 616 c 2,19,-1
 767 0 l 1,20,-1
 677 0 l 1,21,-1
 677 586 l 2,22,23
 677 615 677 615 667 625 c 128,-1,24
 657 635 657 635 628 635 c 2,25,-1
 521 635 l 2,26,27
 491 635 491 635 481.5 625 c 128,-1,28
 472 615 472 615 472 586 c 2,29,-1
 472 98 l 2,30,31
 472 40 472 40 452.5 20 c 128,-1,32
 433 0 433 0 374 0 c 2,33,-1
 176 0 l 2,0,1
217 79 m 2,34,-1
 333 79 l 2,35,36
 362 79 362 79 372 89 c 128,-1,37
 382 99 382 99 382 128 c 2,38,-1
 382 334 l 1,39,-1
 217 334 l 2,40,41
 188 334 188 334 178 324 c 128,-1,42
 168 314 168 314 168 285 c 2,43,-1
 168 128 l 2,44,45
 168 99 168 99 178 89 c 128,-1,46
 188 79 188 79 217 79 c 2,34,-1
EndSplineSet
EndChar

StartChar: uni2C1B
Encoding: 35 11291 36
Width: 818
GlyphClass: 2
Flags: W
AnchorPoint: "+BBEENQQ3BEsEPARPBD0EPQQ+BDUA--0" 410 781 basechar 0
LayerCount: 2
Fore
SplineSet
227 0 m 1,0,-1
 227 193 l 2,1,2
 227 230 227 230 232.5 266.5 c 128,-1,3
 238 303 238 303 255 334 c 1,4,-1
 176 334 l 2,5,6
 118 334 118 334 98 354 c 128,-1,7
 78 374 78 374 78 432 c 2,8,-1
 78 714 l 1,9,-1
 168 714 l 1,10,-1
 168 462 l 2,11,12
 168 433 168 433 178 423 c 128,-1,13
 188 413 188 413 217 413 c 2,14,-1
 364 413 l 1,15,-1
 364 714 l 1,16,-1
 454 714 l 1,17,-1
 454 413 l 1,18,-1
 601 413 l 2,19,20
 630 413 630 413 640 423 c 128,-1,21
 650 433 650 433 650 462 c 2,22,-1
 650 714 l 1,23,-1
 740 714 l 1,24,-1
 740 432 l 2,25,26
 740 374 740 374 720.5 354 c 128,-1,27
 701 334 701 334 642 334 c 2,28,-1
 563 334 l 1,29,30
 579 305 579 305 585.5 269 c 128,-1,31
 592 233 592 233 592 193 c 2,32,-1
 592 0 l 1,33,-1
 227 0 l 1,0,-1
316 79 m 1,34,-1
 502 79 l 1,35,-1
 502 193 l 2,36,37
 502 242 502 242 495.5 272.5 c 128,-1,38
 489 303 489 303 469.5 318 c 128,-1,39
 450 333 450 333 409 333 c 0,40,41
 369 333 369 333 349 318.5 c 128,-1,42
 329 304 329 304 322.5 273 c 128,-1,43
 316 242 316 242 316 193 c 2,44,-1
 316 79 l 1,34,-1
EndSplineSet
EndChar

StartChar: uni2C1C
Encoding: 36 11292 37
Width: 840
GlyphClass: 2
Flags: W
AnchorPoint: "+BBEENQQ3BEsEPARPBD0EPQQ+BDUA--0" 498 781 basechar 0
LayerCount: 2
Fore
SplineSet
502 0 m 2,0,1
 471 0 471 0 459.5 26 c 128,-1,2
 448 52 448 52 441 98 c 2,3,-1
 406 334 l 1,4,-1
 385 334 l 2,5,6
 296 334 296 334 224 362 c 128,-1,7
 152 390 152 390 110 443.5 c 128,-1,8
 68 497 68 497 68 575 c 0,9,10
 68 606 68 606 75 638 c 128,-1,11
 82 670 82 670 106 692 c 128,-1,12
 130 714 130 714 179 714 c 2,13,-1
 356 714 l 2,14,15
 398 714 398 714 416.5 706.5 c 128,-1,16
 435 699 435 699 441.5 678 c 128,-1,17
 448 657 448 657 454 616 c 2,18,-1
 528 128 l 2,19,20
 532 101 532 101 539 90 c 128,-1,21
 546 79 546 79 570 79 c 0,22,23
 595 79 595 79 601.5 89.5 c 128,-1,24
 608 100 608 100 612 128 c 2,25,-1
 703 714 l 1,26,-1
 791 714 l 1,27,-1
 696 98 l 2,28,29
 689 52 689 52 677.5 26 c 128,-1,30
 666 0 666 0 636 0 c 2,31,-1
 502 0 l 2,0,1
374 413 m 2,32,-1
 395 413 l 1,33,-1
 367 592 l 2,34,35
 364 612 364 612 357.5 623.5 c 128,-1,36
 351 635 351 635 331 635 c 2,37,-1
 210 635 l 2,38,39
 176 635 176 635 167 615 c 128,-1,40
 158 595 158 595 158 561 c 0,41,42
 158 492 158 492 217 452.5 c 128,-1,43
 276 413 276 413 374 413 c 2,32,-1
EndSplineSet
EndChar

StartChar: uni2C1D
Encoding: 37 11293 38
Width: 909
GlyphClass: 2
Flags: W
AnchorPoint: "+BBEENQQ3BEsEPARPBD0EPQQ+BDUA--0" 458 781 basechar 0
LayerCount: 2
Fore
SplineSet
272 0 m 1,0,-1
 272 169 l 2,1,2
 272 213 272 213 281 257.5 c 128,-1,3
 290 302 290 302 316 334 c 1,4,-1
 49 334 l 1,5,-1
 199 714 l 1,6,-1
 289 714 l 1,7,-1
 245 603 l 1,8,-1
 664 603 l 1,9,-1
 620 714 l 1,10,-1
 710 714 l 1,11,-1
 860 334 l 1,12,-1
 592 334 l 1,13,14
 617 303 617 303 627 260 c 128,-1,15
 637 217 637 217 637 169 c 2,16,-1
 637 0 l 1,17,-1
 272 0 l 1,0,-1
170 413 m 1,18,-1
 409 413 l 1,19,-1
 409 523 l 1,20,-1
 213 523 l 1,21,-1
 170 413 l 1,18,-1
500 413 m 1,22,-1
 739 413 l 1,23,-1
 695 523 l 1,24,-1
 500 523 l 1,25,-1
 500 413 l 1,22,-1
362 79 m 1,26,-1
 547 79 l 1,27,-1
 547 169 l 2,28,29
 547 218 547 218 541 249 c 128,-1,30
 535 280 535 280 515.5 295 c 128,-1,31
 496 310 496 310 455 310 c 0,32,33
 415 310 415 310 395 295 c 128,-1,34
 375 280 375 280 368.5 249 c 128,-1,35
 362 218 362 218 362 169 c 2,36,-1
 362 79 l 1,26,-1
EndSplineSet
EndChar

StartChar: uni2C1E
Encoding: 38 11294 39
Width: 857
GlyphClass: 2
Flags: W
AnchorPoint: "+BBEENQQ3BEsEPARPBD0EPQQ+BDUA--0" 429 781 basechar 0
LayerCount: 2
Fore
SplineSet
195 0 m 2,0,1
 156 0 156 0 135 8.5 c 128,-1,2
 114 17 114 17 106 38 c 128,-1,3
 98 59 98 59 98 98 c 2,4,-1
 98 714 l 1,5,-1
 188 714 l 1,6,-1
 188 128 l 2,7,8
 188 99 188 99 197.5 89 c 128,-1,9
 207 79 207 79 236 79 c 2,10,-1
 383 79 l 1,11,-1
 383 714 l 1,12,-1
 473 714 l 1,13,-1
 473 79 l 1,14,-1
 621 79 l 2,15,16
 650 79 650 79 659.5 89 c 128,-1,17
 669 99 669 99 669 128 c 2,18,-1
 669 714 l 1,19,-1
 759 714 l 1,20,-1
 759 98 l 2,21,22
 759 59 759 59 751 38 c 128,-1,23
 743 17 743 17 722 8.5 c 128,-1,24
 701 0 701 0 662 0 c 2,25,-1
 195 0 l 2,0,1
EndSplineSet
EndChar

StartChar: uni2C1F
Encoding: 39 11295 40
Width: 742
GlyphClass: 2
Flags: W
AnchorPoint: "+BBEENQQ3BEsEPARPBD0EPQQ+BDUA--0" 469 781 basechar 0
LayerCount: 2
Fore
SplineSet
299 0 m 1,0,-1
 299 178 l 2,1,2
 299 218 299 218 306 259.5 c 128,-1,3
 313 301 313 301 334 334 c 1,4,-1
 250 334 l 1,5,6
 255 316 255 316 255 301 c 0,7,8
 255 270 255 270 240 244.5 c 128,-1,9
 225 219 225 219 199.5 203.5 c 128,-1,10
 174 188 174 188 142 188 c 0,11,12
 111 188 111 188 85.5 203.5 c 128,-1,13
 60 219 60 219 44.5 244.5 c 128,-1,14
 29 270 29 270 29 301 c 256,15,16
 29 332 29 332 44.5 357.5 c 128,-1,17
 60 383 60 383 85.5 398 c 128,-1,18
 111 413 111 413 142 413 c 2,19,-1
 323 413 l 1,20,21
 309 442 309 442 304 477 c 128,-1,22
 299 512 299 512 299 546 c 2,23,-1
 299 714 l 1,24,-1
 664 714 l 1,25,-1
 664 546 l 2,26,27
 664 491 664 491 651 442.5 c 128,-1,28
 638 394 638 394 603 364 c 1,29,30
 638 333 638 333 651 283 c 128,-1,31
 664 233 664 233 664 178 c 2,32,-1
 664 0 l 1,33,-1
 299 0 l 1,0,-1
481 405 m 0,34,35
 522 405 522 405 542 420 c 128,-1,36
 562 435 562 435 568 466 c 128,-1,37
 574 497 574 497 574 546 c 2,38,-1
 574 635 l 1,39,-1
 389 635 l 1,40,-1
 389 546 l 2,41,42
 389 497 389 497 395.5 466 c 128,-1,43
 402 435 402 435 421.5 420 c 128,-1,44
 441 405 441 405 481 405 c 0,34,35
142 251 m 256,45,46
 162 251 162 251 176.5 265.5 c 128,-1,47
 191 280 191 280 191 301 c 0,48,49
 191 321 191 321 177 335.5 c 128,-1,50
 163 350 163 350 140 350 c 0,51,52
 121 350 121 350 107 335.5 c 128,-1,53
 93 321 93 321 93 301 c 0,54,55
 93 280 93 280 107.5 265.5 c 128,-1,56
 122 251 122 251 142 251 c 256,45,46
389 79 m 1,57,-1
 574 79 l 1,58,-1
 574 178 l 2,59,60
 574 226 574 226 568 259 c 128,-1,61
 562 292 562 292 542 309 c 128,-1,62
 522 326 522 326 481 326 c 0,63,64
 441 326 441 326 421.5 309 c 128,-1,65
 402 292 402 292 395.5 259.5 c 128,-1,66
 389 227 389 227 389 178 c 2,67,-1
 389 79 l 1,57,-1
EndSplineSet
EndChar

StartChar: uni2C20
Encoding: 40 11296 41
Width: 699
GlyphClass: 2
Flags: W
AnchorPoint: "+BBEENQQ3BEsEPARPBD0EPQQ+BDUA--0" 437 781 basechar 0
LayerCount: 2
Fore
SplineSet
256 0 m 1,0,-1
 256 178 l 2,1,2
 256 218 256 218 263 259.5 c 128,-1,3
 270 301 270 301 292 334 c 1,4,-1
 205 334 l 1,5,6
 206 329 206 329 206.5 323.5 c 128,-1,7
 207 318 207 318 207 313 c 0,8,9
 207 271 207 271 181 241.5 c 128,-1,10
 155 212 155 212 118 212 c 256,11,12
 81 212 81 212 55 241.5 c 128,-1,13
 29 271 29 271 29 313 c 256,14,15
 29 355 29 355 55 384 c 128,-1,16
 81 413 81 413 118 413 c 2,17,-1
 280 413 l 1,18,19
 266 442 266 442 261 477 c 128,-1,20
 256 512 256 512 256 546 c 2,21,-1
 256 714 l 1,22,-1
 621 714 l 1,23,-1
 621 546 l 2,24,25
 621 491 621 491 608 442.5 c 128,-1,26
 595 394 595 394 560 364 c 1,27,28
 595 333 595 333 608 283 c 128,-1,29
 621 233 621 233 621 178 c 2,30,-1
 621 0 l 1,31,-1
 256 0 l 1,0,-1
438 405 m 0,32,33
 479 405 479 405 499 420 c 128,-1,34
 519 435 519 435 525 466 c 128,-1,35
 531 497 531 497 531 546 c 2,36,-1
 531 635 l 1,37,-1
 346 635 l 1,38,-1
 346 546 l 2,39,40
 346 497 346 497 352.5 466 c 128,-1,41
 359 435 359 435 378.5 420 c 128,-1,42
 398 405 398 405 438 405 c 0,32,33
346 79 m 1,43,-1
 531 79 l 1,44,-1
 531 178 l 2,45,46
 531 226 531 226 525 259 c 128,-1,47
 519 292 519 292 499 309 c 128,-1,48
 479 326 479 326 438 326 c 0,49,50
 398 326 398 326 378.5 309 c 128,-1,51
 359 292 359 292 352.5 259.5 c 128,-1,52
 346 227 346 227 346 178 c 2,53,-1
 346 79 l 1,43,-1
EndSplineSet
EndChar

StartChar: uni2C21
Encoding: 41 11297 42
Width: 936
GlyphClass: 2
Flags: W
AnchorPoint: "+BBEENQQ3BEsEPARPBD0EPQQ+BDUA--0" 458 781 basechar 0
LayerCount: 2
Fore
SplineSet
49 0 m 1,0,-1
 354 655 l 2,1,2
 367 683 367 683 381 698.5 c 128,-1,3
 395 714 395 714 420 714 c 2,4,-1
 515 714 l 2,5,6
 541 714 541 714 555 698.5 c 128,-1,7
 569 683 569 683 582 655 c 2,8,-1
 887 0 l 1,9,-1
 49 0 l 1,0,-1
315 381 m 1,10,-1
 621 381 l 1,11,-1
 519 601 l 2,12,13
 513 614 513 614 504.5 624.5 c 128,-1,14
 496 635 496 635 479 635 c 2,15,-1
 456 635 l 2,16,17
 439 635 439 635 431 624.5 c 128,-1,18
 423 614 423 614 417 601 c 2,19,-1
 315 381 l 1,10,-1
175 79 m 1,20,-1
 425 79 l 1,21,-1
 425 302 l 1,22,-1
 278 302 l 1,23,-1
 175 79 l 1,20,-1
516 79 m 1,24,-1
 761 79 l 1,25,-1
 657 302 l 1,26,-1
 516 302 l 1,27,-1
 516 79 l 1,24,-1
EndSplineSet
EndChar

StartChar: uni2C22
Encoding: 42 11298 43
Width: 778
GlyphClass: 2
Flags: W
AnchorPoint: "+BBEENQQ3BEsEPARPBD0EPQQ+BDUA--0" 383 781 basechar 0
LayerCount: 2
Fore
SplineSet
459 -34 m 1,0,-1
 459 31 l 1,1,2
 443 28 443 28 425.5 26 c 128,-1,3
 408 24 408 24 389 24 c 0,4,5
 281 24 281 24 209.5 67.5 c 128,-1,6
 138 111 138 111 103 186.5 c 128,-1,7
 68 262 68 262 68 357 c 0,8,9
 68 404 68 404 78.5 449 c 128,-1,10
 89 494 89 494 110 533 c 1,11,-1
 110 746 l 1,12,-1
 185 746 l 1,13,-1
 185 623 l 1,14,15
 218 649 218 649 261 665 c 1,16,-1
 261 746 l 1,17,-1
 336 746 l 1,18,-1
 336 683 l 1,19,20
 350 685 350 685 363 686 c 128,-1,21
 376 687 376 687 390 687 c 0,22,23
 494 687 494 687 565 644 c 128,-1,24
 636 601 636 601 672.5 526.5 c 128,-1,25
 709 452 709 452 709 356 c 0,26,27
 709 321 709 321 703.5 287.5 c 128,-1,28
 698 254 698 254 686 222 c 1,29,-1
 686 -34 l 1,30,-1
 611 -34 l 1,31,-1
 611 107 l 1,32,33
 577 74 577 74 535 55 c 1,34,-1
 535 -34 l 1,35,-1
 459 -34 l 1,0,-1
389 102 m 0,36,37
 468 102 468 102 517.5 134 c 128,-1,38
 567 166 567 166 590.5 223 c 128,-1,39
 614 280 614 280 614 356 c 0,40,41
 614 470 614 470 561 539 c 128,-1,42
 508 608 508 608 390 608 c 256,43,44
 272 608 272 608 217.5 539 c 128,-1,45
 163 470 163 470 163 356 c 0,46,47
 163 280 163 280 187 223 c 128,-1,48
 211 166 211 166 261 134 c 128,-1,49
 311 102 311 102 389 102 c 0,36,37
EndSplineSet
EndChar

StartChar: uni2C23
Encoding: 43 11299 44
Width: 857
GlyphClass: 2
Flags: W
AnchorPoint: "+BBEENQQ3BEsEPARPBD0EPQQ+BDUA--0" 419 781 basechar 0
LayerCount: 2
Fore
SplineSet
98 -82 m 1,0,-1
 98 616 l 2,1,2
 98 655 98 655 106 676 c 128,-1,3
 114 697 114 697 135 705.5 c 128,-1,4
 156 714 156 714 195 714 c 2,5,-1
 662 714 l 2,6,7
 701 714 701 714 722 705.5 c 128,-1,8
 743 697 743 697 751 676 c 128,-1,9
 759 655 759 655 759 616 c 2,10,-1
 759 233 l 2,11,12
 759 190 759 190 753.5 162 c 128,-1,13
 748 134 748 134 721 125 c 2,14,-1
 98 -82 l 1,0,-1
188 33 m 1,15,-1
 383 98 l 1,16,-1
 383 635 l 1,17,-1
 236 635 l 2,18,19
 207 635 207 635 197.5 625 c 128,-1,20
 188 615 188 615 188 586 c 2,21,-1
 188 33 l 1,15,-1
473 128 m 1,22,-1
 637 182 l 2,23,24
 669 193 669 193 669 229 c 2,25,-1
 669 586 l 2,26,27
 669 615 669 615 659.5 625 c 128,-1,28
 650 635 650 635 621 635 c 2,29,-1
 473 635 l 1,30,-1
 473 128 l 1,22,-1
EndSplineSet
EndChar

StartChar: uni2C24
Encoding: 44 11300 45
Width: 727
GlyphClass: 2
Flags: W
AnchorPoint: "+BBEENQQ3BEsEPARPBD0EPQQ+BDUA--0" 447 781 basechar 0
LayerCount: 2
Fore
SplineSet
482 -10 m 0,0,1
 317 -10 317 -10 231.5 82.5 c 128,-1,2
 146 175 146 175 138 334 c 1,3,-1
 20 334 l 1,4,-1
 20 413 l 1,5,-1
 139 413 l 1,6,7
 147 504 147 504 186 574 c 128,-1,8
 225 644 225 644 297 684 c 128,-1,9
 369 724 369 724 475 724 c 0,10,11
 531 724 531 724 584 713 c 128,-1,12
 637 702 637 702 678 682 c 1,13,-1
 641 607 l 1,14,15
 608 622 608 622 567 633.5 c 128,-1,16
 526 645 526 645 476 645 c 0,17,18
 373 645 373 645 308 584 c 128,-1,19
 243 523 243 523 233 413 c 1,20,-1
 579 413 l 1,21,-1
 579 334 l 1,22,-1
 232 334 l 1,23,24
 236 206 236 206 301.5 137.5 c 128,-1,25
 367 69 367 69 496 69 c 0,26,27
 544 69 544 69 587 77.5 c 128,-1,28
 630 86 630 86 672 97 c 1,29,-1
 672 19 l 1,30,31
 630 4 630 4 587 -3 c 128,-1,32
 544 -10 544 -10 482 -10 c 0,0,1
EndSplineSet
EndChar

StartChar: uni2C25
Encoding: 45 11301 46
Width: 850
GlyphClass: 2
Flags: W
AnchorPoint: "+BBEENQQ3BEsEPARPBD0EPQQ+BDUA--0" 410 781 basechar 0
LayerCount: 2
Fore
SplineSet
604 -10 m 0,0,1
 439 -10 439 -10 353.5 82.5 c 128,-1,2
 268 175 268 175 260 334 c 1,3,-1
 205 334 l 1,4,5
 206 329 206 329 206.5 323.5 c 128,-1,6
 207 318 207 318 207 313 c 0,7,8
 207 271 207 271 181 241.5 c 128,-1,9
 155 212 155 212 118 212 c 256,10,11
 81 212 81 212 55 241.5 c 128,-1,12
 29 271 29 271 29 313 c 256,13,14
 29 355 29 355 55 384 c 128,-1,15
 81 413 81 413 118 413 c 2,16,-1
 262 413 l 1,17,18
 269 504 269 504 308 574 c 128,-1,19
 347 644 347 644 419.5 684 c 128,-1,20
 492 724 492 724 598 724 c 0,21,22
 654 724 654 724 707 713 c 128,-1,23
 760 702 760 702 801 682 c 1,24,-1
 764 607 l 1,25,26
 731 622 731 622 690 633.5 c 128,-1,27
 649 645 649 645 599 645 c 0,28,29
 495 645 495 645 430.5 584 c 128,-1,30
 366 523 366 523 355 413 c 1,31,-1
 702 413 l 1,32,-1
 702 334 l 1,33,-1
 354 334 l 1,34,35
 358 206 358 206 424 137.5 c 128,-1,36
 490 69 490 69 619 69 c 0,37,38
 667 69 667 69 710 77.5 c 128,-1,39
 753 86 753 86 794 97 c 1,40,-1
 794 19 l 1,41,42
 753 4 753 4 710 -3 c 128,-1,43
 667 -10 667 -10 604 -10 c 0,0,1
EndSplineSet
EndChar

StartChar: uni2C26
Encoding: 46 11302 47
Width: 860
GlyphClass: 2
Flags: W
AnchorPoint: "+BBEENQQ3BEsEPARPBD0EPQQ+BDUA--0" 419 781 basechar 0
LayerCount: 2
Fore
SplineSet
248 0 m 1,0,-1
 248 169 l 2,1,2
 248 213 248 213 256.5 257.5 c 128,-1,3
 265 302 265 302 292 334 c 1,4,-1
 49 334 l 1,5,-1
 248 714 l 1,6,-1
 612 714 l 1,7,-1
 811 334 l 1,8,-1
 567 334 l 1,9,10
 593 303 593 303 603 260 c 128,-1,11
 613 217 613 217 613 169 c 2,12,-1
 613 0 l 1,13,-1
 248 0 l 1,0,-1
177 413 m 1,14,-1
 385 413 l 1,15,-1
 385 635 l 1,16,-1
 295 635 l 1,17,-1
 177 413 l 1,14,-1
475 413 m 1,18,-1
 683 413 l 1,19,-1
 564 635 l 1,20,-1
 475 635 l 1,21,-1
 475 413 l 1,18,-1
337 79 m 1,22,-1
 523 79 l 1,23,-1
 523 169 l 2,24,25
 523 218 523 218 516.5 249 c 128,-1,26
 510 280 510 280 490.5 295 c 128,-1,27
 471 310 471 310 430 310 c 0,28,29
 390 310 390 310 370 295 c 128,-1,30
 350 280 350 280 343.5 249 c 128,-1,31
 337 218 337 218 337 169 c 2,32,-1
 337 79 l 1,22,-1
EndSplineSet
EndChar

StartChar: uni2C27
Encoding: 47 11303 48
Width: 1030
GlyphClass: 2
Flags: W
AnchorPoint: "+BBEENQQ3BEsEPARPBD0EPQQ+BDUA--0" 517 781 basechar 0
LayerCount: 2
Fore
SplineSet
198 -10 m 0,0,1
 153 -10 153 -10 117.5 -3.5 c 128,-1,2
 82 3 82 3 52 13 c 1,3,-1
 52 93 l 1,4,5
 82 84 82 84 116 76.5 c 128,-1,6
 150 69 150 69 184 69 c 0,7,8
 273 69 273 69 319 137.5 c 128,-1,9
 365 206 365 206 365 334 c 1,10,-1
 140 334 l 1,11,-1
 140 413 l 1,12,-1
 364 413 l 1,13,14
 361 523 361 523 317 584 c 128,-1,15
 273 645 273 645 206 645 c 0,16,17
 168 645 168 645 138 636 c 128,-1,18
 108 627 108 627 83 610 c 1,19,-1
 49 684 l 1,20,21
 83 704 83 704 119 714 c 128,-1,22
 155 724 155 724 207 724 c 0,23,24
 272 724 272 724 318 699 c 128,-1,25
 364 674 364 674 394 631 c 128,-1,26
 424 588 424 588 439 532 c 128,-1,27
 454 476 454 476 458 413 c 1,28,-1
 572 413 l 1,29,30
 576 476 576 476 591 532 c 128,-1,31
 606 588 606 588 636 631 c 128,-1,32
 666 674 666 674 712 699 c 128,-1,33
 758 724 758 724 824 724 c 0,34,35
 876 724 876 724 911.5 714 c 128,-1,36
 947 704 947 704 981 684 c 1,37,-1
 947 610 l 1,38,39
 922 627 922 627 892.5 636 c 128,-1,40
 863 645 863 645 825 645 c 0,41,42
 758 645 758 645 713.5 584 c 128,-1,43
 669 523 669 523 667 413 c 1,44,-1
 891 413 l 1,45,-1
 891 334 l 1,46,-1
 666 334 l 1,47,48
 666 206 666 206 712 137.5 c 128,-1,49
 758 69 758 69 847 69 c 0,50,51
 881 69 881 69 914.5 76.5 c 128,-1,52
 948 84 948 84 979 93 c 1,53,-1
 979 13 l 1,54,55
 948 3 948 3 912.5 -3.5 c 128,-1,56
 877 -10 877 -10 833 -10 c 0,57,58
 742 -10 742 -10 685.5 34.5 c 128,-1,59
 629 79 629 79 602 156.5 c 128,-1,60
 575 234 575 234 571 334 c 1,61,-1
 458 334 l 1,62,63
 455 234 455 234 428 156.5 c 128,-1,64
 401 79 401 79 345 34.5 c 128,-1,65
 289 -10 289 -10 198 -10 c 0,0,1
EndSplineSet
EndChar

StartChar: uni2C28
Encoding: 48 11304 49
Width: 1040
GlyphClass: 2
Flags: W
AnchorPoint: "+BBEENQQ3BEsEPARPBD0EPQQ+BDUA--0" 479 781 basechar 0
LayerCount: 2
Fore
SplineSet
842 -10 m 0,0,1
 751 -10 751 -10 695 34.5 c 128,-1,2
 639 79 639 79 612 156.5 c 128,-1,3
 585 234 585 234 581 334 c 1,4,-1
 481 334 l 1,5,-1
 481 98 l 2,6,7
 481 56 481 56 474 35 c 128,-1,8
 467 14 467 14 446.5 7 c 128,-1,9
 426 0 426 0 384 0 c 2,10,-1
 189 0 l 2,11,12
 139 0 139 0 115.5 22 c 128,-1,13
 92 44 92 44 85 76 c 128,-1,14
 78 108 78 108 78 139 c 0,15,16
 78 213 78 213 116 272.5 c 128,-1,17
 154 332 154 332 218 368 c 1,18,19
 154 397 154 397 116 449.5 c 128,-1,20
 78 502 78 502 78 575 c 0,21,22
 78 606 78 606 85 638 c 128,-1,23
 92 670 92 670 115.5 692 c 128,-1,24
 139 714 139 714 189 714 c 2,25,-1
 384 714 l 2,26,27
 426 714 426 714 446.5 707 c 128,-1,28
 467 700 467 700 474 679 c 128,-1,29
 481 658 481 658 481 616 c 2,30,-1
 481 413 l 1,31,-1
 582 413 l 1,32,33
 585 476 585 476 600.5 532 c 128,-1,34
 616 588 616 588 645.5 631 c 128,-1,35
 675 674 675 674 721.5 699 c 128,-1,36
 768 724 768 724 833 724 c 0,37,38
 886 724 886 724 921.5 714 c 128,-1,39
 957 704 957 704 991 684 c 1,40,-1
 957 610 l 1,41,42
 932 627 932 627 902 636 c 128,-1,43
 872 645 872 645 834 645 c 0,44,45
 767 645 767 645 723 584 c 128,-1,46
 679 523 679 523 676 413 c 1,47,-1
 900 413 l 1,48,-1
 900 334 l 1,49,-1
 675 334 l 1,50,51
 675 206 675 206 721.5 137.5 c 128,-1,52
 768 69 768 69 856 69 c 0,53,54
 891 69 891 69 924.5 76.5 c 128,-1,55
 958 84 958 84 988 93 c 1,56,-1
 988 13 l 1,57,58
 958 3 958 3 922.5 -3.5 c 128,-1,59
 887 -10 887 -10 842 -10 c 0,0,1
392 413 m 1,60,-1
 392 592 l 2,61,62
 392 612 392 612 383.5 623.5 c 128,-1,63
 375 635 375 635 355 635 c 2,64,-1
 220 635 l 2,65,66
 185 635 185 635 176.5 614.5 c 128,-1,67
 168 594 168 594 168 559 c 0,68,69
 168 514 168 514 196.5 481.5 c 128,-1,70
 225 449 225 449 276 431.5 c 128,-1,71
 327 414 327 414 392 413 c 1,60,-1
220 79 m 2,72,-1
 355 79 l 2,73,74
 375 79 375 79 383.5 90.5 c 128,-1,75
 392 102 392 102 392 121 c 2,76,-1
 392 334 l 1,77,78
 327 334 327 334 276 308 c 128,-1,79
 225 282 225 282 196.5 241.5 c 128,-1,80
 168 201 168 201 168 155 c 0,81,82
 168 119 168 119 176.5 99 c 128,-1,83
 185 79 185 79 220 79 c 2,72,-1
EndSplineSet
EndChar

StartChar: uni2C29
Encoding: 49 11305 50
Width: 1304
GlyphClass: 2
Flags: W
AnchorPoint: "+BBEENQQ3BEsEPARPBD0EPQQ+BDUA--0" 635 781 basechar 0
LayerCount: 2
Fore
SplineSet
1106 -10 m 0,0,1
 1015 -10 1015 -10 958.5 34.5 c 128,-1,2
 902 79 902 79 875.5 156.5 c 128,-1,3
 849 234 849 234 845 334 c 1,4,-1
 567 334 l 1,5,6
 593 303 593 303 603 260 c 128,-1,7
 613 217 613 217 613 169 c 2,8,-1
 613 0 l 1,9,-1
 248 0 l 1,10,-1
 248 169 l 2,11,12
 248 213 248 213 256.5 257.5 c 128,-1,13
 265 302 265 302 292 334 c 1,14,-1
 49 334 l 1,15,-1
 248 714 l 1,16,-1
 612 714 l 1,17,-1
 770 413 l 1,18,-1
 845 413 l 1,19,20
 849 476 849 476 864 532 c 128,-1,21
 879 588 879 588 909 631 c 128,-1,22
 939 674 939 674 985 699 c 128,-1,23
 1031 724 1031 724 1097 724 c 0,24,25
 1150 724 1150 724 1185.5 714 c 128,-1,26
 1221 704 1221 704 1255 684 c 1,27,-1
 1221 610 l 1,28,29
 1171 645 1171 645 1098 645 c 0,30,31
 1031 645 1031 645 986.5 584 c 128,-1,32
 942 523 942 523 940 413 c 1,33,-1
 1164 413 l 1,34,-1
 1164 334 l 1,35,-1
 939 334 l 1,36,37
 939 206 939 206 985 137.5 c 128,-1,38
 1031 69 1031 69 1120 69 c 0,39,40
 1155 69 1155 69 1188 76.5 c 128,-1,41
 1221 84 1221 84 1252 93 c 1,42,-1
 1252 13 l 1,43,44
 1221 3 1221 3 1186 -3.5 c 128,-1,45
 1151 -10 1151 -10 1106 -10 c 0,0,1
177 413 m 1,46,-1
 385 413 l 1,47,-1
 385 635 l 1,48,-1
 295 635 l 1,49,-1
 177 413 l 1,46,-1
475 413 m 1,50,-1
 683 413 l 1,51,-1
 564 635 l 1,52,-1
 475 635 l 1,53,-1
 475 413 l 1,50,-1
337 79 m 1,54,-1
 523 79 l 1,55,-1
 523 169 l 2,56,57
 523 218 523 218 516.5 249 c 128,-1,58
 510 280 510 280 490.5 295 c 128,-1,59
 471 310 471 310 430 310 c 0,60,61
 390 310 390 310 370 295 c 128,-1,62
 350 280 350 280 343.5 249 c 128,-1,63
 337 218 337 218 337 169 c 2,64,-1
 337 79 l 1,54,-1
EndSplineSet
EndChar

StartChar: uni2C2A
Encoding: 50 11306 51
Width: 927
GlyphClass: 2
Flags: W
AnchorPoint: "+BBEENQQ3BEsEPARPBD0EPQQ+BDUA--0" 474 781 basechar 0
LayerCount: 2
Fore
SplineSet
469 -10 m 0,0,1
 385 -10 385 -10 331.5 33 c 128,-1,2
 278 76 278 76 251.5 153.5 c 128,-1,3
 225 231 225 231 222 334 c 1,4,-1
 207 334 l 2,5,6
 178 334 178 334 168 324 c 128,-1,7
 158 314 158 314 158 285 c 2,8,-1
 158 266 l 1,9,-1
 68 266 l 1,10,-1
 68 306 l 2,11,12
 68 365 68 365 88 389 c 128,-1,13
 108 413 108 413 166 413 c 2,14,-1
 223 413 l 1,15,16
 229 508 229 508 256.5 578 c 128,-1,17
 284 648 284 648 337 686.5 c 128,-1,18
 390 725 390 725 470 725 c 0,19,20
 583 725 583 725 643 640.5 c 128,-1,21
 703 556 703 556 713 413 c 1,22,-1
 761 413 l 2,23,24
 820 413 820 413 839 389 c 128,-1,25
 858 365 858 365 858 306 c 2,26,-1
 858 266 l 1,27,-1
 778 266 l 1,28,-1
 778 285 l 2,29,30
 778 314 778 314 768.5 324 c 128,-1,31
 759 334 759 334 729 334 c 2,32,-1
 714 334 l 1,33,34
 712 230 712 230 684 152.5 c 128,-1,35
 656 75 656 75 602.5 32.5 c 128,-1,36
 549 -10 549 -10 469 -10 c 0,0,1
314 413 m 1,37,-1
 623 413 l 1,38,39
 616 523 616 523 580.5 584.5 c 128,-1,40
 545 646 545 646 470 646 c 0,41,42
 394 646 394 646 357.5 584.5 c 128,-1,43
 321 523 321 523 314 413 c 1,37,-1
469 68 m 256,44,45
 550 68 550 68 585.5 139 c 128,-1,46
 621 210 621 210 624 334 c 1,47,-1
 313 334 l 1,48,49
 315 210 315 210 351.5 139 c 128,-1,50
 388 68 388 68 469 68 c 256,44,45
EndSplineSet
EndChar

StartChar: uni2C2B
Encoding: 51 11307 52
Width: 601
GlyphClass: 2
Flags: W
AnchorPoint: "+BBEENQQ3BEsEPARPBD0EPQQ+BDUA--0" 253 781 basechar 0
LayerCount: 2
Fore
SplineSet
78 0 m 1,0,-1
 78 114 l 2,1,2
 78 151 78 151 89 183 c 128,-1,3
 100 215 100 215 131 242 c 1,4,5
 103 265 103 265 91 295.5 c 128,-1,6
 79 326 79 326 79 357 c 0,7,8
 79 387 79 387 91 418 c 128,-1,9
 103 449 103 449 131 472 c 1,10,11
 100 499 100 499 89 531 c 128,-1,12
 78 563 78 563 78 600 c 2,13,-1
 78 714 l 1,14,-1
 434 714 l 1,15,-1
 434 600 l 2,16,17
 434 566 434 566 420.5 533.5 c 128,-1,18
 407 501 407 501 375 472 c 1,19,20
 391 459 391 459 401.5 444 c 128,-1,21
 412 429 412 429 419 413 c 1,22,-1
 562 413 l 1,23,-1
 562 334 l 1,24,-1
 430 334 l 1,25,26
 426 310 426 310 413 285.5 c 128,-1,27
 400 261 400 261 376 241 c 1,28,29
 410 209 410 209 422 178 c 128,-1,30
 434 147 434 147 434 114 c 2,31,-1
 434 0 l 1,32,-1
 78 0 l 1,0,-1
256 510 m 256,33,34
 294 510 294 510 312.5 525 c 128,-1,35
 331 540 331 540 337.5 561.5 c 128,-1,36
 344 583 344 583 344 600 c 2,37,-1
 344 635 l 1,38,-1
 168 635 l 1,39,-1
 168 600 l 2,40,41
 168 583 168 583 174 562 c 128,-1,42
 180 541 180 541 199 525.5 c 128,-1,43
 218 510 218 510 256 510 c 256,33,34
256 283 m 0,44,45
 289 283 289 283 308 295 c 128,-1,46
 327 307 327 307 335 324.5 c 128,-1,47
 343 342 343 342 343 357 c 256,48,49
 343 372 343 372 335 389 c 128,-1,50
 327 406 327 406 308 418.5 c 128,-1,51
 289 431 289 431 256 431 c 0,52,53
 222 431 222 431 203 418.5 c 128,-1,54
 184 406 184 406 176.5 389 c 128,-1,55
 169 372 169 372 169 357 c 0,56,57
 169 343 169 343 176.5 325.5 c 128,-1,58
 184 308 184 308 203 295.5 c 128,-1,59
 222 283 222 283 256 283 c 0,44,45
168 79 m 1,60,-1
 344 79 l 1,61,-1
 344 114 l 2,62,63
 344 131 344 131 337.5 152 c 128,-1,64
 331 173 331 173 312.5 188.5 c 128,-1,65
 294 204 294 204 256 204 c 256,66,67
 218 204 218 204 199 188.5 c 128,-1,68
 180 173 180 173 174 152 c 128,-1,69
 168 131 168 131 168 114 c 2,70,-1
 168 79 l 1,60,-1
EndSplineSet
EndChar

StartChar: uni2C2C
Encoding: 52 11308 53
Width: 388
GlyphClass: 2
Flags: W
AnchorPoint: "+BBEENQQ3BEsEPARPBD0EPQQ+BDUA--0" 168 781 basechar 0
LayerCount: 2
Fore
SplineSet
181 0 m 1,0,-1
 181 635 l 1,1,-1
 49 635 l 1,2,-1
 49 714 l 1,3,-1
 271 714 l 1,4,-1
 271 0 l 1,5,-1
 181 0 l 1,0,-1
EndSplineSet
EndChar

StartChar: uni2C2D
Encoding: 53 11309 54
Width: 792
GlyphClass: 2
Flags: W
AnchorPoint: "+BBEENQQ3BEsEPARPBD0EPQQ+BDUA--0" 345 781 basechar 0
LayerCount: 2
Fore
SplineSet
585 0 m 1,0,-1
 585 292 l 1,1,-1
 78 41 l 1,2,-1
 78 675 l 1,3,-1
 585 419 l 1,4,-1
 585 714 l 1,5,-1
 675 714 l 1,6,-1
 675 0 l 1,7,-1
 585 0 l 1,0,-1
163 395 m 1,8,-1
 469 395 l 1,9,-1
 163 544 l 1,10,-1
 163 395 l 1,8,-1
163 171 m 1,11,-1
 469 315 l 1,12,-1
 163 315 l 1,13,-1
 163 171 l 1,11,-1
EndSplineSet
EndChar

StartChar: uni2C2E
Encoding: 54 11310 55
Width: 989
GlyphClass: 2
Flags: W
AnchorPoint: "+BBEENQQ3BEsEPARPBD0EPQQ+BDUA--0" 493 781 basechar 0
LayerCount: 2
Fore
SplineSet
210 -10 m 0,0,1
 147 -10 147 -10 113 12 c 128,-1,2
 79 34 79 34 65.5 66 c 128,-1,3
 52 98 52 98 49 126 c 1,4,-1
 135 141 l 1,5,6
 141 115 141 115 156.5 92.5 c 128,-1,7
 172 70 172 70 206 70 c 0,8,9
 239 70 239 70 251.5 86.5 c 128,-1,10
 264 103 264 103 264 125 c 0,11,12
 264 150 264 150 250.5 174 c 128,-1,13
 237 198 237 198 217 223.5 c 128,-1,14
 197 249 197 249 176.5 280.5 c 128,-1,15
 156 312 156 312 142.5 352 c 128,-1,16
 129 392 129 392 129 444 c 0,17,18
 129 491 129 491 147 540 c 128,-1,19
 165 589 165 589 206.5 631 c 128,-1,20
 248 673 248 673 319 699 c 128,-1,21
 390 725 390 725 495 725 c 256,22,23
 600 725 600 725 670.5 699 c 128,-1,24
 741 673 741 673 782.5 631 c 128,-1,25
 824 589 824 589 842 540 c 128,-1,26
 860 491 860 491 860 444 c 0,27,28
 860 392 860 392 846.5 352 c 128,-1,29
 833 312 833 312 813 280.5 c 128,-1,30
 793 249 793 249 772.5 223.5 c 128,-1,31
 752 198 752 198 738.5 174 c 128,-1,32
 725 150 725 150 725 125 c 0,33,34
 725 103 725 103 738 86 c 128,-1,35
 751 69 751 69 783 69 c 0,36,37
 818 69 818 69 833.5 92 c 128,-1,38
 849 115 849 115 854 141 c 1,39,-1
 940 126 l 1,40,41
 938 98 938 98 923 66 c 128,-1,42
 908 34 908 34 874 12 c 128,-1,43
 840 -10 840 -10 779 -10 c 0,44,45
 725 -10 725 -10 693 9 c 128,-1,46
 661 28 661 28 647.5 56.5 c 128,-1,47
 634 85 634 85 634 113 c 0,48,49
 634 150 634 150 647.5 179.5 c 128,-1,50
 661 209 661 209 681.5 235.5 c 128,-1,51
 702 262 702 262 722.5 291.5 c 128,-1,52
 743 321 743 321 756.5 357.5 c 128,-1,53
 770 394 770 394 770 444 c 0,54,55
 770 473 770 473 761 506 c 128,-1,56
 752 539 752 539 727.5 569 c 128,-1,57
 703 599 703 599 658 620 c 128,-1,58
 613 641 613 641 540 646 c 1,59,-1
 540 0 l 1,60,-1
 450 0 l 1,61,-1
 450 646 l 1,62,63
 377 641 377 641 331.5 620 c 128,-1,64
 286 599 286 599 262 569 c 128,-1,65
 238 539 238 539 229 506 c 128,-1,66
 220 473 220 473 220 444 c 0,67,68
 220 394 220 394 233.5 358.5 c 128,-1,69
 247 323 247 323 267.5 294.5 c 128,-1,70
 288 266 288 266 308 239.5 c 128,-1,71
 328 213 328 213 341.5 182.5 c 128,-1,72
 355 152 355 152 355 110 c 0,73,74
 355 80 355 80 341.5 52.5 c 128,-1,75
 328 25 328 25 296.5 7.5 c 128,-1,76
 265 -10 265 -10 210 -10 c 0,0,1
EndSplineSet
EndChar

StartChar: uni2C30
Encoding: 55 11312 56
Width: 707
GlyphClass: 2
Flags: W
AnchorPoint: "+BBEENQQ3BEsEPARPBD0EPQQ+BDUA--0" 351 605 basechar 0
LayerCount: 2
Fore
SplineSet
68 0 m 1,0,-1
 68 225 l 2,1,2
 68 254 68 254 71.5 273.5 c 128,-1,3
 75 293 75 293 89.5 303 c 128,-1,4
 104 313 104 313 136 313 c 2,5,-1
 311 313 l 1,6,-1
 311 536 l 1,7,-1
 396 536 l 1,8,-1
 396 313 l 1,9,-1
 571 313 l 2,10,11
 603 313 603 313 617.5 303 c 128,-1,12
 632 293 632 293 635.5 273.5 c 128,-1,13
 639 254 639 254 639 225 c 2,14,-1
 639 0 l 1,15,-1
 553 0 l 1,16,-1
 553 203 l 2,17,18
 553 225 553 225 547 233.5 c 128,-1,19
 541 242 541 242 519 242 c 2,20,-1
 396 242 l 1,21,-1
 396 0 l 1,22,-1
 311 0 l 1,23,-1
 311 242 l 1,24,-1
 188 242 l 2,25,26
 166 242 166 242 160 233.5 c 128,-1,27
 154 225 154 225 154 203 c 2,28,-1
 154 0 l 1,29,-1
 68 0 l 1,0,-1
EndSplineSet
EndChar

StartChar: uni2C31
Encoding: 56 11313 57
Width: 727
GlyphClass: 2
Flags: W
AnchorPoint: "+BBEENQQ3BEsEPARPBD0EPQQ+BDUA--0" 373 605 basechar 0
LayerCount: 2
Fore
SplineSet
155 0 m 2,0,1
 112 0 112 0 100 18.5 c 128,-1,2
 88 37 88 37 88 88 c 2,3,-1
 88 536 l 1,4,-1
 174 536 l 1,5,-1
 174 280 l 1,6,-1
 330 294 l 1,7,-1
 330 536 l 1,8,-1
 416 536 l 1,9,-1
 416 302 l 1,10,-1
 540 313 l 2,11,12
 561 315 561 315 566.5 323.5 c 128,-1,13
 572 332 572 332 572 354 c 2,14,-1
 572 536 l 1,15,-1
 658 536 l 1,16,-1
 658 324 l 2,17,18
 658 298 658 298 654.5 282.5 c 128,-1,19
 651 267 651 267 635 260 c 128,-1,20
 619 253 619 253 583 249 c 2,21,-1
 174 208 l 1,22,-1
 174 110 l 2,23,24
 174 81 174 81 183.5 76 c 128,-1,25
 193 71 193 71 208 71 c 2,26,-1
 646 71 l 1,27,-1
 646 0 l 1,28,-1
 155 0 l 2,0,1
EndSplineSet
EndChar

StartChar: uni2C32
Encoding: 57 11314 58
Width: 920
GlyphClass: 2
Flags: W
AnchorPoint: "+BBEENQQ3BEsEPARPBD0EPQQ+BDUA--0" 453 605 basechar 0
LayerCount: 2
Fore
SplineSet
155 0 m 2,0,1
 112 0 112 0 100 20 c 128,-1,2
 88 40 88 40 88 88 c 2,3,-1
 88 448 l 2,4,5
 88 496 88 496 100 516 c 128,-1,6
 112 536 112 536 155 536 c 2,7,-1
 339 536 l 2,8,9
 383 536 383 536 394.5 516 c 128,-1,10
 406 496 406 496 406 448 c 2,11,-1
 406 71 l 1,12,-1
 514 71 l 1,13,-1
 514 448 l 2,14,15
 514 496 514 496 525.5 516 c 128,-1,16
 537 536 537 536 581 536 c 2,17,-1
 765 536 l 2,18,19
 809 536 809 536 820.5 516 c 128,-1,20
 832 496 832 496 832 448 c 2,21,-1
 832 88 l 2,22,23
 832 40 832 40 820.5 20 c 128,-1,24
 809 0 809 0 765 0 c 2,25,-1
 155 0 l 2,0,1
208 71 m 2,26,-1
 320 71 l 1,27,-1
 320 426 l 2,28,29
 320 452 320 452 312.5 458.5 c 128,-1,30
 305 465 305 465 286 465 c 2,31,-1
 208 465 l 2,32,33
 190 465 190 465 182 458.5 c 128,-1,34
 174 452 174 452 174 426 c 2,35,-1
 174 110 l 2,36,37
 174 85 174 85 182 78 c 128,-1,38
 190 71 190 71 208 71 c 2,26,-1
600 71 m 1,39,-1
 712 71 l 2,40,41
 730 71 730 71 738 78 c 128,-1,42
 746 85 746 85 746 110 c 2,43,-1
 746 426 l 2,44,45
 746 452 746 452 738 458.5 c 128,-1,46
 730 465 730 465 712 465 c 2,47,-1
 634 465 l 2,48,49
 615 465 615 465 607.5 458.5 c 128,-1,50
 600 452 600 452 600 426 c 2,51,-1
 600 71 l 1,39,-1
EndSplineSet
EndChar

StartChar: uni2C33
Encoding: 58 11315 59
Width: 798
GlyphClass: 2
Flags: W
AnchorPoint: "+BBEENQQ3BEsEPARPBD0EPQQ+BDUA--0" 416 605 basechar 0
LayerCount: 2
Fore
SplineSet
156 0 m 1,0,-1
 234 203 l 1,1,2
 152 226 152 226 110 288.5 c 128,-1,3
 68 351 68 351 68 427 c 2,4,-1
 68 500 l 2,5,6
 68 520 68 520 81 528 c 128,-1,7
 94 536 94 536 109 536 c 2,8,-1
 443 536 l 1,9,-1
 339 265 l 1,10,-1
 418 265 l 1,11,12
 423 290 423 290 436.5 301.5 c 128,-1,13
 450 313 450 313 484 313 c 2,14,-1
 663 313 l 2,15,16
 707 313 707 313 718.5 292.5 c 128,-1,17
 730 272 730 272 730 225 c 2,18,-1
 730 0 l 1,19,-1
 484 0 l 2,20,21
 440 0 440 0 428.5 20 c 128,-1,22
 417 40 417 40 417 88 c 2,23,-1
 417 194 l 1,24,-1
 312 194 l 1,25,-1
 237 0 l 1,26,-1
 156 0 l 1,0,-1
261 272 m 1,27,-1
 335 465 l 1,28,-1
 184 465 l 2,29,30
 165 465 165 465 159.5 457 c 128,-1,31
 154 449 154 449 154 424 c 0,32,33
 154 369 154 369 177 328 c 128,-1,34
 200 287 200 287 261 272 c 1,27,-1
537 71 m 2,35,-1
 644 71 l 1,36,-1
 644 203 l 2,37,38
 644 229 644 229 636 235.5 c 128,-1,39
 628 242 628 242 610 242 c 2,40,-1
 537 242 l 2,41,42
 518 242 518 242 510 235.5 c 128,-1,43
 502 229 502 229 502 203 c 2,44,-1
 502 110 l 2,45,46
 502 85 502 85 510 78 c 128,-1,47
 518 71 518 71 537 71 c 2,35,-1
EndSplineSet
EndChar

StartChar: uni2C34
Encoding: 59 11316 60
Width: 896
GlyphClass: 2
Flags: W
AnchorPoint: "+BBEENQQ3BEsEPARPBD0EPQQ+BDUA--0" 351 605 basechar 0
LayerCount: 2
Fore
SplineSet
186 0 m 2,0,1
 127 0 127 0 107.5 22 c 128,-1,2
 88 44 88 44 88 98 c 2,3,-1
 88 438 l 2,4,5
 88 494 88 494 107.5 515 c 128,-1,6
 127 536 127 536 186 536 c 2,7,-1
 532 536 l 2,8,9
 576 536 576 536 588 516 c 128,-1,10
 600 496 600 496 600 448 c 2,11,-1
 600 332 l 1,12,-1
 760 332 l 2,13,14
 804 332 804 332 815.5 312 c 128,-1,15
 827 292 827 292 827 244 c 2,16,-1
 827 88 l 2,17,18
 827 40 827 40 815.5 20 c 128,-1,19
 804 0 804 0 760 0 c 2,20,-1
 581 0 l 2,21,22
 537 0 537 0 525.5 20 c 128,-1,23
 514 40 514 40 514 88 c 2,24,-1
 514 426 l 2,25,26
 514 452 514 452 506 458.5 c 128,-1,27
 498 465 498 465 479 465 c 2,28,-1
 406 465 l 1,29,-1
 406 98 l 2,30,31
 406 43 406 43 387 21.5 c 128,-1,32
 368 0 368 0 309 0 c 2,33,-1
 186 0 l 2,0,1
223 71 m 2,34,-1
 271 71 l 2,35,36
 301 71 301 71 310.5 81 c 128,-1,37
 320 91 320 91 320 120 c 2,38,-1
 320 465 l 1,39,-1
 223 465 l 2,40,41
 194 465 194 465 184 455.5 c 128,-1,42
 174 446 174 446 174 417 c 2,43,-1
 174 120 l 2,44,45
 174 91 174 91 184 81 c 128,-1,46
 194 71 194 71 223 71 c 2,34,-1
634 71 m 2,47,-1
 707 71 l 2,48,49
 725 71 725 71 733 78 c 128,-1,50
 741 85 741 85 741 110 c 2,51,-1
 741 222 l 2,52,53
 741 248 741 248 733 254.5 c 128,-1,54
 725 261 725 261 707 261 c 2,55,-1
 600 261 l 1,56,-1
 600 110 l 2,57,58
 600 85 600 85 607.5 78 c 128,-1,59
 615 71 615 71 634 71 c 2,47,-1
EndSplineSet
EndChar

StartChar: uni2C35
Encoding: 60 11317 61
Width: 508
GlyphClass: 2
Flags: W
AnchorPoint: "+BBEENQQ3BEsEPARPBD0EPQQ+BDUA--0" 211 605 basechar 0
LayerCount: 2
Fore
SplineSet
181 -10 m 0,0,1
 135 -10 135 -10 101.5 -2.5 c 128,-1,2
 68 5 68 5 39 19 c 1,3,-1
 39 95 l 1,4,5
 69 83 69 83 104 74 c 128,-1,6
 139 65 139 65 183 65 c 0,7,8
 261 65 261 65 307 107.5 c 128,-1,9
 353 150 353 150 358 241 c 1,10,-1
 94 241 l 1,11,-1
 94 313 l 1,12,-1
 357 313 l 1,13,14
 350 394 350 394 310.5 432 c 128,-1,15
 271 470 271 470 195 470 c 0,16,17
 166 470 166 470 131.5 462 c 128,-1,18
 97 454 97 454 70 444 c 1,19,-1
 45 515 l 1,20,21
 74 528 74 528 114 537 c 128,-1,22
 154 546 154 546 194 546 c 0,23,24
 269 546 269 546 326.5 518 c 128,-1,25
 384 490 384 490 416.5 429 c 128,-1,26
 449 368 449 368 449 268 c 0,27,28
 449 173 449 173 414.5 111 c 128,-1,29
 380 49 380 49 319.5 19.5 c 128,-1,30
 259 -10 259 -10 181 -10 c 0,0,1
EndSplineSet
EndChar

StartChar: uni2C36
Encoding: 61 11318 62
Width: 920
GlyphClass: 2
Flags: W
AnchorPoint: "+BBEENQQ3BEsEPARPBD0EPQQ+BDUA--0" 453 703 basechar 0
LayerCount: 2
Fore
SplineSet
155 0 m 2,0,1
 112 0 112 0 100 20 c 128,-1,2
 88 40 88 40 88 88 c 2,3,-1
 88 448 l 2,4,5
 88 496 88 496 100 516 c 128,-1,6
 112 536 112 536 155 536 c 2,7,-1
 398 536 l 1,8,9
 385 568 385 568 350 588.5 c 128,-1,10
 315 609 315 609 250 609 c 2,11,-1
 230 609 l 1,12,-1
 230 680 l 1,13,-1
 245 680 l 2,14,15
 335 680 335 680 386 648.5 c 128,-1,16
 437 617 437 617 460 576 c 1,17,18
 483 617 483 617 534 648.5 c 128,-1,19
 585 680 585 680 675 680 c 2,20,-1
 690 680 l 1,21,-1
 690 609 l 1,22,-1
 670 609 l 2,23,24
 605 609 605 609 570 588.5 c 128,-1,25
 535 568 535 568 521 536 c 1,26,-1
 765 536 l 2,27,28
 809 536 809 536 820.5 516 c 128,-1,29
 832 496 832 496 832 448 c 2,30,-1
 832 88 l 2,31,32
 832 40 832 40 820.5 20 c 128,-1,33
 809 0 809 0 765 0 c 2,34,-1
 581 0 l 2,35,36
 537 0 537 0 525.5 20 c 128,-1,37
 514 40 514 40 514 88 c 2,38,-1
 514 465 l 1,39,-1
 406 465 l 1,40,-1
 406 88 l 2,41,42
 406 40 406 40 394.5 20 c 128,-1,43
 383 0 383 0 339 0 c 2,44,-1
 155 0 l 2,0,1
208 71 m 2,45,-1
 286 71 l 2,46,47
 305 71 305 71 312.5 78 c 128,-1,48
 320 85 320 85 320 110 c 2,49,-1
 320 465 l 1,50,-1
 208 465 l 2,51,52
 190 465 190 465 182 458.5 c 128,-1,53
 174 452 174 452 174 426 c 2,54,-1
 174 110 l 2,55,56
 174 85 174 85 182 78 c 128,-1,57
 190 71 190 71 208 71 c 2,45,-1
634 71 m 2,58,-1
 712 71 l 2,59,60
 730 71 730 71 738 78 c 128,-1,61
 746 85 746 85 746 110 c 2,62,-1
 746 426 l 2,63,64
 746 452 746 452 738 458.5 c 128,-1,65
 730 465 730 465 712 465 c 2,66,-1
 600 465 l 1,67,-1
 600 110 l 2,68,69
 600 85 600 85 607.5 78 c 128,-1,70
 615 71 615 71 634 71 c 2,58,-1
EndSplineSet
EndChar

StartChar: uni2C37
Encoding: 62 11319 63
Width: 688
GlyphClass: 2
Flags: W
AnchorPoint: "+BBEENQQ3BEsEPARPBD0EPQQ+BDUA--0" 432 605 basechar 0
LayerCount: 2
Fore
SplineSet
136 0 m 2,0,1
 92 0 92 0 80 20 c 128,-1,2
 68 40 68 40 68 88 c 2,3,-1
 68 225 l 2,4,5
 68 272 68 272 80 292.5 c 128,-1,6
 92 313 92 313 136 313 c 2,7,-1
 296 313 l 1,8,-1
 296 468 l 2,9,10
 296 501 296 501 308.5 518.5 c 128,-1,11
 321 536 321 536 355 536 c 2,12,-1
 558 536 l 2,13,14
 578 536 578 536 593.5 524.5 c 128,-1,15
 609 513 609 513 609 490 c 2,16,-1
 609 456 l 2,17,18
 609 412 609 412 594 375.5 c 128,-1,19
 579 339 579 339 551 312 c 1,20,21
 589 311 589 311 599 290.5 c 128,-1,22
 609 270 609 270 609 225 c 2,23,-1
 609 88 l 2,24,25
 609 40 609 40 597.5 20 c 128,-1,26
 586 0 586 0 542 0 c 2,27,-1
 136 0 l 2,0,1
382 313 m 1,28,-1
 389 313 l 2,29,30
 442 313 442 313 471.5 331.5 c 128,-1,31
 501 350 501 350 513.5 376 c 128,-1,32
 526 402 526 402 526 424 c 0,33,34
 526 444 526 444 522.5 454.5 c 128,-1,35
 519 465 519 465 501 465 c 2,36,-1
 406 465 l 2,37,38
 389 465 389 465 385.5 456 c 128,-1,39
 382 447 382 447 382 429 c 2,40,-1
 382 313 l 1,28,-1
188 71 m 2,41,-1
 296 71 l 1,42,-1
 296 242 l 1,43,-1
 188 242 l 2,44,45
 170 242 170 242 162 235.5 c 128,-1,46
 154 229 154 229 154 203 c 2,47,-1
 154 110 l 2,48,49
 154 85 154 85 162 78 c 128,-1,50
 170 71 170 71 188 71 c 2,41,-1
382 71 m 1,51,-1
 489 71 l 2,52,53
 508 71 508 71 515.5 78 c 128,-1,54
 523 85 523 85 523 110 c 2,55,-1
 523 203 l 2,56,57
 523 229 523 229 515.5 235.5 c 128,-1,58
 508 242 508 242 489 242 c 2,59,-1
 382 242 l 1,60,-1
 382 71 l 1,51,-1
EndSplineSet
EndChar

StartChar: uni2C38
Encoding: 63 11320 64
Width: 834
GlyphClass: 2
Flags: W
AnchorPoint: "+BBEENQQ3BEsEPARPBD0EPQQ+BDUA--0" 421 605 basechar 0
LayerCount: 2
Fore
SplineSet
88 0 m 1,0,-1
 88 536 l 1,1,-1
 181 536 l 2,2,3
 267 536 267 536 322 480 c 128,-1,4
 377 424 377 424 385 312 c 1,5,-1
 698 312 l 2,6,7
 742 312 742 312 754 292 c 128,-1,8
 766 272 766 272 766 225 c 2,9,-1
 766 88 l 2,10,11
 766 40 766 40 754 20 c 128,-1,12
 742 0 742 0 698 0 c 2,13,-1
 520 0 l 2,14,15
 476 0 476 0 464 20 c 128,-1,16
 452 40 452 40 452 88 c 2,17,-1
 452 242 l 1,18,-1
 386 242 l 1,19,20
 379 131 379 131 324.5 65.5 c 128,-1,21
 270 0 270 0 181 0 c 2,22,-1
 88 0 l 1,0,-1
174 312 m 1,23,-1
 296 312 l 1,24,25
 291 382 291 382 266 424 c 128,-1,26
 241 466 241 466 196 466 c 2,27,-1
 174 466 l 1,28,-1
 174 312 l 1,23,-1
174 71 m 1,29,-1
 195 71 l 2,30,31
 242 71 242 71 267.5 117 c 128,-1,32
 293 163 293 163 296 242 c 1,33,-1
 174 242 l 1,34,-1
 174 71 l 1,29,-1
572 71 m 2,35,-1
 646 71 l 2,36,37
 664 71 664 71 672 78 c 128,-1,38
 680 85 680 85 680 110 c 2,39,-1
 680 203 l 2,40,41
 680 229 680 229 672 235.5 c 128,-1,42
 664 242 664 242 646 242 c 2,43,-1
 538 242 l 1,44,-1
 538 110 l 2,45,46
 538 85 538 85 546 78 c 128,-1,47
 554 71 554 71 572 71 c 2,35,-1
EndSplineSet
EndChar

StartChar: uni2C39
Encoding: 64 11321 65
Width: 914
GlyphClass: 2
Flags: W
AnchorPoint: "+BBEENQQ3BEsEPARPBD0EPQQ+BDUA--0" 449 605 basechar 0
LayerCount: 2
Fore
SplineSet
334 0 m 1,0,-1
 334 71 l 1,1,-1
 414 71 l 1,2,-1
 414 233 l 1,3,4
 367 244 367 244 339 277 c 1,5,6
 320 255 320 255 292.5 242 c 128,-1,7
 265 229 265 229 227 229 c 0,8,9
 144 229 144 229 106 278.5 c 128,-1,10
 68 328 68 328 68 411 c 2,11,-1
 68 536 l 1,12,-1
 846 536 l 1,13,-1
 846 411 l 2,14,15
 846 328 846 328 808 278.5 c 128,-1,16
 770 229 770 229 687 229 c 0,17,18
 648 229 648 229 620 243.5 c 128,-1,19
 592 258 592 258 572 280 c 1,20,21
 559 264 559 264 541 252 c 128,-1,22
 523 240 523 240 500 234 c 1,23,-1
 500 71 l 1,24,-1
 580 71 l 1,25,-1
 580 0 l 1,26,-1
 334 0 l 1,0,-1
227 301 m 0,27,28
 275 301 275 301 287 328.5 c 128,-1,29
 299 356 299 356 299 411 c 2,30,-1
 299 465 l 1,31,-1
 154 465 l 1,32,-1
 154 412 l 2,33,34
 154 362 154 362 167 331.5 c 128,-1,35
 180 301 180 301 227 301 c 0,27,28
458 301 m 0,36,37
 505 301 505 301 517 329 c 128,-1,38
 529 357 529 357 529 412 c 2,39,-1
 529 465 l 1,40,-1
 385 465 l 1,41,-1
 385 406 l 2,42,43
 385 358 385 358 398.5 329.5 c 128,-1,44
 412 301 412 301 458 301 c 0,36,37
687 301 m 0,45,46
 734 301 734 301 747 331.5 c 128,-1,47
 760 362 760 362 760 412 c 2,48,-1
 760 465 l 1,49,-1
 615 465 l 1,50,-1
 615 406 l 2,51,52
 615 354 615 354 628 327.5 c 128,-1,53
 641 301 641 301 687 301 c 0,45,46
EndSplineSet
EndChar

StartChar: uni2C3A
Encoding: 65 11322 66
Width: 914
GlyphClass: 2
Flags: W
AnchorPoint: "+BBEENQQ3BEsEPARPBD0EPQQ+BDUA--0" 449 605 basechar 0
LayerCount: 2
Fore
SplineSet
299 0 m 1,0,-1
 299 125 l 2,1,2
 299 164 299 164 310 202 c 128,-1,3
 321 240 321 240 350 266 c 1,4,-1
 339 277 l 1,5,6
 320 255 320 255 292.5 242 c 128,-1,7
 265 229 265 229 227 229 c 0,8,9
 144 229 144 229 106 278.5 c 128,-1,10
 68 328 68 328 68 411 c 2,11,-1
 68 536 l 1,12,-1
 846 536 l 1,13,-1
 846 411 l 2,14,15
 846 328 846 328 808 278.5 c 128,-1,16
 770 229 770 229 687 229 c 0,17,18
 648 229 648 229 620 243.5 c 128,-1,19
 592 258 592 258 572 280 c 1,20,21
 569 276 569 276 565.5 272.5 c 128,-1,22
 562 269 562 269 559 266 c 1,23,24
 588 240 588 240 601.5 202 c 128,-1,25
 615 164 615 164 615 124 c 2,26,-1
 615 0 l 1,27,-1
 299 0 l 1,0,-1
227 301 m 0,28,29
 275 301 275 301 287 328.5 c 128,-1,30
 299 356 299 356 299 411 c 2,31,-1
 299 465 l 1,32,-1
 154 465 l 1,33,-1
 154 412 l 2,34,35
 154 362 154 362 167 331.5 c 128,-1,36
 180 301 180 301 227 301 c 0,28,29
458 301 m 0,37,38
 505 301 505 301 517 328.5 c 128,-1,39
 529 356 529 356 529 411 c 2,40,-1
 529 465 l 1,41,-1
 385 465 l 1,42,-1
 385 406 l 2,43,44
 385 358 385 358 398.5 329.5 c 128,-1,45
 412 301 412 301 458 301 c 0,37,38
687 301 m 0,46,47
 734 301 734 301 747 331.5 c 128,-1,48
 760 362 760 362 760 412 c 2,49,-1
 760 465 l 1,50,-1
 615 465 l 1,51,-1
 615 406 l 2,52,53
 615 354 615 354 628 327.5 c 128,-1,54
 641 301 641 301 687 301 c 0,46,47
385 71 m 1,55,-1
 529 71 l 1,56,-1
 529 125 l 2,57,58
 529 176 529 176 517 202.5 c 128,-1,59
 505 229 505 229 458 229 c 256,60,61
 411 229 411 229 398 200 c 128,-1,62
 385 171 385 171 385 125 c 2,63,-1
 385 71 l 1,55,-1
EndSplineSet
EndChar

StartChar: uni2C3B
Encoding: 66 11323 67
Width: 473
GlyphClass: 2
Flags: W
AnchorPoint: "+BBEENQQ3BEsEPARPBD0EPQQ+BDUA--0" 233 605 basechar 0
LayerCount: 2
Fore
SplineSet
78 0 m 1,0,-1
 78 135 l 2,1,2
 78 174 78 174 89 212 c 128,-1,3
 100 250 100 250 129 275 c 1,4,5
 100 303 100 303 89 342.5 c 128,-1,6
 78 382 78 382 78 421 c 2,7,-1
 78 536 l 1,8,-1
 395 536 l 1,9,-1
 395 422 l 2,10,11
 395 382 395 382 381 342.5 c 128,-1,12
 367 303 367 303 338 275 c 1,13,14
 367 250 367 250 381 212 c 128,-1,15
 395 174 395 174 395 134 c 2,16,-1
 395 0 l 1,17,-1
 78 0 l 1,0,-1
237 311 m 256,18,19
 284 311 284 311 296.5 338.5 c 128,-1,20
 309 366 309 366 309 421 c 2,21,-1
 309 465 l 1,22,-1
 164 465 l 1,23,-1
 164 421 l 2,24,25
 164 372 164 372 177 341.5 c 128,-1,26
 190 311 190 311 237 311 c 256,18,19
164 71 m 1,27,-1
 309 71 l 1,28,-1
 309 135 l 2,29,30
 309 186 309 186 296.5 212.5 c 128,-1,31
 284 239 284 239 237 239 c 256,32,33
 190 239 190 239 177 210 c 128,-1,34
 164 181 164 181 164 134 c 2,35,-1
 164 71 l 1,27,-1
EndSplineSet
EndChar

StartChar: uni2C3C
Encoding: 67 11324 68
Width: 919
GlyphClass: 2
Flags: W
AnchorPoint: "+BBEENQQ3BEsEPARPBD0EPQQ+BDUA--0" 453 605 basechar 0
LayerCount: 2
Fore
SplineSet
88 0 m 1,0,-1
 88 443 l 2,1,2
 88 479 88 479 92.5 499.5 c 128,-1,3
 97 520 97 520 114.5 528 c 128,-1,4
 132 536 132 536 171 536 c 2,5,-1
 323 536 l 2,6,7
 362 536 362 536 379.5 527 c 128,-1,8
 397 518 397 518 401.5 496.5 c 128,-1,9
 406 475 406 475 406 438 c 2,10,-1
 406 292 l 1,11,-1
 514 292 l 1,12,-1
 514 453 l 2,13,14
 514 494 514 494 525.5 515 c 128,-1,15
 537 536 537 536 583 536 c 2,16,-1
 805 536 l 2,17,18
 825 536 825 536 838 524.5 c 128,-1,19
 851 513 851 513 851 490 c 2,20,-1
 851 427 l 2,21,22
 851 336 851 336 789.5 281.5 c 128,-1,23
 728 227 728 227 600 221 c 1,24,-1
 600 0 l 1,25,-1
 514 0 l 1,26,-1
 514 222 l 1,27,-1
 406 222 l 1,28,-1
 406 0 l 1,29,-1
 320 0 l 1,30,-1
 320 417 l 2,31,32
 320 446 320 446 315 455.5 c 128,-1,33
 310 465 310 465 281 465 c 2,34,-1
 213 465 l 2,35,36
 184 465 184 465 179 455.5 c 128,-1,37
 174 446 174 446 174 417 c 2,38,-1
 174 0 l 1,39,-1
 88 0 l 1,0,-1
600 292 m 1,40,41
 670 294 670 294 705 314.5 c 128,-1,42
 740 335 740 335 752.5 364.5 c 128,-1,43
 765 394 765 394 765 424 c 0,44,45
 765 444 765 444 760 454.5 c 128,-1,46
 755 465 755 465 740 465 c 2,47,-1
 632 465 l 2,48,49
 600 465 600 465 600 429 c 2,50,-1
 600 292 l 1,40,41
EndSplineSet
EndChar

StartChar: uni2C3D
Encoding: 68 11325 69
Width: 397
GlyphClass: 2
Flags: W
AnchorPoint: "+BBEENQQ3BEsEPARPBD0EPQQ+BDUA--0" 147 605 basechar 0
LayerCount: 2
Fore
SplineSet
224 0 m 1,0,-1
 224 203 l 2,1,2
 224 229 224 229 216 235.5 c 128,-1,3
 208 242 208 242 189 242 c 2,4,-1
 29 242 l 1,5,-1
 108 536 l 1,6,-1
 189 536 l 1,7,-1
 129 313 l 1,8,-1
 242 313 l 2,9,10
 286 313 286 313 298 292.5 c 128,-1,11
 310 272 310 272 310 225 c 2,12,-1
 310 0 l 1,13,-1
 224 0 l 1,0,-1
EndSplineSet
EndChar

StartChar: uni2C3E
Encoding: 69 11326 70
Width: 871
GlyphClass: 2
Flags: W
AnchorPoint: "+BBEENQQ3BEsEPARPBD0EPQQ+BDUA--0" 432 605 basechar 0
LayerCount: 2
Fore
SplineSet
136 0 m 2,0,1
 92 0 92 0 80 20 c 128,-1,2
 68 40 68 40 68 88 c 2,3,-1
 68 225 l 2,4,5
 68 272 68 272 80 292.5 c 128,-1,6
 92 313 92 313 136 313 c 2,7,-1
 296 313 l 1,8,-1
 296 453 l 2,9,10
 296 489 296 489 300 507 c 128,-1,11
 304 525 304 525 319.5 530.5 c 128,-1,12
 335 536 335 536 369 536 c 2,13,-1
 502 536 l 2,14,15
 536 536 536 536 551.5 530.5 c 128,-1,16
 567 525 567 525 571 507.5 c 128,-1,17
 575 490 575 490 575 453 c 2,18,-1
 575 313 l 1,19,-1
 735 313 l 2,20,21
 779 313 779 313 791 292.5 c 128,-1,22
 803 272 803 272 803 225 c 2,23,-1
 803 88 l 2,24,25
 803 40 803 40 791 20 c 128,-1,26
 779 0 779 0 735 0 c 2,27,-1
 557 0 l 2,28,29
 513 0 513 0 501 20 c 128,-1,30
 489 40 489 40 489 88 c 2,31,-1
 489 242 l 1,32,-1
 382 242 l 1,33,-1
 382 88 l 2,34,35
 382 40 382 40 370 20 c 128,-1,36
 358 0 358 0 314 0 c 2,37,-1
 136 0 l 2,0,1
382 313 m 1,38,-1
 489 313 l 1,39,-1
 489 417 l 2,40,41
 489 446 489 446 485.5 455.5 c 128,-1,42
 482 465 482 465 460 465 c 2,43,-1
 411 465 l 2,44,45
 389 465 389 465 385.5 455.5 c 128,-1,46
 382 446 382 446 382 417 c 2,47,-1
 382 313 l 1,38,-1
188 71 m 2,48,-1
 262 71 l 2,49,50
 280 71 280 71 288 78 c 128,-1,51
 296 85 296 85 296 110 c 2,52,-1
 296 242 l 1,53,-1
 188 242 l 2,54,55
 170 242 170 242 162 235.5 c 128,-1,56
 154 229 154 229 154 203 c 2,57,-1
 154 110 l 2,58,59
 154 85 154 85 162 78 c 128,-1,60
 170 71 170 71 188 71 c 2,48,-1
609 71 m 2,61,-1
 683 71 l 2,62,63
 701 71 701 71 709 78 c 128,-1,64
 717 85 717 85 717 110 c 2,65,-1
 717 203 l 2,66,67
 717 229 717 229 709 235.5 c 128,-1,68
 701 242 701 242 683 242 c 2,69,-1
 575 242 l 1,70,-1
 575 110 l 2,71,72
 575 85 575 85 583 78 c 128,-1,73
 591 71 591 71 609 71 c 2,61,-1
EndSplineSet
EndChar

StartChar: uni2C3F
Encoding: 70 11327 71
Width: 723
GlyphClass: 2
Flags: W
AnchorPoint: "+BBEENQQ3BEsEPARPBD0EPQQ+BDUA--0" 361 605 basechar 0
LayerCount: 2
Fore
SplineSet
88 0 m 1,0,-1
 88 370 l 2,1,2
 88 413 88 413 101.5 453 c 128,-1,3
 115 493 115 493 149.5 519.5 c 128,-1,4
 184 546 184 546 247 546 c 0,5,6
 285 546 285 546 313.5 532.5 c 128,-1,7
 342 519 342 519 361 498 c 1,8,9
 381 519 381 519 409 532.5 c 128,-1,10
 437 546 437 546 476 546 c 0,11,12
 539 546 539 546 573.5 519.5 c 128,-1,13
 608 493 608 493 621.5 453 c 128,-1,14
 635 413 635 413 635 370 c 2,15,-1
 635 0 l 1,16,-1
 549 0 l 1,17,-1
 549 370 l 2,18,19
 549 416 549 416 536 445 c 128,-1,20
 523 474 523 474 476 474 c 256,21,22
 429 474 429 474 416.5 447.5 c 128,-1,23
 404 421 404 421 404 370 c 2,24,-1
 404 0 l 1,25,-1
 318 0 l 1,26,-1
 318 369 l 2,27,28
 318 422 318 422 305.5 448 c 128,-1,29
 293 474 293 474 247 474 c 0,30,31
 200 474 200 474 187 445 c 128,-1,32
 174 416 174 416 174 370 c 2,33,-1
 174 0 l 1,34,-1
 88 0 l 1,0,-1
EndSplineSet
EndChar

StartChar: uni2C40
Encoding: 71 11328 72
Width: 493
GlyphClass: 2
Flags: W
AnchorPoint: "+BBEENQQ3BEsEPARPBD0EPQQ+BDUA--0" 249 605 basechar 0
LayerCount: 2
Fore
SplineSet
88 0 m 1,0,-1
 88 453 l 2,1,2
 88 494 88 494 104.5 515 c 128,-1,3
 121 536 121 536 167 536 c 2,4,-1
 379 536 l 2,5,6
 399 536 399 536 412 524.5 c 128,-1,7
 425 513 425 513 425 490 c 2,8,-1
 425 427 l 2,9,10
 425 336 425 336 363.5 281.5 c 128,-1,11
 302 227 302 227 174 221 c 1,12,-1
 174 0 l 1,13,-1
 88 0 l 1,0,-1
174 292 m 1,14,15
 244 294 244 294 279 314.5 c 128,-1,16
 314 335 314 335 326.5 364.5 c 128,-1,17
 339 394 339 394 339 424 c 0,18,19
 339 444 339 444 334 454.5 c 128,-1,20
 329 465 329 465 314 465 c 2,21,-1
 206 465 l 2,22,23
 174 465 174 465 174 429 c 2,24,-1
 174 292 l 1,14,15
EndSplineSet
EndChar

StartChar: uni2C41
Encoding: 72 11329 73
Width: 506
GlyphClass: 2
Flags: W
AnchorPoint: "+BBEENQQ3BEsEPARPBD0EPQQ+BDUA--0" 249 605 basechar 0
LayerCount: 2
Fore
SplineSet
175 0 m 2,0,1
 131 0 131 0 110 16.5 c 128,-1,2
 89 33 89 33 83.5 57 c 128,-1,3
 78 81 78 81 78 104 c 0,4,5
 78 158 78 158 110 202.5 c 128,-1,6
 142 247 142 247 196 275 c 1,7,8
 142 298 142 298 110 338 c 128,-1,9
 78 378 78 378 78 432 c 0,10,11
 78 455 78 455 84.5 479 c 128,-1,12
 91 503 91 503 110 519.5 c 128,-1,13
 129 536 129 536 166 536 c 2,14,-1
 339 536 l 2,15,16
 377 536 377 536 393.5 530 c 128,-1,17
 410 524 410 524 414 508.5 c 128,-1,18
 418 493 418 493 418 464 c 2,19,-1
 418 72 l 2,20,21
 418 41 418 41 411.5 25.5 c 128,-1,22
 405 10 405 10 386 5 c 128,-1,23
 367 0 367 0 330 0 c 2,24,-1
 175 0 l 2,0,1
332 313 m 1,25,-1
 332 433 l 2,26,27
 332 448 332 448 327.5 456.5 c 128,-1,28
 323 465 323 465 304 465 c 2,29,-1
 205 465 l 2,30,31
 174 465 174 465 168.5 452.5 c 128,-1,32
 163 440 163 440 163 420 c 0,33,34
 163 372 163 372 205 344.5 c 128,-1,35
 247 317 247 317 332 313 c 1,25,-1
193 71 m 2,36,-1
 308 71 l 2,37,38
 323 71 323 71 327.5 79.5 c 128,-1,39
 332 88 332 88 332 103 c 2,40,-1
 332 243 l 1,41,42
 250 237 250 237 206.5 200.5 c 128,-1,43
 163 164 163 164 163 116 c 0,44,45
 163 97 163 97 168 84 c 128,-1,46
 173 71 173 71 193 71 c 2,36,-1
EndSplineSet
EndChar

StartChar: uni2C42
Encoding: 73 11330 74
Width: 663
GlyphClass: 2
Flags: W
AnchorPoint: "+BBEENQQ3BEsEPARPBD0EPQQ+BDUA--0" 330 605 basechar 0
LayerCount: 2
Fore
SplineSet
88 0 m 1,0,-1
 88 443 l 2,1,2
 88 479 88 479 92.5 499.5 c 128,-1,3
 97 520 97 520 114.5 528 c 128,-1,4
 132 536 132 536 171 536 c 2,5,-1
 527 536 l 2,6,7
 571 536 571 536 583 516 c 128,-1,8
 595 496 595 496 595 448 c 2,9,-1
 595 243 l 2,10,11
 595 196 595 196 583 175.5 c 128,-1,12
 571 155 571 155 527 155 c 2,13,-1
 349 155 l 2,14,15
 305 155 305 155 293 175.5 c 128,-1,16
 281 196 281 196 281 243 c 2,17,-1
 281 465 l 1,18,-1
 213 465 l 2,19,20
 184 465 184 465 179 455.5 c 128,-1,21
 174 446 174 446 174 417 c 2,22,-1
 174 0 l 1,23,-1
 88 0 l 1,0,-1
401 226 m 2,24,-1
 475 226 l 2,25,26
 493 226 493 226 501 233 c 128,-1,27
 509 240 509 240 509 265 c 2,28,-1
 509 426 l 2,29,30
 509 452 509 452 501 458.5 c 128,-1,31
 493 465 493 465 475 465 c 2,32,-1
 367 465 l 1,33,-1
 367 265 l 2,34,35
 367 240 367 240 375 233 c 128,-1,36
 383 226 383 226 401 226 c 2,24,-1
EndSplineSet
EndChar

StartChar: uni2C43
Encoding: 74 11331 75
Width: 486
GlyphClass: 2
Flags: W
AnchorPoint: "+BBEENQQ3BEsEPARPBD0EPQQ+BDUA--0" 249 605 basechar 0
LayerCount: 2
Fore
SplineSet
176 0 m 2,0,1
 139 0 139 0 120 5 c 128,-1,2
 101 10 101 10 94.5 25.5 c 128,-1,3
 88 41 88 41 88 72 c 2,4,-1
 88 536 l 1,5,-1
 174 536 l 1,6,-1
 174 313 l 1,7,8
 253 313 253 313 307.5 285 c 128,-1,9
 362 257 362 257 390 210 c 128,-1,10
 418 163 418 163 418 104 c 0,11,12
 418 81 418 81 412.5 57 c 128,-1,13
 407 33 407 33 386.5 16.5 c 128,-1,14
 366 0 366 0 321 0 c 2,15,-1
 176 0 l 2,0,1
198 71 m 2,16,-1
 303 71 l 2,17,18
 323 71 323 71 328 84 c 128,-1,19
 333 97 333 97 333 116 c 0,20,21
 333 166 333 166 297 203.5 c 128,-1,22
 261 241 261 241 174 244 c 1,23,-1
 174 103 l 2,24,25
 174 88 174 88 178.5 79.5 c 128,-1,26
 183 71 183 71 198 71 c 2,16,-1
EndSplineSet
EndChar

StartChar: uni2C44
Encoding: 75 11332 76
Width: 642
GlyphClass: 2
Flags: W
AnchorPoint: "+BBEENQQ3BEsEPARPBD0EPQQ+BDUA--0" 317 605 basechar 0
LayerCount: 2
Fore
SplineSet
163 0 m 1,0,-1
 163 157 l 1,1,2
 110 189 110 189 84.5 239 c 128,-1,3
 59 289 59 289 59 338 c 0,4,5
 59 374 59 374 73 410.5 c 128,-1,6
 87 447 87 447 117.5 477.5 c 128,-1,7
 148 508 148 508 198.5 527 c 128,-1,8
 249 546 249 546 321 546 c 256,9,10
 393 546 393 546 443.5 527 c 128,-1,11
 494 508 494 508 524.5 477.5 c 128,-1,12
 555 447 555 447 569 410.5 c 128,-1,13
 583 374 583 374 583 338 c 0,14,15
 583 289 583 289 557.5 239 c 128,-1,16
 532 189 532 189 479 157 c 1,17,-1
 479 0 l 1,18,-1
 163 0 l 1,0,-1
458 239 m 1,19,20
 497 278 497 278 497 339 c 0,21,22
 497 386 497 386 473 416 c 128,-1,23
 449 446 449 446 409.5 460 c 128,-1,24
 370 474 370 474 321 474 c 0,25,26
 246 474 246 474 195.5 442 c 128,-1,27
 145 410 145 410 145 339 c 0,28,29
 145 279 145 279 181 241 c 1,30,31
 197 276 197 276 230 299 c 128,-1,32
 263 322 263 322 321 322 c 0,33,34
 374 322 374 322 407.5 298.5 c 128,-1,35
 441 275 441 275 458 239 c 1,19,20
249 71 m 1,36,-1
 393 71 l 1,37,-1
 393 135 l 2,38,39
 393 169 393 169 388.5 195 c 128,-1,40
 384 221 384 221 368.5 235.5 c 128,-1,41
 353 250 353 250 321 250 c 0,42,43
 290 250 290 250 274.5 234 c 128,-1,44
 259 218 259 218 254 191.5 c 128,-1,45
 249 165 249 165 249 134 c 2,46,-1
 249 71 l 1,36,-1
EndSplineSet
EndChar

StartChar: uni2C45
Encoding: 76 11333 77
Width: 920
GlyphClass: 2
Flags: W
AnchorPoint: "+BBEENQQ3BEsEPARPBD0EPQQ+BDUA--0" 449 605 basechar 0
LayerCount: 2
Fore
SplineSet
155 0 m 2,0,1
 112 0 112 0 100 20 c 128,-1,2
 88 40 88 40 88 88 c 2,3,-1
 88 448 l 2,4,5
 88 496 88 496 100 516 c 128,-1,6
 112 536 112 536 155 536 c 2,7,-1
 765 536 l 2,8,9
 809 536 809 536 820.5 516 c 128,-1,10
 832 496 832 496 832 448 c 2,11,-1
 832 88 l 2,12,13
 832 40 832 40 820.5 20 c 128,-1,14
 809 0 809 0 765 0 c 2,15,-1
 581 0 l 2,16,17
 537 0 537 0 525.5 20 c 128,-1,18
 514 40 514 40 514 88 c 2,19,-1
 514 465 l 1,20,-1
 406 465 l 1,21,-1
 406 88 l 2,22,23
 406 40 406 40 394.5 20 c 128,-1,24
 383 0 383 0 339 0 c 2,25,-1
 155 0 l 2,0,1
208 71 m 2,26,-1
 286 71 l 2,27,28
 305 71 305 71 312.5 78 c 128,-1,29
 320 85 320 85 320 110 c 2,30,-1
 320 465 l 1,31,-1
 208 465 l 2,32,33
 190 465 190 465 182 458.5 c 128,-1,34
 174 452 174 452 174 426 c 2,35,-1
 174 110 l 2,36,37
 174 85 174 85 182 78 c 128,-1,38
 190 71 190 71 208 71 c 2,26,-1
634 71 m 2,39,-1
 712 71 l 2,40,41
 730 71 730 71 738 78 c 128,-1,42
 746 85 746 85 746 110 c 2,43,-1
 746 426 l 2,44,45
 746 452 746 452 738 458.5 c 128,-1,46
 730 465 730 465 712 465 c 2,47,-1
 600 465 l 1,48,-1
 600 110 l 2,49,50
 600 85 600 85 607.5 78 c 128,-1,51
 615 71 615 71 634 71 c 2,39,-1
EndSplineSet
EndChar

StartChar: uni2C46
Encoding: 77 11334 78
Width: 738
GlyphClass: 2
Flags: W
AnchorPoint: "+BBEENQQ3BEsEPARPBD0EPQQ+BDUA--0" 373 605 basechar 0
LayerCount: 2
Fore
SplineSet
175 0 m 2,0,1
 131 0 131 0 110 16.5 c 128,-1,2
 89 33 89 33 83.5 57 c 128,-1,3
 78 81 78 81 78 104 c 0,4,5
 78 158 78 158 110 202.5 c 128,-1,6
 142 247 142 247 196 275 c 1,7,8
 142 298 142 298 110 338 c 128,-1,9
 78 378 78 378 78 432 c 0,10,11
 78 455 78 455 84.5 479 c 128,-1,12
 91 503 91 503 110 519.5 c 128,-1,13
 129 536 129 536 166 536 c 2,14,-1
 583 536 l 2,15,16
 627 536 627 536 638.5 516 c 128,-1,17
 650 496 650 496 650 448 c 2,18,-1
 650 88 l 2,19,20
 650 40 650 40 638.5 20 c 128,-1,21
 627 0 627 0 583 0 c 2,22,-1
 175 0 l 2,0,1
332 313 m 1,23,-1
 332 465 l 1,24,-1
 205 465 l 2,25,26
 174 465 174 465 168.5 452.5 c 128,-1,27
 163 440 163 440 163 420 c 0,28,29
 163 372 163 372 205 344.5 c 128,-1,30
 247 317 247 317 332 313 c 1,23,-1
418 312 m 1,31,-1
 564 312 l 1,32,-1
 564 426 l 2,33,34
 564 452 564 452 556.5 458.5 c 128,-1,35
 549 465 549 465 530 465 c 2,36,-1
 418 465 l 1,37,-1
 418 312 l 1,31,-1
193 71 m 2,38,-1
 332 71 l 1,39,-1
 332 243 l 1,40,41
 250 237 250 237 206.5 200.5 c 128,-1,42
 163 164 163 164 163 116 c 0,43,44
 163 97 163 97 168 84 c 128,-1,45
 173 71 173 71 193 71 c 2,38,-1
418 71 m 1,46,-1
 530 71 l 2,47,48
 549 71 549 71 556.5 78 c 128,-1,49
 564 85 564 85 564 110 c 2,50,-1
 564 242 l 1,51,-1
 418 242 l 1,52,-1
 418 71 l 1,46,-1
EndSplineSet
EndChar

StartChar: uni2C47
Encoding: 78 11335 79
Width: 743
GlyphClass: 2
Flags: W
AnchorPoint: "+BBEENQQ3BEsEPARPBD0EPQQ+BDUA--0" 371 732 basechar 0
LayerCount: 2
Fore
SplineSet
328 -167 m 1,0,-1
 328 -8 l 1,1,2
 249 -1 249 -1 189 33.5 c 128,-1,3
 129 68 129 68 96 127.5 c 128,-1,4
 63 187 63 187 63 268 c 0,5,6
 63 390 63 390 133.5 462 c 128,-1,7
 204 534 204 534 331 544 c 1,8,-1
 331 691 l 1,9,-1
 414 691 l 1,10,-1
 414 544 l 1,11,12
 494 537 494 537 553.5 502 c 128,-1,13
 613 467 613 467 646 408 c 128,-1,14
 679 349 679 349 679 268 c 0,15,16
 679 147 679 147 608.5 75 c 128,-1,17
 538 3 538 3 414 -8 c 1,18,-1
 414 -167 l 1,19,-1
 328 -167 l 1,0,-1
331 64 m 1,20,-1
 331 471 l 1,21,22
 239 462 239 462 197 410.5 c 128,-1,23
 155 359 155 359 155 268 c 256,24,25
 155 177 155 177 197.5 125 c 128,-1,26
 240 73 240 73 331 64 c 1,20,-1
414 64 m 1,27,28
 504 74 504 74 546 126 c 128,-1,29
 588 178 588 178 588 268 c 256,30,31
 588 358 588 358 545.5 409 c 128,-1,32
 503 460 503 460 414 470 c 1,33,-1
 414 64 l 1,27,28
EndSplineSet
EndChar

StartChar: uni2C48
Encoding: 79 11336 80
Width: 699
GlyphClass: 2
Flags: W
AnchorPoint: "+BBEENQQ3BEsEPARPBD0EPQQ+BDUA--0" 324 605 basechar 0
LayerCount: 2
Fore
SplineSet
57 0 m 1,0,-1
 236 465 l 1,1,-1
 39 465 l 1,2,-1
 39 536 l 1,3,-1
 344 536 l 1,4,-1
 240 265 l 1,5,-1
 319 265 l 1,6,7
 324 290 324 290 337.5 301.5 c 128,-1,8
 351 313 351 313 385 313 c 2,9,-1
 563 313 l 2,10,11
 607 313 607 313 619 292.5 c 128,-1,12
 631 272 631 272 631 225 c 2,13,-1
 631 0 l 1,14,-1
 385 0 l 2,15,16
 341 0 341 0 329 20 c 128,-1,17
 317 40 317 40 317 88 c 2,18,-1
 317 194 l 1,19,-1
 212 194 l 1,20,-1
 138 0 l 1,21,-1
 57 0 l 1,0,-1
438 71 m 2,22,-1
 545 71 l 1,23,-1
 545 203 l 2,24,25
 545 229 545 229 537 235.5 c 128,-1,26
 529 242 529 242 511 242 c 2,27,-1
 438 242 l 2,28,29
 419 242 419 242 411 235.5 c 128,-1,30
 403 229 403 229 403 203 c 2,31,-1
 403 110 l 2,32,33
 403 85 403 85 411 78 c 128,-1,34
 419 71 419 71 438 71 c 2,22,-1
EndSplineSet
EndChar

StartChar: uni2C49
Encoding: 80 11337 81
Width: 623
GlyphClass: 2
Flags: W
AnchorPoint: "+BBEENQQ3BEsEPARPBD0EPQQ+BDUA--0" 313 605 basechar 0
LayerCount: 2
Fore
SplineSet
267 -103 m 1,0,-1
 267 -8 l 1,1,2
 177 6 177 6 120 76.5 c 128,-1,3
 63 147 63 147 63 268 c 0,4,5
 63 400 63 400 130 472 c 128,-1,6
 197 544 197 544 313 544 c 0,7,8
 386 544 386 544 441 511.5 c 128,-1,9
 496 479 496 479 527.5 417.5 c 128,-1,10
 559 356 559 356 559 268 c 0,11,12
 559 147 559 147 504 76.5 c 128,-1,13
 449 6 449 6 354 -8 c 1,14,-1
 354 -103 l 1,15,-1
 267 -103 l 1,0,-1
310 396 m 256,16,17
 327 396 327 396 340 409 c 128,-1,18
 353 422 353 422 353 438 c 0,19,20
 353 456 353 456 340 468.5 c 128,-1,21
 327 481 327 481 310 481 c 256,22,23
 293 481 293 481 280.5 468.5 c 128,-1,24
 268 456 268 456 268 438 c 0,25,26
 268 422 268 422 280.5 409 c 128,-1,27
 293 396 293 396 310 396 c 256,16,17
403 76 m 1,28,29
 437 103 437 103 453.5 154.5 c 128,-1,30
 470 206 470 206 470 268 c 256,31,32
 470 330 470 330 454 380 c 128,-1,33
 438 430 438 430 403 457 c 1,34,35
 404 453 404 453 404.5 448 c 128,-1,36
 405 443 405 443 405 438 c 0,37,38
 405 399 405 399 377.5 371.5 c 128,-1,39
 350 344 350 344 310 344 c 0,40,41
 271 344 271 344 243 371.5 c 128,-1,42
 215 399 215 399 215 438 c 0,43,44
 215 443 215 443 215.5 447.5 c 128,-1,45
 216 452 216 452 217 456 c 1,46,47
 184 429 184 429 168 379.5 c 128,-1,48
 152 330 152 330 152 268 c 0,49,50
 152 207 152 207 168 156.5 c 128,-1,51
 184 106 184 106 216 78 c 1,52,53
 216 82 216 82 215.5 85.5 c 128,-1,54
 215 89 215 89 215 93 c 0,55,56
 215 133 215 133 243 160.5 c 128,-1,57
 271 188 271 188 310 188 c 0,58,59
 350 188 350 188 377.5 160.5 c 128,-1,60
 405 133 405 133 405 93 c 0,61,62
 405 89 405 89 404.5 84.5 c 128,-1,63
 404 80 404 80 403 76 c 1,28,29
310 51 m 256,64,65
 327 51 327 51 340 63.5 c 128,-1,66
 353 76 353 76 353 93 c 256,67,68
 353 110 353 110 340 122.5 c 128,-1,69
 327 135 327 135 310 135 c 256,70,71
 293 135 293 135 280.5 122.5 c 128,-1,72
 268 110 268 110 268 93 c 256,73,74
 268 76 268 76 280.5 63.5 c 128,-1,75
 293 51 293 51 310 51 c 256,64,65
EndSplineSet
EndChar

StartChar: uni2C4A
Encoding: 81 11338 82
Width: 702
GlyphClass: 2
Flags: W
AnchorPoint: "+BBEENQQ3BEsEPARPBD0EPQQ+BDUA--0" 442 605 basechar 0
LayerCount: 2
Fore
SplineSet
136 0 m 2,0,1
 92 0 92 0 80 20 c 128,-1,2
 68 40 68 40 68 88 c 2,3,-1
 68 225 l 2,4,5
 68 272 68 272 80 292.5 c 128,-1,6
 92 313 92 313 136 313 c 2,7,-1
 296 313 l 1,8,-1
 296 443 l 2,9,10
 296 479 296 479 300.5 499.5 c 128,-1,11
 305 520 305 520 322.5 528 c 128,-1,12
 340 536 340 536 379 536 c 2,13,-1
 531 536 l 2,14,15
 570 536 570 536 587.5 527 c 128,-1,16
 605 518 605 518 609.5 496.5 c 128,-1,17
 614 475 614 475 614 438 c 2,18,-1
 614 0 l 1,19,-1
 528 0 l 1,20,-1
 528 417 l 2,21,22
 528 446 528 446 523 455.5 c 128,-1,23
 518 465 518 465 489 465 c 2,24,-1
 421 465 l 2,25,26
 392 465 392 465 387 455.5 c 128,-1,27
 382 446 382 446 382 417 c 2,28,-1
 382 88 l 2,29,30
 382 40 382 40 370 20 c 128,-1,31
 358 0 358 0 314 0 c 2,32,-1
 136 0 l 2,0,1
188 71 m 2,33,-1
 262 71 l 2,34,35
 280 71 280 71 288 78 c 128,-1,36
 296 85 296 85 296 110 c 2,37,-1
 296 242 l 1,38,-1
 188 242 l 2,39,40
 170 242 170 242 162 235.5 c 128,-1,41
 154 229 154 229 154 203 c 2,42,-1
 154 110 l 2,43,44
 154 85 154 85 162 78 c 128,-1,45
 170 71 170 71 188 71 c 2,33,-1
EndSplineSet
EndChar

StartChar: uni2C4B
Encoding: 82 11339 83
Width: 707
GlyphClass: 2
Flags: W
AnchorPoint: "+BBEENQQ3BEsEPARPBD0EPQQ+BDUA--0" 351 605 basechar 0
LayerCount: 2
Fore
SplineSet
195 0 m 1,0,-1
 195 137 l 2,1,2
 195 164 195 164 200 191 c 128,-1,3
 205 218 205 218 218 242 c 1,4,-1
 136 242 l 2,5,6
 104 242 104 242 89.5 251.5 c 128,-1,7
 75 261 75 261 71.5 281 c 128,-1,8
 68 301 68 301 68 330 c 2,9,-1
 68 536 l 1,10,-1
 154 536 l 1,11,-1
 154 352 l 2,12,13
 154 330 154 330 160 321.5 c 128,-1,14
 166 313 166 313 188 313 c 2,15,-1
 311 313 l 1,16,-1
 311 536 l 1,17,-1
 396 536 l 1,18,-1
 396 313 l 1,19,-1
 519 313 l 2,20,21
 541 313 541 313 547 321.5 c 128,-1,22
 553 330 553 330 553 352 c 2,23,-1
 553 536 l 1,24,-1
 639 536 l 1,25,-1
 639 330 l 2,26,27
 639 301 639 301 635.5 281 c 128,-1,28
 632 261 632 261 617.5 251.5 c 128,-1,29
 603 242 603 242 571 242 c 2,30,-1
 485 242 l 1,31,32
 499 218 499 218 505.5 190.5 c 128,-1,33
 512 163 512 163 512 136 c 2,34,-1
 512 0 l 1,35,-1
 195 0 l 1,0,-1
281 71 m 1,36,-1
 426 71 l 1,37,-1
 426 137 l 2,38,39
 426 188 426 188 413.5 214.5 c 128,-1,40
 401 241 401 241 354 241 c 256,41,42
 307 241 307 241 294 212 c 128,-1,43
 281 183 281 183 281 136 c 2,44,-1
 281 71 l 1,36,-1
EndSplineSet
EndChar

StartChar: uni2C4C
Encoding: 83 11340 84
Width: 669
GlyphClass: 2
Flags: W
AnchorPoint: "+BBEENQQ3BEsEPARPBD0EPQQ+BDUA--0" 385 605 basechar 0
LayerCount: 2
Fore
SplineSet
418 0 m 2,0,1
 388 0 388 0 375 6 c 128,-1,2
 362 12 362 12 357 28 c 128,-1,3
 352 44 352 44 347 72 c 2,4,-1
 317 245 l 1,5,6
 242 248 242 248 183.5 271 c 128,-1,7
 125 294 125 294 92 335 c 128,-1,8
 59 376 59 376 59 432 c 0,9,10
 59 455 59 455 64.5 479 c 128,-1,11
 70 503 70 503 91 519.5 c 128,-1,12
 112 536 112 536 156 536 c 2,13,-1
 274 536 l 2,14,15
 312 536 312 536 330.5 531 c 128,-1,16
 349 526 349 526 356.5 510.5 c 128,-1,17
 364 495 364 495 368 464 c 2,18,-1
 422 103 l 2,19,20
 425 84 425 84 430 77.5 c 128,-1,21
 435 71 435 71 446 71 c 0,22,23
 458 71 458 71 463 77.5 c 128,-1,24
 468 84 468 84 471 103 c 2,25,-1
 538 536 l 1,26,-1
 620 536 l 1,27,-1
 546 72 l 2,28,29
 542 44 542 44 536.5 28 c 128,-1,30
 531 12 531 12 517.5 6 c 128,-1,31
 504 0 504 0 474 0 c 2,32,-1
 418 0 l 2,0,1
307 313 m 1,33,-1
 288 433 l 2,34,35
 286 448 286 448 280 456.5 c 128,-1,36
 274 465 274 465 259 465 c 2,37,-1
 174 465 l 2,38,39
 153 465 153 465 148.5 452 c 128,-1,40
 144 439 144 439 144 420 c 0,41,42
 144 373 144 373 185.5 345.5 c 128,-1,43
 227 318 227 318 307 313 c 1,33,-1
EndSplineSet
EndChar

StartChar: uni2C4D
Encoding: 84 11341 85
Width: 698
GlyphClass: 2
Flags: W
AnchorPoint: "+BBEENQQ3BEsEPARPBD0EPQQ+BDUA--0" 351 605 basechar 0
LayerCount: 2
Fore
SplineSet
190 0 m 1,0,-1
 190 137 l 2,1,2
 190 164 190 164 195 191 c 128,-1,3
 200 218 200 218 213 242 c 1,4,-1
 39 242 l 1,5,-1
 152 536 l 1,6,-1
 225 536 l 1,7,-1
 196 458 l 1,8,-1
 501 458 l 1,9,-1
 474 536 l 1,10,-1
 546 536 l 1,11,-1
 659 242 l 1,12,-1
 480 242 l 1,13,14
 494 218 494 218 500.5 190.5 c 128,-1,15
 507 163 507 163 507 136 c 2,16,-1
 507 0 l 1,17,-1
 190 0 l 1,0,-1
145 313 m 1,18,-1
 311 313 l 1,19,-1
 311 392 l 1,20,-1
 173 392 l 1,21,-1
 145 313 l 1,18,-1
387 313 m 1,22,-1
 553 313 l 1,23,-1
 525 392 l 1,24,-1
 387 392 l 1,25,-1
 387 313 l 1,22,-1
276 71 m 1,26,-1
 421 71 l 1,27,-1
 421 137 l 2,28,29
 421 188 421 188 409 214.5 c 128,-1,30
 397 241 397 241 349 241 c 0,31,32
 302 241 302 241 289 212 c 128,-1,33
 276 183 276 183 276 136 c 2,34,-1
 276 71 l 1,26,-1
EndSplineSet
EndChar

StartChar: uni2C4E
Encoding: 85 11342 86
Width: 746
GlyphClass: 2
Flags: W
AnchorPoint: "+BBEENQQ3BEsEPARPBD0EPQQ+BDUA--0" 371 605 basechar 0
LayerCount: 2
Fore
SplineSet
155 0 m 2,0,1
 124 0 124 0 109.5 9.5 c 128,-1,2
 95 19 95 19 91.5 38.5 c 128,-1,3
 88 58 88 58 88 88 c 2,4,-1
 88 536 l 1,5,-1
 174 536 l 1,6,-1
 174 110 l 2,7,8
 174 88 174 88 180 79.5 c 128,-1,9
 186 71 186 71 208 71 c 2,10,-1
 330 71 l 1,11,-1
 330 536 l 1,12,-1
 416 536 l 1,13,-1
 416 71 l 1,14,-1
 538 71 l 2,15,16
 560 71 560 71 566 79.5 c 128,-1,17
 572 88 572 88 572 110 c 2,18,-1
 572 536 l 1,19,-1
 658 536 l 1,20,-1
 658 88 l 2,21,22
 658 58 658 58 654.5 38.5 c 128,-1,23
 651 19 651 19 637 9.5 c 128,-1,24
 623 0 623 0 591 0 c 2,25,-1
 155 0 l 2,0,1
EndSplineSet
EndChar

StartChar: uni2C4F
Encoding: 86 11343 87
Width: 639
GlyphClass: 2
Flags: W
AnchorPoint: "+BBEENQQ3BEsEPARPBD0EPQQ+BDUA--0" 400 605 basechar 0
LayerCount: 2
Fore
SplineSet
245 0 m 1,0,-1
 245 130 l 2,1,2
 245 162 245 162 250.5 193.5 c 128,-1,3
 256 225 256 225 273 250 c 1,4,-1
 213 250 l 1,5,6
 215 244 215 244 216 237.5 c 128,-1,7
 217 231 217 231 217 224 c 0,8,9
 217 187 217 187 191 161 c 128,-1,10
 165 135 165 135 127 135 c 0,11,12
 91 135 91 135 65 161 c 128,-1,13
 39 187 39 187 39 224 c 256,14,15
 39 261 39 261 65 287 c 128,-1,16
 91 313 91 313 127 313 c 2,17,-1
 262 313 l 1,18,19
 252 336 252 336 248.5 361.5 c 128,-1,20
 245 387 245 387 245 413 c 2,21,-1
 245 536 l 1,22,-1
 561 536 l 1,23,-1
 561 414 l 2,24,25
 561 374 561 374 549.5 335.5 c 128,-1,26
 538 297 538 297 509 271 c 1,27,28
 538 246 538 246 549.5 207.5 c 128,-1,29
 561 169 561 169 561 129 c 2,30,-1
 561 0 l 1,31,-1
 245 0 l 1,0,-1
403 308 m 0,32,33
 451 308 451 308 463 335.5 c 128,-1,34
 475 363 475 363 475 418 c 2,35,-1
 475 465 l 1,36,-1
 331 465 l 1,37,-1
 331 418 l 2,38,39
 331 369 331 369 343.5 338.5 c 128,-1,40
 356 308 356 308 403 308 c 0,32,33
127 185 m 0,41,42
 144 185 144 185 155.5 196.5 c 128,-1,43
 167 208 167 208 167 224 c 256,44,45
 167 240 167 240 156 251 c 128,-1,46
 145 262 145 262 126 262 c 0,47,48
 110 262 110 262 99.5 251 c 128,-1,49
 89 240 89 240 89 224 c 256,50,51
 89 208 89 208 100 196.5 c 128,-1,52
 111 185 111 185 127 185 c 0,41,42
331 71 m 1,53,-1
 475 71 l 1,54,-1
 475 125 l 2,55,56
 475 180 475 180 463 208 c 128,-1,57
 451 236 451 236 403 236 c 0,58,59
 356 236 356 236 343.5 205.5 c 128,-1,60
 331 175 331 175 331 125 c 2,61,-1
 331 71 l 1,53,-1
EndSplineSet
EndChar

StartChar: uni2C50
Encoding: 87 11344 88
Width: 613
GlyphClass: 2
Flags: W
AnchorPoint: "+BBEENQQ3BEsEPARPBD0EPQQ+BDUA--0" 373 605 basechar 0
LayerCount: 2
Fore
SplineSet
218 0 m 1,0,-1
 218 130 l 2,1,2
 218 162 218 162 224 193.5 c 128,-1,3
 230 225 230 225 247 250 c 1,4,-1
 178 250 l 1,5,6
 179 246 179 246 179.5 242 c 128,-1,7
 180 238 180 238 180 233 c 0,8,9
 180 199 180 199 159.5 176 c 128,-1,10
 139 153 139 153 110 153 c 256,11,12
 81 153 81 153 60 176 c 128,-1,13
 39 199 39 199 39 233 c 0,14,15
 39 265 39 265 59 289 c 128,-1,16
 79 313 79 313 106 313 c 2,17,-1
 236 313 l 1,18,19
 226 336 226 336 222 361.5 c 128,-1,20
 218 387 218 387 218 413 c 2,21,-1
 218 536 l 1,22,-1
 535 536 l 1,23,-1
 535 414 l 2,24,25
 535 374 535 374 523.5 335.5 c 128,-1,26
 512 297 512 297 483 271 c 1,27,28
 512 246 512 246 523.5 207.5 c 128,-1,29
 535 169 535 169 535 129 c 2,30,-1
 535 0 l 1,31,-1
 218 0 l 1,0,-1
377 308 m 256,32,33
 424 308 424 308 436.5 335.5 c 128,-1,34
 449 363 449 363 449 418 c 2,35,-1
 449 465 l 1,36,-1
 304 465 l 1,37,-1
 304 418 l 2,38,39
 304 369 304 369 317 338.5 c 128,-1,40
 330 308 330 308 377 308 c 256,32,33
304 71 m 1,41,-1
 449 71 l 1,42,-1
 449 125 l 2,43,44
 449 180 449 180 436.5 208 c 128,-1,45
 424 236 424 236 377 236 c 256,46,47
 330 236 330 236 317 205.5 c 128,-1,48
 304 175 304 175 304 125 c 2,49,-1
 304 71 l 1,41,-1
EndSplineSet
EndChar

StartChar: uni2C51
Encoding: 88 11345 89
Width: 722
GlyphClass: 2
Flags: W
AnchorPoint: "+BBEENQQ3BEsEPARPBD0EPQQ+BDUA--0" 367 605 basechar 0
LayerCount: 2
Fore
SplineSet
39 0 m 1,0,-1
 268 492 l 2,1,2
 277 512 277 512 288 524 c 128,-1,3
 299 536 299 536 318 536 c 2,4,-1
 404 536 l 2,5,6
 424 536 424 536 434 524 c 128,-1,7
 444 512 444 512 454 492 c 2,8,-1
 683 0 l 1,9,-1
 39 0 l 1,0,-1
255 290 m 1,10,-1
 466 290 l 1,11,-1
 392 451 l 2,12,13
 388 460 388 460 382.5 468.5 c 128,-1,14
 377 477 377 477 372 477 c 2,15,-1
 350 477 l 2,16,17
 344 477 344 477 339.5 468.5 c 128,-1,18
 335 460 335 460 330 451 c 2,19,-1
 255 290 l 1,10,-1
153 71 m 1,20,-1
 323 71 l 1,21,-1
 323 224 l 1,22,-1
 225 224 l 1,23,-1
 153 71 l 1,20,-1
399 71 m 1,24,-1
 568 71 l 1,25,-1
 497 224 l 1,26,-1
 399 224 l 1,27,-1
 399 71 l 1,24,-1
EndSplineSet
EndChar

StartChar: uni2C52
Encoding: 89 11346 90
Width: 604
GlyphClass: 2
Flags: W
AnchorPoint: "+BBEENQQ3BEsEPARPBD0EPQQ+BDUA--0" 297 605 basechar 0
LayerCount: 2
Fore
SplineSet
332 -29 m 1,0,-1
 332 23 l 1,1,2
 324 22 324 22 316 22 c 128,-1,3
 308 22 308 22 300 22 c 0,4,5
 232 22 232 22 178.5 51 c 128,-1,6
 125 80 125 80 94 134.5 c 128,-1,7
 63 189 63 189 63 264 c 0,8,9
 63 318 63 318 80 364 c 1,10,-1
 80 554 l 1,11,-1
 148 554 l 1,12,-1
 148 458 l 1,13,14
 170 475 170 475 197 486 c 1,15,-1
 197 554 l 1,16,-1
 266 554 l 1,17,-1
 266 503 l 1,18,19
 275 504 275 504 284 504.5 c 128,-1,20
 293 505 293 505 303 505 c 0,21,22
 373 505 373 505 426.5 476 c 128,-1,23
 480 447 480 447 510.5 393 c 128,-1,24
 541 339 541 339 541 264 c 0,25,26
 541 230 541 230 534.5 201 c 128,-1,27
 528 172 528 172 517 147 c 1,28,-1
 517 -29 l 1,29,-1
 449 -29 l 1,30,-1
 449 64 l 1,31,32
 424 48 424 48 400 39 c 1,33,-1
 400 -29 l 1,34,-1
 332 -29 l 1,0,-1
302 94 m 0,35,36
 380 94 380 94 415.5 141 c 128,-1,37
 451 188 451 188 451 264 c 0,38,39
 451 341 451 341 415.5 387 c 128,-1,40
 380 433 380 433 301 433 c 0,41,42
 249 433 249 433 216 409 c 128,-1,43
 183 385 183 385 168 346.5 c 128,-1,44
 153 308 153 308 153 264 c 256,45,46
 153 220 153 220 168.5 181 c 128,-1,47
 184 142 184 142 217 118 c 128,-1,48
 250 94 250 94 302 94 c 0,35,36
EndSplineSet
EndChar

StartChar: uni2C53
Encoding: 90 11347 91
Width: 746
GlyphClass: 2
Flags: W
AnchorPoint: "+BBEENQQ3BEsEPARPBD0EPQQ+BDUA--0" 371 605 basechar 0
LayerCount: 2
Fore
SplineSet
88 -68 m 1,0,-1
 88 448 l 2,1,2
 88 478 88 478 91.5 497.5 c 128,-1,3
 95 517 95 517 109.5 526.5 c 128,-1,4
 124 536 124 536 155 536 c 2,5,-1
 591 536 l 2,6,7
 623 536 623 536 637 526.5 c 128,-1,8
 651 517 651 517 654.5 497.5 c 128,-1,9
 658 478 658 478 658 448 c 2,10,-1
 658 209 l 2,11,12
 658 166 658 166 653 137 c 128,-1,13
 648 108 648 108 622 100 c 2,14,-1
 88 -68 l 1,0,-1
174 33 m 1,15,-1
 330 82 l 1,16,-1
 330 465 l 1,17,-1
 208 465 l 2,18,19
 186 465 186 465 180 457 c 128,-1,20
 174 449 174 449 174 426 c 2,21,-1
 174 33 l 1,15,-1
416 109 m 1,22,-1
 545 150 l 2,23,24
 562 155 562 155 567 166.5 c 128,-1,25
 572 178 572 178 572 196 c 2,26,-1
 572 426 l 2,27,28
 572 449 572 449 566 457 c 128,-1,29
 560 465 560 465 538 465 c 2,30,-1
 416 465 l 1,31,-1
 416 109 l 1,22,-1
EndSplineSet
EndChar

StartChar: uni2C54
Encoding: 91 11348 92
Width: 564
GlyphClass: 2
Flags: W
AnchorPoint: "+BBEENQQ3BEsEPARPBD0EPQQ+BDUA--0" 351 605 basechar 0
LayerCount: 2
Fore
SplineSet
383 -10 m 0,0,1
 309 -10 309 -10 250.5 17 c 128,-1,2
 192 44 192 44 156.5 100 c 128,-1,3
 121 156 121 156 116 242 c 1,4,-1
 20 242 l 1,5,-1
 20 313 l 1,6,-1
 117 313 l 1,7,8
 125 396 125 396 158.5 447.5 c 128,-1,9
 192 499 192 499 246.5 522.5 c 128,-1,10
 301 546 301 546 370 546 c 0,11,12
 411 546 411 546 451 537 c 128,-1,13
 491 528 491 528 519 515 c 1,14,-1
 494 444 l 1,15,16
 467 454 467 454 432.5 462 c 128,-1,17
 398 470 398 470 369 470 c 0,18,19
 293 470 293 470 253.5 432 c 128,-1,20
 214 394 214 394 207 313 c 1,21,-1
 470 313 l 1,22,-1
 470 242 l 1,23,-1
 206 242 l 1,24,25
 211 151 211 151 257 108 c 128,-1,26
 303 65 303 65 381 65 c 0,27,28
 425 65 425 65 460 74 c 128,-1,29
 495 83 495 83 525 95 c 1,30,-1
 525 19 l 1,31,32
 496 5 496 5 462.5 -2.5 c 128,-1,33
 429 -10 429 -10 383 -10 c 0,0,1
EndSplineSet
EndChar

StartChar: uni2C55
Encoding: 92 11349 93
Width: 664
GlyphClass: 2
Flags: W
AnchorPoint: "+BBEENQQ3BEsEPARPBD0EPQQ+BDUA--0" 454 605 basechar 0
LayerCount: 2
Fore
SplineSet
482 -10 m 0,0,1
 408 -10 408 -10 349.5 17 c 128,-1,2
 291 44 291 44 255.5 100 c 128,-1,3
 220 156 220 156 215 242 c 1,4,-1
 170 242 l 1,5,-1
 170 233 l 2,6,7
 170 199 170 199 149.5 176 c 128,-1,8
 129 153 129 153 100 153 c 0,9,10
 72 153 72 153 50.5 176 c 128,-1,11
 29 199 29 199 29 233 c 256,12,13
 29 267 29 267 50.5 290 c 128,-1,14
 72 313 72 313 100 313 c 2,15,-1
 216 313 l 1,16,17
 224 396 224 396 257.5 447.5 c 128,-1,18
 291 499 291 499 345.5 522.5 c 128,-1,19
 400 546 400 546 469 546 c 0,20,21
 510 546 510 546 550 537 c 128,-1,22
 590 528 590 528 618 515 c 1,23,-1
 593 444 l 1,24,25
 566 454 566 454 531.5 462 c 128,-1,26
 497 470 497 470 468 470 c 0,27,28
 392 470 392 470 352.5 432 c 128,-1,29
 313 394 313 394 306 313 c 1,30,-1
 569 313 l 1,31,-1
 569 242 l 1,32,-1
 305 242 l 1,33,34
 311 151 311 151 356.5 108 c 128,-1,35
 402 65 402 65 480 65 c 0,36,37
 525 65 525 65 559.5 74 c 128,-1,38
 594 83 594 83 625 95 c 1,39,-1
 625 19 l 1,40,41
 595 5 595 5 561.5 -2.5 c 128,-1,42
 528 -10 528 -10 482 -10 c 0,0,1
EndSplineSet
EndChar

StartChar: uni2C56
Encoding: 93 11350 94
Width: 722
GlyphClass: 2
Flags: W
AnchorPoint: "+BBEENQQ3BEsEPARPBD0EPQQ+BDUA--0" 361 605 basechar 0
LayerCount: 2
Fore
SplineSet
203 0 m 1,0,-1
 203 130 l 2,1,2
 203 159 203 159 208 188 c 128,-1,3
 213 217 213 217 226 242 c 1,4,-1
 39 242 l 1,5,-1
 176 536 l 1,6,-1
 536 536 l 1,7,-1
 683 242 l 1,8,-1
 492 242 l 1,9,10
 507 217 507 217 513 187.5 c 128,-1,11
 519 158 519 158 519 129 c 2,12,-1
 519 0 l 1,13,-1
 203 0 l 1,0,-1
153 313 m 1,14,-1
 323 313 l 1,15,-1
 323 465 l 1,16,-1
 224 465 l 1,17,-1
 153 313 l 1,14,-1
399 313 m 1,18,-1
 565 313 l 1,19,-1
 489 465 l 1,20,-1
 399 465 l 1,21,-1
 399 313 l 1,18,-1
289 71 m 1,22,-1
 433 71 l 1,23,-1
 433 125 l 2,24,25
 433 180 433 180 421 208 c 128,-1,26
 409 236 409 236 361 236 c 0,27,28
 314 236 314 236 301.5 205.5 c 128,-1,29
 289 175 289 175 289 125 c 2,30,-1
 289 71 l 1,22,-1
EndSplineSet
EndChar

StartChar: uni2C57
Encoding: 94 11351 95
Width: 784
GlyphClass: 2
Flags: W
AnchorPoint: "+BBEENQQ3BEsEPARPBD0EPQQ+BDUA--0" 390 605 basechar 0
LayerCount: 2
Fore
SplineSet
141 -10 m 0,0,1
 107 -10 107 -10 83 -5.5 c 128,-1,2
 59 -1 59 -1 40 6 c 1,3,-1
 40 83 l 1,4,5
 60 75 60 75 81.5 70 c 128,-1,6
 103 65 103 65 136 65 c 0,7,8
 191 65 191 65 219.5 112.5 c 128,-1,9
 248 160 248 160 252 242 c 1,10,-1
 82 242 l 1,11,-1
 82 313 l 1,12,-1
 252 313 l 1,13,14
 248 381 248 381 222 425.5 c 128,-1,15
 196 470 196 470 133 470 c 0,16,17
 124 470 124 470 100.5 467.5 c 128,-1,18
 77 465 77 465 57 456 c 1,19,-1
 39 531 l 1,20,21
 84 546 84 546 147 546 c 0,22,23
 215 546 215 546 256.5 515 c 128,-1,24
 298 484 298 484 318.5 431.5 c 128,-1,25
 339 379 339 379 344 313 c 1,26,-1
 440 313 l 1,27,28
 445 379 445 379 465.5 431.5 c 128,-1,29
 486 484 486 484 527.5 515 c 128,-1,30
 569 546 569 546 637 546 c 0,31,32
 700 546 700 546 745 531 c 1,33,-1
 727 456 l 1,34,35
 707 465 707 465 683.5 467.5 c 128,-1,36
 660 470 660 470 651 470 c 0,37,38
 588 470 588 470 562.5 425.5 c 128,-1,39
 537 381 537 381 532 313 c 1,40,-1
 703 313 l 1,41,-1
 703 242 l 1,42,-1
 532 242 l 1,43,44
 537 160 537 160 565 112.5 c 128,-1,45
 593 65 593 65 648 65 c 0,46,47
 681 65 681 65 703 70 c 128,-1,48
 725 75 725 75 745 83 c 1,49,-1
 745 6 l 1,50,51
 726 -1 726 -1 701.5 -5.5 c 128,-1,52
 677 -10 677 -10 643 -10 c 0,53,54
 543 -10 543 -10 493.5 59 c 128,-1,55
 444 128 444 128 439 242 c 1,56,-1
 345 242 l 1,57,58
 340 128 340 128 290.5 59 c 128,-1,59
 241 -10 241 -10 141 -10 c 0,0,1
EndSplineSet
EndChar

StartChar: uni2C58
Encoding: 95 11352 96
Width: 853
GlyphClass: 2
Flags: W
AnchorPoint: "+BBEENQQ3BEsEPARPBD0EPQQ+BDUA--0" 442 605 basechar 0
LayerCount: 2
Fore
SplineSet
711 -10 m 0,0,1
 611 -10 611 -10 562 59 c 128,-1,2
 513 128 513 128 508 242 c 1,3,-1
 418 242 l 1,4,-1
 418 72 l 2,5,6
 418 41 418 41 411.5 25.5 c 128,-1,7
 405 10 405 10 386 5 c 128,-1,8
 367 0 367 0 330 0 c 2,9,-1
 175 0 l 2,10,11
 131 0 131 0 110 16.5 c 128,-1,12
 89 33 89 33 83.5 57 c 128,-1,13
 78 81 78 81 78 104 c 0,14,15
 78 158 78 158 110 202.5 c 128,-1,16
 142 247 142 247 196 275 c 1,17,18
 142 298 142 298 110 338 c 128,-1,19
 78 378 78 378 78 432 c 0,20,21
 78 455 78 455 84.5 479 c 128,-1,22
 91 503 91 503 110 519.5 c 128,-1,23
 129 536 129 536 166 536 c 2,24,-1
 339 536 l 2,25,26
 377 536 377 536 393.5 530 c 128,-1,27
 410 524 410 524 414 508.5 c 128,-1,28
 418 493 418 493 418 464 c 2,29,-1
 418 313 l 1,30,-1
 509 313 l 1,31,32
 514 379 514 379 534.5 431.5 c 128,-1,33
 555 484 555 484 596.5 515 c 128,-1,34
 638 546 638 546 705 546 c 0,35,36
 770 546 770 546 813 531 c 1,37,-1
 795 456 l 1,38,39
 776 465 776 465 752 467.5 c 128,-1,40
 728 470 728 470 719 470 c 0,41,42
 657 470 657 470 631 425.5 c 128,-1,43
 605 381 605 381 600 313 c 1,44,-1
 771 313 l 1,45,-1
 771 242 l 1,46,-1
 600 242 l 1,47,48
 605 160 605 160 633.5 112.5 c 128,-1,49
 662 65 662 65 716 65 c 0,50,51
 749 65 749 65 771 70 c 128,-1,52
 793 75 793 75 813 83 c 1,53,-1
 813 6 l 1,54,55
 794 -1 794 -1 770 -5.5 c 128,-1,56
 746 -10 746 -10 711 -10 c 0,0,1
332 313 m 1,57,-1
 332 433 l 2,58,59
 332 448 332 448 327.5 456.5 c 128,-1,60
 323 465 323 465 304 465 c 2,61,-1
 205 465 l 2,62,63
 174 465 174 465 168.5 452.5 c 128,-1,64
 163 440 163 440 163 420 c 0,65,66
 163 372 163 372 205 344.5 c 128,-1,67
 247 317 247 317 332 313 c 1,57,-1
193 71 m 2,68,-1
 308 71 l 2,69,70
 323 71 323 71 327.5 79.5 c 128,-1,71
 332 88 332 88 332 103 c 2,72,-1
 332 243 l 1,73,74
 250 237 250 237 206.5 200.5 c 128,-1,75
 163 164 163 164 163 116 c 0,76,77
 163 97 163 97 168 84 c 128,-1,78
 173 71 173 71 193 71 c 2,68,-1
EndSplineSet
EndChar

StartChar: uni2C59
Encoding: 96 11353 97
Width: 1038
GlyphClass: 2
Flags: W
AnchorPoint: "+BBEENQQ3BEsEPARPBD0EPQQ+BDUA--0" 539 605 basechar 0
LayerCount: 2
Fore
SplineSet
897 -10 m 0,0,1
 797 -10 797 -10 747.5 59 c 128,-1,2
 698 128 698 128 693 242 c 1,3,-1
 492 242 l 1,4,5
 507 217 507 217 513 187.5 c 128,-1,6
 519 158 519 158 519 129 c 2,7,-1
 519 0 l 1,8,-1
 203 0 l 1,9,-1
 203 130 l 2,10,11
 203 159 203 159 208 188 c 128,-1,12
 213 217 213 217 226 242 c 1,13,-1
 39 242 l 1,14,-1
 176 536 l 1,15,-1
 536 536 l 1,16,-1
 647 313 l 1,17,-1
 694 313 l 1,18,19
 699 379 699 379 719.5 431.5 c 128,-1,20
 740 484 740 484 781.5 515 c 128,-1,21
 823 546 823 546 891 546 c 0,22,23
 954 546 954 546 999 531 c 1,24,-1
 981 456 l 1,25,26
 961 465 961 465 937.5 467.5 c 128,-1,27
 914 470 914 470 905 470 c 0,28,29
 842 470 842 470 816.5 425.5 c 128,-1,30
 791 381 791 381 786 313 c 1,31,-1
 957 313 l 1,32,-1
 957 242 l 1,33,-1
 786 242 l 1,34,35
 791 160 791 160 819 112.5 c 128,-1,36
 847 65 847 65 902 65 c 0,37,38
 935 65 935 65 957 70 c 128,-1,39
 979 75 979 75 999 83 c 1,40,-1
 999 6 l 1,41,42
 980 -1 980 -1 955.5 -5.5 c 128,-1,43
 931 -10 931 -10 897 -10 c 0,0,1
153 313 m 1,44,-1
 323 313 l 1,45,-1
 323 465 l 1,46,-1
 224 465 l 1,47,-1
 153 313 l 1,44,-1
399 313 m 1,48,-1
 565 313 l 1,49,-1
 489 465 l 1,50,-1
 399 465 l 1,51,-1
 399 313 l 1,48,-1
289 71 m 1,52,-1
 433 71 l 1,53,-1
 433 125 l 2,54,55
 433 180 433 180 421 208 c 128,-1,56
 409 236 409 236 361 236 c 0,57,58
 314 236 314 236 301.5 205.5 c 128,-1,59
 289 175 289 175 289 125 c 2,60,-1
 289 71 l 1,52,-1
EndSplineSet
EndChar

StartChar: uni2C5A
Encoding: 97 11354 98
Width: 797
GlyphClass: 2
Flags: W
AnchorPoint: "+BBEENQQ3BEsEPARPBD0EPQQ+BDUA--0" 399 605 basechar 0
LayerCount: 2
Fore
SplineSet
396 -10 m 0,0,1
 302 -10 302 -10 240 55.5 c 128,-1,2
 178 121 178 121 171 242 c 1,3,-1
 153 242 l 2,4,5
 131 242 131 242 125 234 c 128,-1,6
 119 226 119 226 119 208 c 2,7,-1
 119 188 l 1,8,-1
 49 188 l 1,9,-1
 49 252 l 2,10,11
 49 289 49 289 61 301 c 128,-1,12
 73 313 73 313 112 313 c 2,13,-1
 172 313 l 1,14,15
 182 425 182 425 241.5 485.5 c 128,-1,16
 301 546 301 546 400 546 c 0,17,18
 492 546 492 546 553.5 485.5 c 128,-1,19
 615 425 615 425 625 313 c 1,20,-1
 685 313 l 2,21,22
 724 313 724 313 736.5 301 c 128,-1,23
 749 289 749 289 749 252 c 2,24,-1
 749 188 l 1,25,-1
 678 188 l 1,26,-1
 678 208 l 2,27,28
 678 226 678 226 672 234 c 128,-1,29
 666 242 666 242 644 242 c 2,30,-1
 626 242 l 1,31,32
 620 121 620 121 559 55.5 c 128,-1,33
 498 -10 498 -10 396 -10 c 0,0,1
263 313 m 1,34,-1
 534 313 l 1,35,36
 528 388 528 388 495.5 430 c 128,-1,37
 463 472 463 472 397 472 c 0,38,39
 332 472 332 472 300.5 430 c 128,-1,40
 269 388 269 388 263 313 c 1,34,-1
399 63 m 0,41,42
 467 63 467 63 499 111 c 128,-1,43
 531 159 531 159 535 242 c 1,44,-1
 262 242 l 1,45,46
 266 159 266 159 298 111 c 128,-1,47
 330 63 330 63 399 63 c 0,41,42
EndSplineSet
EndChar

StartChar: uni2C5B
Encoding: 98 11355 99
Width: 483
GlyphClass: 2
Flags: W
AnchorPoint: "+BBEENQQ3BEsEPARPBD0EPQQ+BDUA--0" 222 605 basechar 0
LayerCount: 2
Fore
SplineSet
78 0 m 1,0,-1
 78 47 l 2,1,2
 78 88 78 88 84 127 c 128,-1,3
 90 166 90 166 117 191 c 1,4,5
 101 207 101 207 93.5 227.5 c 128,-1,6
 86 248 86 248 86 268 c 256,7,8
 86 288 86 288 93.5 308 c 128,-1,9
 101 328 101 328 117 344 c 1,10,11
 89 370 89 370 83.5 409.5 c 128,-1,12
 78 449 78 449 78 489 c 2,13,-1
 78 536 l 1,14,-1
 360 536 l 1,15,-1
 360 490 l 2,16,17
 360 450 360 450 352 410.5 c 128,-1,18
 344 371 344 371 317 345 c 1,19,20
 332 331 332 331 341 313 c 1,21,-1
 454 313 l 1,22,-1
 454 242 l 1,23,-1
 348 242 l 1,24,25
 345 228 345 228 337 215 c 128,-1,26
 329 202 329 202 317 190 c 1,27,28
 344 165 344 165 352 126 c 128,-1,29
 360 87 360 87 360 46 c 2,30,-1
 360 0 l 1,31,-1
 78 0 l 1,0,-1
220 381 m 0,32,33
 261 381 261 381 269.5 405.5 c 128,-1,34
 278 430 278 430 278 470 c 1,35,-1
 160 470 l 1,36,37
 160 433 160 433 170 407 c 128,-1,38
 180 381 180 381 220 381 c 0,32,33
219 223 m 256,39,40
 250 223 250 223 261 238.5 c 128,-1,41
 272 254 272 254 272 268 c 256,42,43
 272 282 272 282 261 297.5 c 128,-1,44
 250 313 250 313 219 313 c 256,45,46
 188 313 188 313 177 297.5 c 128,-1,47
 166 282 166 282 166 268 c 0,48,49
 166 255 166 255 177 239 c 128,-1,50
 188 223 188 223 219 223 c 256,39,40
160 66 m 1,51,-1
 278 66 l 1,52,53
 278 107 278 107 269.5 131 c 128,-1,54
 261 155 261 155 220 155 c 0,55,56
 180 155 180 155 170 129.5 c 128,-1,57
 160 104 160 104 160 66 c 1,51,-1
EndSplineSet
EndChar

StartChar: uni2C5C
Encoding: 99 11356 100
Width: 312
GlyphClass: 2
Flags: W
AnchorPoint: "+BBEENQQ3BEsEPARPBD0EPQQ+BDUA--0" 136 605 basechar 0
LayerCount: 2
Fore
SplineSet
128 0 m 1,0,-1
 128 465 l 1,1,-1
 39 465 l 1,2,-1
 39 536 l 1,3,-1
 214 536 l 1,4,-1
 214 0 l 1,5,-1
 128 0 l 1,0,-1
EndSplineSet
EndChar

StartChar: uni2C5D
Encoding: 100 11357 101
Width: 644
GlyphClass: 2
Flags: W
AnchorPoint: "+BBEENQQ3BEsEPARPBD0EPQQ+BDUA--0" 283 605 basechar 0
LayerCount: 2
Fore
SplineSet
460 0 m 1,0,-1
 460 207 l 1,1,-1
 68 27 l 1,2,-1
 68 509 l 1,3,-1
 460 326 l 1,4,-1
 460 536 l 1,5,-1
 546 536 l 1,6,-1
 546 0 l 1,7,-1
 460 0 l 1,0,-1
146 299 m 1,8,-1
 376 299 l 1,9,-1
 146 395 l 1,10,-1
 146 299 l 1,8,-1
146 141 m 1,11,-1
 376 232 l 1,12,-1
 146 232 l 1,13,-1
 146 141 l 1,11,-1
EndSplineSet
EndChar

StartChar: uni2C5E
Encoding: 101 11358 102
Width: 771
GlyphClass: 2
Flags: W
AnchorPoint: "+BBEENQQ3BEsEPARPBD0EPQQ+BDUA--0" 385 605 basechar 0
LayerCount: 2
Fore
SplineSet
165 -10 m 256,0,1
 119 -10 119 -10 92 9 c 128,-1,2
 65 28 65 28 53 54.5 c 128,-1,3
 41 81 41 81 39 102 c 1,4,-1
 113 114 l 1,5,6
 118 95 118 95 128.5 78.5 c 128,-1,7
 139 62 139 62 159 62 c 0,8,9
 176 62 176 62 183.5 68.5 c 128,-1,10
 191 75 191 75 191 91 c 0,11,12
 191 115 191 115 178 137 c 128,-1,13
 165 159 165 159 147.5 185.5 c 128,-1,14
 130 212 130 212 117 247 c 128,-1,15
 104 282 104 282 104 331 c 0,16,17
 104 390 104 390 128 431 c 128,-1,18
 152 472 152 472 193.5 497 c 128,-1,19
 235 522 235 522 287 534 c 128,-1,20
 339 546 339 546 394 546 c 0,21,22
 473 546 473 546 525.5 526 c 128,-1,23
 578 506 578 506 609 473.5 c 128,-1,24
 640 441 640 441 653.5 403.5 c 128,-1,25
 667 366 667 366 667 331 c 0,26,27
 667 284 667 284 654 249 c 128,-1,28
 641 214 641 214 624 187.5 c 128,-1,29
 607 161 607 161 594 138 c 128,-1,30
 581 115 581 115 581 91 c 0,31,32
 581 75 581 75 588.5 68.5 c 128,-1,33
 596 62 596 62 612 62 c 0,34,35
 632 62 632 62 643 78.5 c 128,-1,36
 654 95 654 95 658 114 c 1,37,-1
 732 102 l 1,38,39
 730 81 730 81 718 54.5 c 128,-1,40
 706 28 706 28 679.5 9 c 128,-1,41
 653 -10 653 -10 607 -10 c 256,42,43
 561 -10 561 -10 536 4.5 c 128,-1,44
 511 19 511 19 501.5 40.5 c 128,-1,45
 492 62 492 62 492 83 c 0,46,47
 492 118 492 118 505 143.5 c 128,-1,48
 518 169 518 169 534.5 194.5 c 128,-1,49
 551 220 551 220 564 252 c 128,-1,50
 577 284 577 284 577 331 c 0,51,52
 577 360 577 360 566 390.5 c 128,-1,53
 555 421 555 421 523.5 444.5 c 128,-1,54
 492 468 492 468 429 474 c 1,55,-1
 429 0 l 1,56,-1
 343 0 l 1,57,-1
 343 473 l 1,58,59
 280 466 280 466 248 442.5 c 128,-1,60
 216 419 216 419 205 389 c 128,-1,61
 194 359 194 359 194 331 c 0,62,63
 194 284 194 284 207 252 c 128,-1,64
 220 220 220 220 236.5 194.5 c 128,-1,65
 253 169 253 169 266 143.5 c 128,-1,66
 279 118 279 118 279 83 c 0,67,68
 279 62 279 62 269.5 40.5 c 128,-1,69
 260 19 260 19 235.5 4.5 c 128,-1,70
 211 -10 211 -10 165 -10 c 256,0,1
EndSplineSet
EndChar

StartChar: uniA66F
Encoding: 102 42607 103
Width: 0
GlyphClass: 4
Flags: W
AnchorPoint: "+BBEENQQ3BEsEPARPBD0EPQQ+BDUA--1" 0 605 mark 0
AnchorPoint: "+BBEENQQ3BEsEPARPBD0EPQQ+BDUA--0" 0 605 mark 0
LayerCount: 2
Fore
SplineSet
-220 605 m 0,0,1
 -260 605 -260 605 -260 652 c 0,2,3
 -260 703 -260 703 -220 703 c 2,4,-1
 219 703 l 2,5,6
 260 703 260 703 260 652 c 0,7,8
 260 605 260 605 220 605 c 0,9,10
 181 605 181 605 180 651 c 1,11,-1
 -181 651 l 1,12,13
 -182 605 -182 605 -220 605 c 0,0,1
EndSplineSet
EndChar

StartChar: u1E000
Encoding: 103 122880 104
Width: 0
GlyphClass: 4
Flags: W
AnchorPoint: "+BBEENQQ3BEsEPARPBD0EPQQ+BDUA--1" 0 908 basemark 0
AnchorPoint: "+BBEENQQ3BEsEPARPBD0EPQQ+BDUA--0" 0 605 mark 0
LayerCount: 2
Fore
SplineSet
-158 605 m 1,0,-1
 -158 719 l 2,1,2
 -158 742 -158 742 -152.5 753.5 c 128,-1,3
 -147 765 -147 765 -119 765 c 2,4,-1
 -28 765 l 1,5,-1
 -28 874 l 1,6,-1
 28 874 l 1,7,-1
 28 765 l 1,8,-1
 119 765 l 2,9,10
 147 765 147 765 152.5 753.5 c 128,-1,11
 158 742 158 742 158 719 c 2,12,-1
 158 605 l 1,13,-1
 102 605 l 1,14,-1
 102 703 l 2,15,16
 102 713 102 713 99 717 c 128,-1,17
 96 721 96 721 85 721 c 2,18,-1
 28 721 l 1,19,-1
 28 605 l 1,20,-1
 -28 605 l 1,21,-1
 -28 721 l 1,22,-1
 -85 721 l 2,23,24
 -96 721 -96 721 -99 717 c 128,-1,25
 -102 713 -102 713 -102 703 c 2,26,-1
 -102 605 l 1,27,-1
 -158 605 l 1,0,-1
EndSplineSet
EndChar

StartChar: u1E001
Encoding: 104 122881 105
Width: 0
GlyphClass: 4
Flags: W
AnchorPoint: "+BBEENQQ3BEsEPARPBD0EPQQ+BDUA--1" 0 908 basemark 0
AnchorPoint: "+BBEENQQ3BEsEPARPBD0EPQQ+BDUA--0" 0 605 mark 0
LayerCount: 2
Fore
SplineSet
-119 605 m 2,0,1
 -144 605 -144 605 -151 615 c 128,-1,2
 -158 625 -158 625 -158 651 c 2,3,-1
 -158 874 l 1,4,-1
 -102 874 l 1,5,-1
 -102 753 l 1,6,-1
 -28 761 l 1,7,-1
 -28 874 l 1,8,-1
 28 874 l 1,9,-1
 28 765 l 1,10,-1
 86 770 l 2,11,12
 97 771 97 771 99.5 775 c 128,-1,13
 102 779 102 779 102 789 c 2,14,-1
 102 874 l 1,15,-1
 158 874 l 1,16,-1
 158 769 l 2,17,18
 158 748 158 748 152 740 c 128,-1,19
 146 732 146 732 115 729 c 2,20,-1
 -102 709 l 1,21,-1
 -102 667 l 2,22,23
 -102 654 -102 654 -97 651.5 c 128,-1,24
 -92 649 -92 649 -85 649 c 2,25,-1
 149 649 l 1,26,-1
 149 605 l 1,27,-1
 -119 605 l 2,0,1
EndSplineSet
EndChar

StartChar: u1E002
Encoding: 105 122882 106
Width: 0
GlyphClass: 4
Flags: W
AnchorPoint: "+BBEENQQ3BEsEPARPBD0EPQQ+BDUA--1" 0 908 basemark 0
AnchorPoint: "+BBEENQQ3BEsEPARPBD0EPQQ+BDUA--0" 0 605 mark 0
LayerCount: 2
Fore
SplineSet
-164 605 m 2,0,1
 -189 605 -189 605 -196 615.5 c 128,-1,2
 -203 626 -203 626 -203 651 c 2,3,-1
 -203 828 l 2,4,5
 -203 853 -203 853 -196 863.5 c 128,-1,6
 -189 874 -189 874 -164 874 c 2,7,-1
 -63 874 l 2,8,9
 -38 874 -38 874 -31.5 864 c 128,-1,10
 -25 854 -25 854 -25 829 c 2,11,-1
 -25 649 l 1,12,-1
 25 649 l 1,13,-1
 25 829 l 2,14,15
 25 854 25 854 31.5 864 c 128,-1,16
 38 874 38 874 63 874 c 2,17,-1
 164 874 l 2,18,19
 190 874 190 874 196.5 863.5 c 128,-1,20
 203 853 203 853 203 828 c 2,21,-1
 203 651 l 2,22,23
 203 626 203 626 196.5 615.5 c 128,-1,24
 190 605 190 605 164 605 c 2,25,-1
 -164 605 l 2,0,1
-130 649 m 2,26,-1
 -81 649 l 1,27,-1
 -81 813 l 2,28,29
 -81 824 -81 824 -84.5 827 c 128,-1,30
 -88 830 -88 830 -98 830 c 2,31,-1
 -130 830 l 2,32,33
 -139 830 -139 830 -143 827 c 128,-1,34
 -147 824 -147 824 -147 813 c 2,35,-1
 -147 667 l 2,36,37
 -147 655 -147 655 -143 652 c 128,-1,38
 -139 649 -139 649 -130 649 c 2,26,-1
81 649 m 1,39,-1
 130 649 l 2,40,41
 139 649 139 649 143 652 c 128,-1,42
 147 655 147 655 147 667 c 2,43,-1
 147 813 l 2,44,45
 147 824 147 824 143 827 c 128,-1,46
 139 830 139 830 130 830 c 2,47,-1
 98 830 l 2,48,49
 88 830 88 830 84.5 827 c 128,-1,50
 81 824 81 824 81 813 c 2,51,-1
 81 649 l 1,39,-1
EndSplineSet
EndChar

StartChar: u1E003
Encoding: 106 122883 107
Width: 0
GlyphClass: 4
Flags: W
AnchorPoint: "+BBEENQQ3BEsEPARPBD0EPQQ+BDUA--1" 0 908 basemark 0
AnchorPoint: "+BBEENQQ3BEsEPARPBD0EPQQ+BDUA--0" 0 605 mark 0
LayerCount: 2
Fore
SplineSet
-140 605 m 1,0,-1
 -98 702 l 1,1,2
 -141 714 -141 714 -162 747.5 c 128,-1,3
 -183 781 -183 781 -183 817 c 2,4,-1
 -183 854 l 2,5,6
 -183 865 -183 865 -175 869.5 c 128,-1,7
 -167 874 -167 874 -159 874 c 2,8,-1
 28 874 l 1,9,-1
 -30 741 l 1,10,-1
 9 741 l 1,11,12
 11 752 11 752 19.5 758.5 c 128,-1,13
 28 765 28 765 46 765 c 2,14,-1
 144 765 l 2,15,16
 170 765 170 765 176.5 754.5 c 128,-1,17
 183 744 183 744 183 719 c 2,18,-1
 183 605 l 1,19,-1
 46 605 l 2,20,21
 21 605 21 605 14.5 615.5 c 128,-1,22
 8 626 8 626 8 651 c 2,23,-1
 8 697 l 1,24,-1
 -46 697 l 1,25,-1
 -87 605 l 1,26,-1
 -140 605 l 1,0,-1
-82 747 m 1,27,-1
 -45 830 l 1,28,-1
 -113 830 l 2,29,30
 -122 830 -122 830 -124.5 826.5 c 128,-1,31
 -127 823 -127 823 -127 812 c 0,32,33
 -127 793 -127 793 -119 774 c 128,-1,34
 -111 755 -111 755 -82 747 c 1,27,-1
80 649 m 2,35,-1
 127 649 l 1,36,-1
 127 703 l 2,37,38
 127 714 127 714 123.5 717 c 128,-1,39
 120 720 120 720 111 720 c 2,40,-1
 80 720 l 2,41,42
 71 720 71 720 67 717 c 128,-1,43
 63 714 63 714 63 703 c 2,44,-1
 63 667 l 2,45,46
 63 655 63 655 67 652 c 128,-1,47
 71 649 71 649 80 649 c 2,35,-1
EndSplineSet
EndChar

StartChar: u1E004
Encoding: 107 122884 108
Width: 0
GlyphClass: 4
Flags: W
AnchorPoint: "+BBEENQQ3BEsEPARPBD0EPQQ+BDUA--1" 0 908 basemark 0
AnchorPoint: "+BBEENQQ3BEsEPARPBD0EPQQ+BDUA--0" 0 605 mark 0
LayerCount: 2
Fore
SplineSet
-147 605 m 2,0,1
 -180 605 -180 605 -191.5 616.5 c 128,-1,2
 -203 628 -203 628 -203 656 c 2,3,-1
 -203 823 l 2,4,5
 -203 852 -203 852 -191.5 863 c 128,-1,6
 -180 874 -180 874 -147 874 c 2,7,-1
 40 874 l 2,8,9
 65 874 65 874 74 863.5 c 128,-1,10
 83 853 83 853 83 828 c 2,11,-1
 83 774 l 1,12,-1
 164 774 l 2,13,14
 190 774 190 774 196.5 764 c 128,-1,15
 203 754 203 754 203 729 c 2,16,-1
 203 651 l 2,17,18
 203 626 203 626 196.5 615.5 c 128,-1,19
 190 605 190 605 164 605 c 2,20,-1
 66 605 l 2,21,22
 41 605 41 605 34.5 615.5 c 128,-1,23
 28 626 28 626 28 651 c 2,24,-1
 28 813 l 2,25,26
 28 824 28 824 24 827 c 128,-1,27
 20 830 20 830 11 830 c 2,28,-1
 -25 830 l 1,29,-1
 -25 656 l 2,30,31
 -25 628 -25 628 -36 616.5 c 128,-1,32
 -47 605 -47 605 -80 605 c 2,33,-1
 -147 605 l 2,0,1
-123 649 m 2,34,-1
 -105 649 l 2,35,36
 -90 649 -90 649 -85.5 654 c 128,-1,37
 -81 659 -81 659 -81 672 c 2,38,-1
 -81 830 l 1,39,-1
 -123 830 l 2,40,41
 -137 830 -137 830 -142 826 c 128,-1,42
 -147 822 -147 822 -147 808 c 2,43,-1
 -147 672 l 2,44,45
 -147 659 -147 659 -142 654 c 128,-1,46
 -137 649 -137 649 -123 649 c 2,34,-1
101 649 m 2,47,-1
 130 649 l 2,48,49
 140 649 140 649 143.5 652 c 128,-1,50
 147 655 147 655 147 667 c 2,51,-1
 147 713 l 2,52,53
 147 724 147 724 143.5 727 c 128,-1,54
 140 730 140 730 130 730 c 2,55,-1
 83 730 l 1,56,-1
 83 667 l 2,57,58
 83 655 83 655 87 652 c 128,-1,59
 91 649 91 649 101 649 c 2,47,-1
EndSplineSet
EndChar

StartChar: u1E005
Encoding: 108 122885 109
Width: 0
GlyphClass: 4
Flags: W
AnchorPoint: "+BBEENQQ3BEsEPARPBD0EPQQ+BDUA--1" 0 908 basemark 0
AnchorPoint: "+BBEENQQ3BEsEPARPBD0EPQQ+BDUA--0" -15 605 mark 0
LayerCount: 2
Fore
SplineSet
-35 601 m 0,0,1
 -60 601 -60 601 -78.5 604.5 c 128,-1,2
 -97 608 -97 608 -114 615 c 1,3,-1
 -114 662 l 1,4,5
 -96 656 -96 656 -77 651 c 128,-1,6
 -58 646 -58 646 -34 646 c 0,7,8
 7 646 7 646 28.5 666 c 128,-1,9
 50 686 50 686 55 723 c 1,10,-1
 -83 723 l 1,11,-1
 -83 765 l 1,12,-1
 54 765 l 1,13,14
 50 802 50 802 28.5 817 c 128,-1,15
 7 832 7 832 -27 832 c 0,16,17
 -43 832 -43 832 -61.5 828 c 128,-1,18
 -80 824 -80 824 -95 819 c 1,19,-1
 -110 863 l 1,20,21
 -94 870 -94 870 -72 874.5 c 128,-1,22
 -50 879 -50 879 -28 879 c 0,23,24
 34 879 34 879 74 846.5 c 128,-1,25
 114 814 114 814 114 738 c 0,26,27
 114 666 114 666 72 633.5 c 128,-1,28
 30 601 30 601 -35 601 c 0,0,1
EndSplineSet
EndChar

StartChar: u1E006
Encoding: 109 122886 110
Width: 0
GlyphClass: 4
Flags: W
AnchorPoint: "+BBEENQQ3BEsEPARPBD0EPQQ+BDUA--1" 0 976 basemark 0
AnchorPoint: "+BBEENQQ3BEsEPARPBD0EPQQ+BDUA--0" 0 605 mark 0
LayerCount: 2
Fore
SplineSet
-164 605 m 2,0,1
 -189 605 -189 605 -196 615.5 c 128,-1,2
 -203 626 -203 626 -203 651 c 2,3,-1
 -203 829 l 2,4,5
 -203 853 -203 853 -196 863.5 c 128,-1,6
 -189 874 -189 874 -164 874 c 2,7,-1
 -39 874 l 1,8,9
 -47 887 -47 887 -65.5 894.5 c 128,-1,10
 -84 902 -84 902 -115 902 c 2,11,-1
 -126 902 l 1,12,-1
 -126 945 l 1,13,-1
 -118 945 l 2,14,15
 -69 945 -69 945 -41 930 c 128,-1,16
 -13 915 -13 915 0 895 c 1,17,18
 14 915 14 915 41.5 930 c 128,-1,19
 69 945 69 945 118 945 c 2,20,-1
 126 945 l 1,21,-1
 126 902 l 1,22,-1
 115 902 l 2,23,24
 84 902 84 902 65.5 894.5 c 128,-1,25
 47 887 47 887 39 874 c 1,26,-1
 164 874 l 2,27,28
 190 874 190 874 196.5 863.5 c 128,-1,29
 203 853 203 853 203 829 c 2,30,-1
 203 651 l 2,31,32
 203 626 203 626 196.5 615.5 c 128,-1,33
 190 605 190 605 164 605 c 2,34,-1
 63 605 l 2,35,36
 38 605 38 605 31.5 615.5 c 128,-1,37
 25 626 25 626 25 651 c 2,38,-1
 25 830 l 1,39,-1
 -25 830 l 1,40,-1
 -25 651 l 2,41,42
 -25 626 -25 626 -31.5 615.5 c 128,-1,43
 -38 605 -38 605 -63 605 c 2,44,-1
 -164 605 l 2,0,1
-130 649 m 2,45,-1
 -98 649 l 2,46,47
 -88 649 -88 649 -84.5 652.5 c 128,-1,48
 -81 656 -81 656 -81 667 c 2,49,-1
 -81 830 l 1,50,-1
 -130 830 l 2,51,52
 -139 830 -139 830 -143 827 c 128,-1,53
 -147 824 -147 824 -147 813 c 2,54,-1
 -147 667 l 2,55,56
 -147 656 -147 656 -143 652.5 c 128,-1,57
 -139 649 -139 649 -130 649 c 2,45,-1
98 649 m 2,58,-1
 130 649 l 2,59,60
 139 649 139 649 143 652.5 c 128,-1,61
 147 656 147 656 147 667 c 2,62,-1
 147 813 l 2,63,64
 147 824 147 824 143 827 c 128,-1,65
 139 830 139 830 130 830 c 2,66,-1
 81 830 l 1,67,-1
 81 667 l 2,68,69
 81 656 81 656 84.5 652.5 c 128,-1,70
 88 649 88 649 98 649 c 2,58,-1
EndSplineSet
EndChar

StartChar: u1E008
Encoding: 110 122888 111
Width: 0
GlyphClass: 4
Flags: W
AnchorPoint: "+BBEENQQ3BEsEPARPBD0EPQQ+BDUA--1" 0 908 basemark 0
AnchorPoint: "+BBEENQQ3BEsEPARPBD0EPQQ+BDUA--0" 0 605 mark 0
LayerCount: 2
Fore
SplineSet
-189 605 m 1,0,-1
 -189 874 l 1,1,-1
 -132 874 l 2,2,3
 -85 874 -85 874 -54 849.5 c 128,-1,4
 -23 825 -23 825 -18 769 c 1,5,-1
 151 769 l 2,6,7
 177 769 177 769 183.5 759 c 128,-1,8
 190 749 190 749 190 724 c 2,9,-1
 190 651 l 2,10,11
 190 626 190 626 183.5 615.5 c 128,-1,12
 177 605 177 605 151 605 c 2,13,-1
 53 605 l 2,14,15
 28 605 28 605 21.5 615.5 c 128,-1,16
 15 626 15 626 15 651 c 2,17,-1
 15 725 l 1,18,-1
 -18 725 l 1,19,20
 -22 670 -22 670 -52.5 637.5 c 128,-1,21
 -83 605 -83 605 -132 605 c 2,22,-1
 -189 605 l 1,0,-1
-134 769 m 1,23,-1
 -76 769 l 1,24,25
 -79 802 -79 802 -93 816 c 128,-1,26
 -107 830 -107 830 -124 830 c 2,27,-1
 -134 830 l 1,28,-1
 -134 769 l 1,23,-1
-134 649 m 1,29,-1
 -125 649 l 2,30,31
 -99 649 -99 649 -88 668 c 128,-1,32
 -77 687 -77 687 -75 725 c 1,33,-1
 -134 725 l 1,34,-1
 -134 649 l 1,29,-1
87 649 m 2,35,-1
 117 649 l 2,36,37
 126 649 126 649 130 652 c 128,-1,38
 134 655 134 655 134 667 c 2,39,-1
 134 708 l 2,40,41
 134 719 134 719 130 722 c 128,-1,42
 126 725 126 725 117 725 c 2,43,-1
 70 725 l 1,44,-1
 70 667 l 2,45,46
 70 655 70 655 74 652 c 128,-1,47
 78 649 78 649 87 649 c 2,35,-1
EndSplineSet
EndChar

StartChar: u1E009
Encoding: 111 122889 112
Width: 0
GlyphClass: 4
Flags: W
AnchorPoint: "+BBEENQQ3BEsEPARPBD0EPQQ+BDUA--1" 0 908 basemark 0
AnchorPoint: "+BBEENQQ3BEsEPARPBD0EPQQ+BDUA--0" 0 605 mark 0
LayerCount: 2
Fore
SplineSet
-67 605 m 1,0,-1
 -67 649 l 1,1,-1
 -28 649 l 1,2,-1
 -28 720 l 1,3,4
 -51 724 -51 724 -64 740 c 1,5,6
 -75 730 -75 730 -90 723.5 c 128,-1,7
 -105 717 -105 717 -125 717 c 0,8,9
 -172 717 -172 717 -194.5 741 c 128,-1,10
 -217 765 -217 765 -217 808 c 2,11,-1
 -217 874 l 1,12,-1
 217 874 l 1,13,-1
 217 808 l 2,14,15
 217 765 217 765 195 741 c 128,-1,16
 173 717 173 717 126 717 c 0,17,18
 85 717 85 717 63 741 c 1,19,20
 56 734 56 734 47.5 728.5 c 128,-1,21
 39 723 39 723 28 720 c 1,22,-1
 28 649 l 1,23,-1
 67 649 l 1,24,-1
 67 605 l 1,25,-1
 -67 605 l 1,0,-1
-125 762 m 0,26,27
 -101 762 -101 762 -95.5 774 c 128,-1,28
 -90 786 -90 786 -90 813 c 2,29,-1
 -90 830 l 1,30,-1
 -161 830 l 1,31,-1
 -161 813 l 2,32,33
 -161 788 -161 788 -155.5 775 c 128,-1,34
 -150 762 -150 762 -125 762 c 0,26,27
0 762 m 0,35,36
 25 762 25 762 30 774 c 128,-1,37
 35 786 35 786 35 813 c 2,38,-1
 35 830 l 1,39,-1
 -35 830 l 1,40,-1
 -35 810 l 2,41,42
 -35 787 -35 787 -29 774.5 c 128,-1,43
 -23 762 -23 762 0 762 c 0,35,36
126 762 m 0,44,45
 151 762 151 762 156.5 775 c 128,-1,46
 162 788 162 788 162 813 c 2,47,-1
 162 830 l 1,48,-1
 91 830 l 1,49,-1
 91 810 l 2,50,51
 91 785 91 785 96.5 773.5 c 128,-1,52
 102 762 102 762 126 762 c 0,44,45
EndSplineSet
EndChar

StartChar: u1E00A
Encoding: 112 122890 113
Width: 0
GlyphClass: 4
Flags: W
AnchorPoint: "+BBEENQQ3BEsEPARPBD0EPQQ+BDUA--1" 0 908 basemark 0
AnchorPoint: "+BBEENQQ3BEsEPARPBD0EPQQ+BDUA--0" 0 605 mark 0
LayerCount: 2
Fore
SplineSet
-89 605 m 1,0,-1
 -89 669 l 2,1,2
 -89 688 -89 688 -83 706 c 128,-1,3
 -77 724 -77 724 -62 737 c 1,4,-1
 -64 740 l 1,5,6
 -75 730 -75 730 -90 723.5 c 128,-1,7
 -105 717 -105 717 -125 717 c 0,8,9
 -172 717 -172 717 -194.5 741 c 128,-1,10
 -217 765 -217 765 -217 808 c 2,11,-1
 -217 874 l 1,12,-1
 217 874 l 1,13,-1
 217 808 l 2,14,15
 217 765 217 765 195 741 c 128,-1,16
 173 717 173 717 126 717 c 0,17,18
 85 717 85 717 63 741 c 1,19,-1
 61 738 l 1,20,21
 77 725 77 725 84.5 707 c 128,-1,22
 92 689 92 689 92 669 c 2,23,-1
 92 605 l 1,24,-1
 -89 605 l 1,0,-1
-125 762 m 0,25,26
 -101 762 -101 762 -95.5 774 c 128,-1,27
 -90 786 -90 786 -90 813 c 2,28,-1
 -90 830 l 1,29,-1
 -161 830 l 1,30,-1
 -161 813 l 2,31,32
 -161 788 -161 788 -155.5 775 c 128,-1,33
 -150 762 -150 762 -125 762 c 0,25,26
0 762 m 0,34,35
 25 762 25 762 30 774 c 128,-1,36
 35 786 35 786 35 813 c 2,37,-1
 35 830 l 1,38,-1
 -35 830 l 1,39,-1
 -35 810 l 2,40,41
 -35 787 -35 787 -29 774.5 c 128,-1,42
 -23 762 -23 762 0 762 c 0,34,35
126 762 m 0,43,44
 151 762 151 762 156.5 775 c 128,-1,45
 162 788 162 788 162 813 c 2,46,-1
 162 830 l 1,47,-1
 91 830 l 1,48,-1
 91 810 l 2,49,50
 91 785 91 785 96.5 773.5 c 128,-1,51
 102 762 102 762 126 762 c 0,43,44
-34 649 m 1,52,-1
 36 649 l 1,53,-1
 36 669 l 2,54,55
 36 694 36 694 31 706.5 c 128,-1,56
 26 719 26 719 1 719 c 256,57,58
 -24 719 -24 719 -29 705.5 c 128,-1,59
 -34 692 -34 692 -34 669 c 2,60,-1
 -34 649 l 1,52,-1
EndSplineSet
EndChar

StartChar: u1E00B
Encoding: 113 122891 114
Width: 0
GlyphClass: 4
Flags: W
AnchorPoint: "+BBEENQQ3BEsEPARPBD0EPQQ+BDUA--1" 0 908 basemark 0
AnchorPoint: "+BBEENQQ3BEsEPARPBD0EPQQ+BDUA--0" 0 605 mark 0
LayerCount: 2
Fore
SplineSet
-91 605 m 1,0,-1
 -91 674 l 2,1,2
 -91 694 -91 694 -84 712.5 c 128,-1,3
 -77 731 -77 731 -61 744 c 1,4,5
 -77 758 -77 758 -84 777.5 c 128,-1,6
 -91 797 -91 797 -91 816 c 2,7,-1
 -91 874 l 1,8,-1
 91 874 l 1,9,-1
 91 817 l 2,10,11
 91 798 91 798 83 778 c 128,-1,12
 75 758 75 758 59 744 c 1,13,14
 75 731 75 731 83 712.5 c 128,-1,15
 91 694 91 694 91 674 c 2,16,-1
 91 605 l 1,17,-1
 -91 605 l 1,0,-1
0 766 m 0,18,19
 25 766 25 766 30.5 778.5 c 128,-1,20
 36 791 36 791 36 815 c 2,21,-1
 36 830 l 1,22,-1
 -35 830 l 1,23,-1
 -35 815 l 2,24,25
 -35 793 -35 793 -29.5 779.5 c 128,-1,26
 -24 766 -24 766 0 766 c 0,18,19
-35 649 m 1,27,-1
 36 649 l 1,28,-1
 36 674 l 2,29,30
 36 697 36 697 30.5 709.5 c 128,-1,31
 25 722 25 722 0 722 c 0,32,33
 -24 722 -24 722 -29.5 708 c 128,-1,34
 -35 694 -35 694 -35 674 c 2,35,-1
 -35 649 l 1,27,-1
EndSplineSet
EndChar

StartChar: u1E00C
Encoding: 114 122892 115
Width: 0
GlyphClass: 4
Flags: W
AnchorPoint: "+BBEENQQ3BEsEPARPBD0EPQQ+BDUA--1" 0 908 basemark 0
AnchorPoint: "+BBEENQQ3BEsEPARPBD0EPQQ+BDUA--0" 0 605 mark 0
LayerCount: 2
Fore
SplineSet
-210 605 m 1,0,-1
 -210 826 l 2,1,2
 -210 854 -210 854 -203.5 864 c 128,-1,3
 -197 874 -197 874 -163 874 c 2,4,-1
 -80 874 l 2,5,6
 -46 874 -46 874 -39 863 c 128,-1,7
 -32 852 -32 852 -32 823 c 2,8,-1
 -32 757 l 1,9,-1
 22 757 l 1,10,-1
 22 831 l 2,11,12
 22 852 22 852 29 863 c 128,-1,13
 36 874 36 874 62 874 c 2,14,-1
 183 874 l 2,15,16
 210 874 210 874 210 849 c 2,17,-1
 210 817 l 2,18,19
 210 772 210 772 179.5 744.5 c 128,-1,20
 149 717 149 717 78 713 c 1,21,-1
 78 605 l 1,22,-1
 22 605 l 1,23,-1
 22 714 l 1,24,-1
 -32 714 l 1,25,-1
 -32 605 l 1,26,-1
 -88 605 l 1,27,-1
 -88 808 l 2,28,29
 -88 822 -88 822 -90.5 826 c 128,-1,30
 -93 830 -93 830 -107 830 c 2,31,-1
 -135 830 l 2,32,33
 -150 830 -150 830 -152.5 826 c 128,-1,34
 -155 822 -155 822 -155 808 c 2,35,-1
 -155 605 l 1,36,-1
 -210 605 l 1,0,-1
78 757 m 1,37,38
 112 759 112 759 128.5 768.5 c 128,-1,39
 145 778 145 778 150 790.5 c 128,-1,40
 155 803 155 803 155 812 c 0,41,42
 155 830 155 830 143 830 c 2,43,-1
 94 830 l 2,44,45
 78 830 78 830 78 814 c 2,46,-1
 78 757 l 1,37,38
EndSplineSet
EndChar

StartChar: u1E00D
Encoding: 115 122893 116
Width: 0
GlyphClass: 4
Flags: W
AnchorPoint: "+BBEENQQ3BEsEPARPBD0EPQQ+BDUA--1" 0 908 basemark 0
AnchorPoint: "+BBEENQQ3BEsEPARPBD0EPQQ+BDUA--0" 14 605 mark 0
LayerCount: 2
Fore
SplineSet
25 605 m 1,0,-1
 25 703 l 2,1,2
 25 714 25 714 21 717.5 c 128,-1,3
 17 721 17 721 8 721 c 2,4,-1
 -81 721 l 1,5,-1
 -37 874 l 1,6,-1
 15 874 l 1,7,-1
 -18 765 l 1,8,-1
 37 765 l 2,9,10
 63 765 63 765 72 754.5 c 128,-1,11
 81 744 81 744 81 719 c 2,12,-1
 81 605 l 1,13,-1
 25 605 l 1,0,-1
EndSplineSet
EndChar

StartChar: u1E00E
Encoding: 116 122894 117
Width: 0
GlyphClass: 4
Flags: W
AnchorPoint: "+BBEENQQ3BEsEPARPBD0EPQQ+BDUA--1" 0 908 basemark 0
AnchorPoint: "+BBEENQQ3BEsEPARPBD0EPQQ+BDUA--0" 0 605 mark 0
LayerCount: 2
Fore
SplineSet
-164 605 m 2,0,1
 -189 605 -189 605 -196 615.5 c 128,-1,2
 -203 626 -203 626 -203 651 c 2,3,-1
 -203 719 l 2,4,5
 -203 744 -203 744 -196 754.5 c 128,-1,6
 -189 765 -189 765 -164 765 c 2,7,-1
 -81 765 l 1,8,-1
 -81 831 l 2,9,10
 -81 859 -81 859 -73 866.5 c 128,-1,11
 -65 874 -65 874 -36 874 c 2,12,-1
 36 874 l 2,13,14
 66 874 66 874 73.5 867 c 128,-1,15
 81 860 81 860 81 831 c 2,16,-1
 81 765 l 1,17,-1
 164 765 l 2,18,19
 189 765 189 765 196 754.5 c 128,-1,20
 203 744 203 744 203 719 c 2,21,-1
 203 651 l 2,22,23
 203 626 203 626 196 615.5 c 128,-1,24
 189 605 189 605 164 605 c 2,25,-1
 66 605 l 2,26,27
 41 605 41 605 33 615.5 c 128,-1,28
 25 626 25 626 25 651 c 2,29,-1
 25 721 l 1,30,-1
 -25 721 l 1,31,-1
 -25 651 l 2,32,33
 -25 626 -25 626 -33 615.5 c 128,-1,34
 -41 605 -41 605 -66 605 c 2,35,-1
 -164 605 l 2,0,1
-25 765 m 1,36,-1
 25 765 l 1,37,-1
 25 808 l 2,38,39
 25 822 25 822 23.5 826 c 128,-1,40
 22 830 22 830 11 830 c 2,41,-1
 -11 830 l 2,42,43
 -21 830 -21 830 -23 826 c 128,-1,44
 -25 822 -25 822 -25 808 c 2,45,-1
 -25 765 l 1,36,-1
-130 649 m 2,46,-1
 -97 649 l 2,47,48
 -88 649 -88 649 -84.5 652 c 128,-1,49
 -81 655 -81 655 -81 667 c 2,50,-1
 -81 721 l 1,51,-1
 -130 721 l 2,52,53
 -139 721 -139 721 -143 717.5 c 128,-1,54
 -147 714 -147 714 -147 703 c 2,55,-1
 -147 667 l 2,56,57
 -147 655 -147 655 -143 652 c 128,-1,58
 -139 649 -139 649 -130 649 c 2,46,-1
98 649 m 2,59,-1
 130 649 l 2,60,61
 139 649 139 649 143 652 c 128,-1,62
 147 655 147 655 147 667 c 2,63,-1
 147 703 l 2,64,65
 147 714 147 714 143 717.5 c 128,-1,66
 139 721 139 721 130 721 c 2,67,-1
 81 721 l 1,68,-1
 81 667 l 2,69,70
 81 655 81 655 85 652 c 128,-1,71
 89 649 89 649 98 649 c 2,59,-1
EndSplineSet
EndChar

StartChar: u1E00F
Encoding: 117 122895 118
Width: 0
GlyphClass: 4
Flags: W
AnchorPoint: "+BBEENQQ3BEsEPARPBD0EPQQ+BDUA--1" 0 908 basemark 0
AnchorPoint: "+BBEENQQ3BEsEPARPBD0EPQQ+BDUA--0" 0 605 mark 0
LayerCount: 2
Fore
SplineSet
-151 605 m 1,0,-1
 -151 790 l 2,1,2
 -151 812 -151 812 -143.5 832 c 128,-1,3
 -136 852 -136 852 -117 865.5 c 128,-1,4
 -98 879 -98 879 -63 879 c 0,5,6
 -21 879 -21 879 0 856 c 1,7,8
 21 879 21 879 63 879 c 0,9,10
 98 879 98 879 117 865.5 c 128,-1,11
 136 852 136 852 143.5 832 c 128,-1,12
 151 812 151 812 151 790 c 2,13,-1
 151 605 l 1,14,-1
 96 605 l 1,15,-1
 96 782 l 2,16,17
 96 804 96 804 92 819 c 128,-1,18
 88 834 88 834 63 834 c 256,19,20
 38 834 38 834 33 820 c 128,-1,21
 28 806 28 806 28 782 c 2,22,-1
 28 605 l 1,23,-1
 -28 605 l 1,24,-1
 -28 782 l 2,25,26
 -28 807 -28 807 -33.5 820.5 c 128,-1,27
 -39 834 -39 834 -63 834 c 0,28,29
 -88 834 -88 834 -92 819 c 128,-1,30
 -96 804 -96 804 -96 782 c 2,31,-1
 -96 605 l 1,32,-1
 -151 605 l 1,0,-1
EndSplineSet
EndChar

StartChar: u1E010
Encoding: 118 122896 119
Width: 0
GlyphClass: 4
Flags: W
AnchorPoint: "+BBEENQQ3BEsEPARPBD0EPQQ+BDUA--1" 0 908 basemark 0
AnchorPoint: "+BBEENQQ3BEsEPARPBD0EPQQ+BDUA--0" -10 605 mark 0
LayerCount: 2
Fore
SplineSet
-94 605 m 1,0,-1
 -94 831 l 2,1,2
 -94 852 -94 852 -87 863 c 128,-1,3
 -80 874 -80 874 -54 874 c 2,4,-1
 67 874 l 2,5,6
 94 874 94 874 94 849 c 2,7,-1
 94 817 l 2,8,9
 94 772 94 772 63.5 744.5 c 128,-1,10
 33 717 33 717 -38 713 c 1,11,-1
 -38 605 l 1,12,-1
 -94 605 l 1,0,-1
-38 757 m 1,13,14
 -4 759 -4 759 12 768.5 c 128,-1,15
 28 778 28 778 33.5 790.5 c 128,-1,16
 39 803 39 803 39 812 c 0,17,18
 39 830 39 830 27 830 c 2,19,-1
 -22 830 l 2,20,21
 -38 830 -38 830 -38 814 c 2,22,-1
 -38 757 l 1,13,14
EndSplineSet
EndChar

StartChar: u1E011
Encoding: 119 122897 120
Width: 0
GlyphClass: 4
Flags: W
AnchorPoint: "+BBEENQQ3BEsEPARPBD0EPQQ+BDUA--1" 0 908 basemark 0
AnchorPoint: "+BBEENQQ3BEsEPARPBD0EPQQ+BDUA--0" 0 605 mark 0
LayerCount: 2
Fore
SplineSet
-41 605 m 2,0,1
 -66 605 -66 605 -78 613.5 c 128,-1,2
 -90 622 -90 622 -93 634.5 c 128,-1,3
 -96 647 -96 647 -96 659 c 0,4,5
 -96 686 -96 686 -79 708.5 c 128,-1,6
 -62 731 -62 731 -34 744 c 1,7,8
 -63 756 -63 756 -79.5 774.5 c 128,-1,9
 -96 793 -96 793 -96 820 c 0,10,11
 -96 838 -96 838 -85.5 856 c 128,-1,12
 -75 874 -75 874 -44 874 c 2,13,-1
 51 874 l 2,14,15
 83 874 83 874 89.5 866.5 c 128,-1,16
 96 859 96 859 96 836 c 2,17,-1
 96 643 l 2,18,19
 96 619 96 619 87 612 c 128,-1,20
 78 605 78 605 46 605 c 2,21,-1
 -41 605 l 2,0,1
41 765 m 1,22,-1
 41 816 l 2,23,24
 41 823 41 823 38.5 826.5 c 128,-1,25
 36 830 36 830 27 830 c 2,26,-1
 -20 830 l 2,27,28
 -36 830 -36 830 -38.5 824 c 128,-1,29
 -41 818 -41 818 -41 810 c 0,30,31
 -41 795 -41 795 -22.5 781 c 128,-1,32
 -4 767 -4 767 41 765 c 1,22,-1
-26 649 m 2,33,-1
 29 649 l 2,34,35
 41 649 41 649 41 664 c 2,36,-1
 41 725 l 1,37,38
 -3 721 -3 721 -22 705 c 128,-1,39
 -41 689 -41 689 -41 670 c 0,40,41
 -41 662 -41 662 -38.5 655.5 c 128,-1,42
 -36 649 -36 649 -26 649 c 2,33,-1
EndSplineSet
EndChar

StartChar: u1E012
Encoding: 120 122898 121
Width: 0
GlyphClass: 4
Flags: W
AnchorPoint: "+BBEENQQ3BEsEPARPBD0EPQQ+BDUA--1" 0 908 basemark 0
AnchorPoint: "+BBEENQQ3BEsEPARPBD0EPQQ+BDUA--0" 0 605 mark 0
LayerCount: 2
Fore
SplineSet
-140 605 m 1,0,-1
 -140 826 l 2,1,2
 -140 854 -140 854 -133 864 c 128,-1,3
 -126 874 -126 874 -93 874 c 2,4,-1
 102 874 l 2,5,6
 127 874 127 874 134 863.5 c 128,-1,7
 141 853 141 853 141 828 c 2,8,-1
 141 728 l 2,9,10
 141 703 141 703 134 693 c 128,-1,11
 127 683 127 683 102 683 c 2,12,-1
 2 683 l 2,13,14
 -23 683 -23 683 -30 693 c 128,-1,15
 -37 703 -37 703 -37 728 c 2,16,-1
 -37 830 l 1,17,-1
 -65 830 l 2,18,19
 -79 830 -79 830 -81.5 826 c 128,-1,20
 -84 822 -84 822 -84 808 c 2,21,-1
 -84 605 l 1,22,-1
 -140 605 l 1,0,-1
36 727 m 2,23,-1
 68 727 l 2,24,25
 77 727 77 727 81 730 c 128,-1,26
 85 733 85 733 85 744 c 2,27,-1
 85 813 l 2,28,29
 85 824 85 824 81 827 c 128,-1,30
 77 830 77 830 68 830 c 2,31,-1
 19 830 l 1,32,-1
 19 744 l 2,33,34
 19 733 19 733 23 730 c 128,-1,35
 27 727 27 727 36 727 c 2,23,-1
EndSplineSet
EndChar

StartChar: u1E013
Encoding: 121 122899 122
Width: 0
GlyphClass: 4
Flags: W
AnchorPoint: "+BBEENQQ3BEsEPARPBD0EPQQ+BDUA--1" 0 908 basemark 0
AnchorPoint: "+BBEENQQ3BEsEPARPBD0EPQQ+BDUA--0" 0 605 mark 0
LayerCount: 2
Fore
SplineSet
-54 605 m 2,0,1
 -80 605 -80 605 -87 616.5 c 128,-1,2
 -94 628 -94 628 -94 649 c 2,3,-1
 -94 874 l 1,4,-1
 -38 874 l 1,5,-1
 -38 766 l 1,6,7
 33 763 33 763 63.5 732 c 128,-1,8
 94 701 94 701 94 662 c 2,9,-1
 94 649 l 2,10,11
 94 625 94 625 79 615 c 128,-1,12
 64 605 64 605 52 605 c 2,13,-1
 -54 605 l 2,0,1
-22 649 m 2,14,-1
 27 649 l 2,15,16
 39 649 39 649 39 668 c 0,17,18
 39 678 39 678 33.5 690 c 128,-1,19
 28 702 28 702 12 711.5 c 128,-1,20
 -4 721 -4 721 -38 723 c 1,21,-1
 -38 666 l 2,22,23
 -38 649 -38 649 -22 649 c 2,14,-1
EndSplineSet
EndChar

StartChar: u1E014
Encoding: 122 122900 123
Width: 0
GlyphClass: 4
Flags: W
AnchorPoint: "+BBEENQQ3BEsEPARPBD0EPQQ+BDUA--1" 0 908 basemark 0
AnchorPoint: "+BBEENQQ3BEsEPARPBD0EPQQ+BDUA--0" 0 605 mark 0
LayerCount: 2
Fore
SplineSet
-91 605 m 1,0,-1
 -91 684 l 1,1,2
 -120 701 -120 701 -132.5 725.5 c 128,-1,3
 -145 750 -145 750 -145 775 c 0,4,5
 -145 799 -145 799 -131 823 c 128,-1,6
 -117 847 -117 847 -85 863 c 128,-1,7
 -53 879 -53 879 0 879 c 0,8,9
 54 879 54 879 86 863 c 128,-1,10
 118 847 118 847 132 823 c 128,-1,11
 146 799 146 799 146 775 c 0,12,13
 146 750 146 750 133 725.5 c 128,-1,14
 120 701 120 701 91 684 c 1,15,-1
 91 605 l 1,16,-1
 -91 605 l 1,0,-1
76 733 m 1,17,18
 84 741 84 741 86.5 751.5 c 128,-1,19
 89 762 89 762 89 776 c 0,20,21
 89 804 89 804 64 819 c 128,-1,22
 39 834 39 834 0 834 c 0,23,24
 -40 834 -40 834 -64.5 819.5 c 128,-1,25
 -89 805 -89 805 -89 776 c 0,26,27
 -89 751 -89 751 -77 734 c 1,28,29
 -68 750 -68 750 -49.5 761 c 128,-1,30
 -31 772 -31 772 0 772 c 0,31,32
 29 772 29 772 48 760.5 c 128,-1,33
 67 749 67 749 76 733 c 1,17,18
-35 649 m 1,34,-1
 36 649 l 1,35,-1
 36 672 l 2,36,37
 36 697 36 697 30.5 712 c 128,-1,38
 25 727 25 727 0 727 c 256,39,40
 -25 727 -25 727 -30 710.5 c 128,-1,41
 -35 694 -35 694 -35 671 c 2,42,-1
 -35 649 l 1,34,-1
EndSplineSet
EndChar

StartChar: u1E015
Encoding: 123 122901 124
Width: 0
GlyphClass: 4
Flags: W
AnchorPoint: "+BBEENQQ3BEsEPARPBD0EPQQ+BDUA--1" 0 908 basemark 0
AnchorPoint: "+BBEENQQ3BEsEPARPBD0EPQQ+BDUA--0" 0 605 mark 0
LayerCount: 2
Fore
SplineSet
-164 605 m 2,0,1
 -189 605 -189 605 -196 615.5 c 128,-1,2
 -203 626 -203 626 -203 651 c 2,3,-1
 -203 829 l 2,4,5
 -203 853 -203 853 -196 863.5 c 128,-1,6
 -189 874 -189 874 -164 874 c 2,7,-1
 164 874 l 2,8,9
 190 874 190 874 196.5 863.5 c 128,-1,10
 203 853 203 853 203 829 c 2,11,-1
 203 651 l 2,12,13
 203 626 203 626 196.5 615.5 c 128,-1,14
 190 605 190 605 164 605 c 2,15,-1
 63 605 l 2,16,17
 38 605 38 605 31.5 615.5 c 128,-1,18
 25 626 25 626 25 651 c 2,19,-1
 25 830 l 1,20,-1
 -25 830 l 1,21,-1
 -25 651 l 2,22,23
 -25 626 -25 626 -31.5 615.5 c 128,-1,24
 -38 605 -38 605 -63 605 c 2,25,-1
 -164 605 l 2,0,1
-130 649 m 2,26,-1
 -98 649 l 2,27,28
 -88 649 -88 649 -84.5 652.5 c 128,-1,29
 -81 656 -81 656 -81 667 c 2,30,-1
 -81 830 l 1,31,-1
 -130 830 l 2,32,33
 -139 830 -139 830 -143 827 c 128,-1,34
 -147 824 -147 824 -147 813 c 2,35,-1
 -147 667 l 2,36,37
 -147 656 -147 656 -143 652.5 c 128,-1,38
 -139 649 -139 649 -130 649 c 2,26,-1
98 649 m 2,39,-1
 130 649 l 2,40,41
 139 649 139 649 143 652.5 c 128,-1,42
 147 656 147 656 147 667 c 2,43,-1
 147 813 l 2,44,45
 147 824 147 824 143 827 c 128,-1,46
 139 830 139 830 130 830 c 2,47,-1
 81 830 l 1,48,-1
 81 667 l 2,49,50
 81 656 81 656 84.5 652.5 c 128,-1,51
 88 649 88 649 98 649 c 2,39,-1
EndSplineSet
EndChar

StartChar: u1E016
Encoding: 124 122902 125
Width: 0
GlyphClass: 4
Flags: W
AnchorPoint: "+BBEENQQ3BEsEPARPBD0EPQQ+BDUA--1" 0 908 basemark 0
AnchorPoint: "+BBEENQQ3BEsEPARPBD0EPQQ+BDUA--0" 0 605 mark 0
LayerCount: 2
Fore
SplineSet
-104 605 m 2,0,1
 -129 605 -129 605 -141 613.5 c 128,-1,2
 -153 622 -153 622 -156.5 634.5 c 128,-1,3
 -160 647 -160 647 -160 659 c 0,4,5
 -160 686 -160 686 -143 708.5 c 128,-1,6
 -126 731 -126 731 -98 744 c 1,7,8
 -126 756 -126 756 -143 774.5 c 128,-1,9
 -160 793 -160 793 -160 820 c 0,10,11
 -160 838 -160 838 -149 856 c 128,-1,12
 -138 874 -138 874 -107 874 c 2,13,-1
 121 874 l 2,14,15
 146 874 146 874 153 863.5 c 128,-1,16
 160 853 160 853 160 828 c 2,17,-1
 160 651 l 2,18,19
 160 626 160 626 153 615.5 c 128,-1,20
 146 605 146 605 121 605 c 2,21,-1
 -104 605 l 2,0,1
-23 765 m 1,22,-1
 -23 816 l 2,23,24
 -23 823 -23 823 -25 826.5 c 128,-1,25
 -27 830 -27 830 -36 830 c 2,26,-1
 -83 830 l 2,27,28
 -99 830 -99 830 -101.5 824 c 128,-1,29
 -104 818 -104 818 -104 810 c 0,30,31
 -104 795 -104 795 -86 781 c 128,-1,32
 -68 767 -68 767 -23 765 c 1,22,-1
33 764 m 1,33,-1
 104 764 l 1,34,-1
 104 813 l 2,35,36
 104 824 104 824 100 827 c 128,-1,37
 96 830 96 830 87 830 c 2,38,-1
 33 830 l 1,39,-1
 33 764 l 1,33,-1
-89 649 m 2,40,-1
 -34 649 l 2,41,42
 -23 649 -23 649 -23 664 c 2,43,-1
 -23 725 l 1,44,45
 -66 721 -66 721 -85 705 c 128,-1,46
 -104 689 -104 689 -104 670 c 0,47,48
 -104 662 -104 662 -101.5 655.5 c 128,-1,49
 -99 649 -99 649 -89 649 c 2,40,-1
33 649 m 1,50,-1
 87 649 l 2,51,52
 96 649 96 649 100 652 c 128,-1,53
 104 655 104 655 104 667 c 2,54,-1
 104 721 l 1,55,-1
 33 721 l 1,56,-1
 33 649 l 1,50,-1
EndSplineSet
EndChar

StartChar: u1E017
Encoding: 125 122903 126
Width: 0
GlyphClass: 4
Flags: W
AnchorPoint: "+BBEENQQ3BEsEPARPBD0EPQQ+BDUA--1" 0 976 basemark 0
AnchorPoint: "+BBEENQQ3BEsEPARPBD0EPQQ+BDUA--0" 0 556 mark 0
LayerCount: 2
Fore
SplineSet
-28 524 m 1,0,-1
 -28 602 l 1,1,2
 -92 607 -92 607 -131 643 c 128,-1,3
 -170 679 -170 679 -170 740 c 256,4,5
 -170 801 -170 801 -133 837.5 c 128,-1,6
 -96 874 -96 874 -26 880 c 1,7,-1
 -26 951 l 1,8,-1
 28 951 l 1,9,-1
 28 880 l 1,10,11
 93 874 93 874 131.5 837.5 c 128,-1,12
 170 801 170 801 170 740 c 256,13,14
 170 679 170 679 133 643 c 128,-1,15
 96 607 96 607 28 602 c 1,16,-1
 28 524 l 1,17,-1
 -28 524 l 1,0,-1
-26 646 m 1,18,-1
 -26 834 l 1,19,20
 -71 831 -71 831 -91 807.5 c 128,-1,21
 -111 784 -111 784 -111 740 c 0,22,23
 -111 697 -111 697 -90.5 674 c 128,-1,24
 -70 651 -70 651 -26 646 c 1,18,-1
28 646 m 1,25,26
 112 656 112 656 112 740 c 0,27,28
 112 827 112 827 28 834 c 1,29,-1
 28 646 l 1,25,26
EndSplineSet
EndChar

StartChar: u1E018
Encoding: 126 122904 127
Width: 0
GlyphClass: 4
Flags: W
AnchorPoint: "+BBEENQQ3BEsEPARPBD0EPQQ+BDUA--1" 0 908 basemark 0
AnchorPoint: "+BBEENQQ3BEsEPARPBD0EPQQ+BDUA--0" 0 605 mark 0
LayerCount: 2
Fore
SplineSet
-155 605 m 1,0,-1
 -61 830 l 1,1,-1
 -163 830 l 1,2,-1
 -163 874 l 1,3,-1
 13 874 l 1,4,-1
 -44 741 l 1,5,-1
 -11 741 l 1,6,7
 -9 752 -9 752 -0.5 758.5 c 128,-1,8
 8 765 8 765 26 765 c 2,9,-1
 125 765 l 2,10,11
 150 765 150 765 156.5 754.5 c 128,-1,12
 163 744 163 744 163 719 c 2,13,-1
 163 605 l 1,14,-1
 26 605 l 2,15,16
 1 605 1 605 -5.5 615.5 c 128,-1,17
 -12 626 -12 626 -12 651 c 2,18,-1
 -12 697 l 1,19,-1
 -64 697 l 1,20,-1
 -104 605 l 1,21,-1
 -155 605 l 1,0,-1
60 649 m 2,22,-1
 107 649 l 1,23,-1
 107 703 l 2,24,25
 107 714 107 714 103.5 717.5 c 128,-1,26
 100 721 100 721 90 721 c 2,27,-1
 60 721 l 2,28,29
 51 721 51 721 47 717.5 c 128,-1,30
 43 714 43 714 43 703 c 2,31,-1
 43 667 l 2,32,33
 43 655 43 655 47 652 c 128,-1,34
 51 649 51 649 60 649 c 2,22,-1
EndSplineSet
EndChar

StartChar: u1E01B
Encoding: 127 122907 128
Width: 0
GlyphClass: 4
Flags: W
AnchorPoint: "+BBEENQQ3BEsEPARPBD0EPQQ+BDUA--1" 0 908 basemark 0
AnchorPoint: "+BBEENQQ3BEsEPARPBD0EPQQ+BDUA--0" 0 605 mark 0
LayerCount: 2
Fore
SplineSet
-88 605 m 1,0,-1
 -88 675 l 2,1,2
 -88 686 -88 686 -86 699.5 c 128,-1,3
 -84 713 -84 713 -80 725 c 1,4,-1
 -119 725 l 2,5,6
 -147 725 -147 725 -152.5 736.5 c 128,-1,7
 -158 748 -158 748 -158 770 c 2,8,-1
 -158 874 l 1,9,-1
 -102 874 l 1,10,-1
 -102 786 l 2,11,12
 -102 776 -102 776 -99 772.5 c 128,-1,13
 -96 769 -96 769 -85 769 c 2,14,-1
 -28 769 l 1,15,-1
 -28 874 l 1,16,-1
 28 874 l 1,17,-1
 28 769 l 1,18,-1
 85 769 l 2,19,20
 96 769 96 769 99 772.5 c 128,-1,21
 102 776 102 776 102 786 c 2,22,-1
 102 874 l 1,23,-1
 158 874 l 1,24,-1
 158 770 l 2,25,26
 158 748 158 748 152.5 736.5 c 128,-1,27
 147 725 147 725 119 725 c 2,28,-1
 78 725 l 1,29,30
 83 713 83 713 85.5 699.5 c 128,-1,31
 88 686 88 686 88 675 c 2,32,-1
 88 605 l 1,33,-1
 -88 605 l 1,0,-1
-33 649 m 1,34,-1
 33 649 l 1,35,-1
 33 670 l 2,36,37
 33 695 33 695 27.5 708 c 128,-1,38
 22 721 22 721 0 721 c 0,39,40
 -25 721 -25 721 -29 707 c 128,-1,41
 -33 693 -33 693 -33 670 c 2,42,-1
 -33 649 l 1,34,-1
EndSplineSet
EndChar

StartChar: u1E01C
Encoding: 128 122908 129
Width: 0
GlyphClass: 4
Flags: W
AnchorPoint: "+BBEENQQ3BEsEPARPBD0EPQQ+BDUA--1" 0 908 basemark 0
AnchorPoint: "+BBEENQQ3BEsEPARPBD0EPQQ+BDUA--0" 53 605 mark 0
LayerCount: 2
Fore
SplineSet
34 605 m 2,0,1
 9 605 9 605 3 612.5 c 128,-1,2
 -3 620 -3 620 -7 642 c 2,3,-1
 -21 723 l 1,4,5
 -82 725 -82 725 -120 751.5 c 128,-1,6
 -158 778 -158 778 -158 820 c 0,7,8
 -158 838 -158 838 -149 856 c 128,-1,9
 -140 874 -140 874 -103 874 c 2,10,-1
 -38 874 l 2,11,12
 -6 874 -6 874 2.5 867 c 128,-1,13
 11 860 11 860 15 836 c 2,14,-1
 45 664 l 2,15,16
 47 654 47 654 48.5 651.5 c 128,-1,17
 50 649 50 649 56 649 c 0,18,19
 65 649 65 649 67 664 c 2,20,-1
 104 874 l 1,21,-1
 158 874 l 1,22,-1
 117 642 l 2,23,24
 113 620 113 620 107 612.5 c 128,-1,25
 101 605 101 605 75 605 c 2,26,-1
 34 605 l 2,0,1
-28 766 m 1,27,-1
 -38 820 l 2,28,29
 -39 827 -39 827 -41.5 828.5 c 128,-1,30
 -44 830 -44 830 -51 830 c 2,31,-1
 -88 830 l 2,32,33
 -98 830 -98 830 -100.5 826.5 c 128,-1,34
 -103 823 -103 823 -103 814 c 0,35,36
 -103 773 -103 773 -28 766 c 1,27,-1
EndSplineSet
EndChar

StartChar: u1E01D
Encoding: 129 122909 130
Width: 0
GlyphClass: 4
Flags: W
AnchorPoint: "+BBEENQQ3BEsEPARPBD0EPQQ+BDUA--1" 0 908 basemark 0
AnchorPoint: "+BBEENQQ3BEsEPARPBD0EPQQ+BDUA--0" 0 605 mark 0
LayerCount: 2
Fore
SplineSet
-88 605 m 1,0,-1
 -88 680 l 2,1,2
 -88 693 -88 693 -86.5 702.5 c 128,-1,3
 -85 712 -85 712 -81 723 c 1,4,-1
 -172 723 l 1,5,-1
 -110 874 l 1,6,-1
 -61 874 l 1,7,-1
 -74 841 l 1,8,-1
 74 841 l 1,9,-1
 61 874 l 1,10,-1
 110 874 l 1,11,-1
 172 723 l 1,12,-1
 81 723 l 1,13,14
 86 713 86 713 87 703 c 128,-1,15
 88 693 88 693 88 680 c 2,16,-1
 88 605 l 1,17,-1
 -88 605 l 1,0,-1
-104 765 m 1,18,-1
 -25 765 l 1,19,-1
 -25 800 l 1,20,-1
 -90 800 l 1,21,-1
 -104 765 l 1,18,-1
25 765 m 1,22,-1
 104 765 l 1,23,-1
 91 800 l 1,24,-1
 25 800 l 1,25,-1
 25 765 l 1,22,-1
-33 649 m 1,26,-1
 33 649 l 1,27,-1
 33 670 l 2,28,29
 33 695 33 695 27.5 708 c 128,-1,30
 22 721 22 721 0 721 c 0,31,32
 -25 721 -25 721 -29 707 c 128,-1,33
 -33 693 -33 693 -33 670 c 2,34,-1
 -33 649 l 1,26,-1
EndSplineSet
EndChar

StartChar: u1E01E
Encoding: 130 122910 131
Width: 0
GlyphClass: 4
Flags: W
AnchorPoint: "+BBEENQQ3BEsEPARPBD0EPQQ+BDUA--1" 0 908 basemark 0
AnchorPoint: "+BBEENQQ3BEsEPARPBD0EPQQ+BDUA--0" 0 605 mark 0
LayerCount: 2
Fore
SplineSet
-119 605 m 2,0,1
 -147 605 -147 605 -152.5 617 c 128,-1,2
 -158 629 -158 629 -158 651 c 2,3,-1
 -158 874 l 1,4,-1
 -102 874 l 1,5,-1
 -102 667 l 2,6,7
 -102 657 -102 657 -99 653 c 128,-1,8
 -96 649 -96 649 -85 649 c 2,9,-1
 -28 649 l 1,10,-1
 -28 874 l 1,11,-1
 28 874 l 1,12,-1
 28 649 l 1,13,-1
 85 649 l 2,14,15
 96 649 96 649 99 653 c 128,-1,16
 102 657 102 657 102 667 c 2,17,-1
 102 874 l 1,18,-1
 158 874 l 1,19,-1
 158 651 l 2,20,21
 158 629 158 629 152.5 617 c 128,-1,22
 147 605 147 605 119 605 c 2,23,-1
 -119 605 l 2,0,1
EndSplineSet
EndChar

StartChar: u1E01F
Encoding: 131 122911 132
Width: 0
GlyphClass: 4
Flags: W
AnchorPoint: "+BBEENQQ3BEsEPARPBD0EPQQ+BDUA--1" 0 908 basemark 0
AnchorPoint: "+BBEENQQ3BEsEPARPBD0EPQQ+BDUA--0" 53 605 mark 0
LayerCount: 2
Fore
SplineSet
-31 605 m 1,0,-1
 -31 695 l 2,1,2
 -31 703 -31 703 -28 711.5 c 128,-1,3
 -25 720 -25 720 -21 727 c 1,4,-1
 -45 727 l 1,5,6
 -44 724 -44 724 -44 716 c 0,7,8
 -44 697 -44 697 -59 683.5 c 128,-1,9
 -74 670 -74 670 -95 670 c 256,10,11
 -116 670 -116 670 -131 682.5 c 128,-1,12
 -146 695 -146 695 -146 719 c 0,13,14
 -146 738 -146 738 -131 751.5 c 128,-1,15
 -116 765 -116 765 -95 765 c 2,16,-1
 -27 765 l 1,17,18
 -28 770 -28 770 -29.5 775 c 128,-1,19
 -31 780 -31 780 -31 785 c 2,20,-1
 -31 874 l 1,21,-1
 146 874 l 1,22,-1
 146 785 l 2,23,24
 146 773 146 773 140 760.5 c 128,-1,25
 134 748 134 748 125 740 c 1,26,27
 134 731 134 731 140 718.5 c 128,-1,28
 146 706 146 706 146 694 c 2,29,-1
 146 605 l 1,30,-1
 -31 605 l 1,0,-1
58 758 m 0,31,32
 79 758 79 758 84.5 771.5 c 128,-1,33
 90 785 90 785 90 809 c 2,34,-1
 90 830 l 1,35,-1
 24 830 l 1,36,-1
 24 810 l 2,37,38
 24 788 24 788 28.5 773 c 128,-1,39
 33 758 33 758 58 758 c 0,31,32
-95 701 m 256,40,41
 -88 701 -88 701 -83.5 706 c 128,-1,42
 -79 711 -79 711 -79 718 c 0,43,44
 -79 734 -79 734 -96 734 c 0,45,46
 -111 734 -111 734 -111 718 c 0,47,48
 -111 711 -111 711 -106.5 706 c 128,-1,49
 -102 701 -102 701 -95 701 c 256,40,41
24 649 m 1,50,-1
 90 649 l 1,51,-1
 90 670 l 2,52,53
 90 695 90 695 84.5 708 c 128,-1,54
 79 721 79 721 58 721 c 0,55,56
 33 721 33 721 28.5 707 c 128,-1,57
 24 693 24 693 24 670 c 2,58,-1
 24 649 l 1,50,-1
EndSplineSet
EndChar

StartChar: u1E020
Encoding: 132 122912 133
Width: 0
GlyphClass: 4
Flags: W
AnchorPoint: "+BBEENQQ3BEsEPARPBD0EPQQ+BDUA--1" 0 908 basemark 0
AnchorPoint: "+BBEENQQ3BEsEPARPBD0EPQQ+BDUA--0" 48 605 mark 0
LayerCount: 2
Fore
SplineSet
-37 605 m 1,0,-1
 -37 695 l 2,1,2
 -37 703 -37 703 -33.5 711.5 c 128,-1,3
 -30 720 -30 720 -26 727 c 1,4,-1
 -51 727 l 1,5,6
 -50 725 -50 725 -50 723 c 128,-1,7
 -50 721 -50 721 -50 720 c 0,8,9
 -50 702 -50 702 -63 689.5 c 128,-1,10
 -76 677 -76 677 -95 677 c 256,11,12
 -114 677 -114 677 -127 688.5 c 128,-1,13
 -140 700 -140 700 -140 722 c 0,14,15
 -140 739 -140 739 -127 752 c 128,-1,16
 -114 765 -114 765 -95 765 c 2,17,-1
 -32 765 l 1,18,19
 -37 775 -37 775 -37 785 c 2,20,-1
 -37 874 l 1,21,-1
 140 874 l 1,22,-1
 140 785 l 2,23,24
 140 758 140 758 120 740 c 1,25,26
 140 720 140 720 140 694 c 2,27,-1
 140 605 l 1,28,-1
 -37 605 l 1,0,-1
52 758 m 0,29,30
 74 758 74 758 79 771.5 c 128,-1,31
 84 785 84 785 84 809 c 2,32,-1
 84 830 l 1,33,-1
 19 830 l 1,34,-1
 19 810 l 2,35,36
 19 788 19 788 23 773 c 128,-1,37
 27 758 27 758 52 758 c 0,29,30
19 649 m 1,38,-1
 84 649 l 1,39,-1
 84 670 l 2,40,41
 84 695 84 695 79 708 c 128,-1,42
 74 721 74 721 52 721 c 0,43,44
 27 721 27 721 23 707 c 128,-1,45
 19 693 19 693 19 670 c 2,46,-1
 19 649 l 1,38,-1
EndSplineSet
EndChar

StartChar: u1E021
Encoding: 133 122913 134
Width: 0
GlyphClass: 4
Flags: W
AnchorPoint: "+BBEENQQ3BEsEPARPBD0EPQQ+BDUA--1" 0 908 basemark 0
AnchorPoint: "+BBEENQQ3BEsEPARPBD0EPQQ+BDUA--0" 0 605 mark 0
LayerCount: 2
Fore
SplineSet
-179 605 m 1,0,-1
 -53 851 l 2,1,2
 -48 862 -48 862 -41.5 868 c 128,-1,3
 -35 874 -35 874 -23 874 c 2,4,-1
 24 874 l 2,5,6
 36 874 36 874 42.5 868 c 128,-1,7
 49 862 49 862 54 851 c 2,8,-1
 180 605 l 1,9,-1
 -179 605 l 1,0,-1
-48 756 m 1,10,-1
 49 756 l 1,11,-1
 16 823 l 2,12,13
 10 835 10 835 7 835 c 2,14,-1
 -5 835 l 2,15,16
 -7 835 -7 835 -9.5 831.5 c 128,-1,17
 -12 828 -12 828 -14 823 c 2,18,-1
 -48 756 l 1,10,-1
-102 649 m 1,19,-1
 -24 649 l 1,20,-1
 -24 714 l 1,21,-1
 -68 714 l 1,22,-1
 -102 649 l 1,19,-1
26 649 m 1,23,-1
 103 649 l 1,24,-1
 69 714 l 1,25,-1
 26 714 l 1,26,-1
 26 649 l 1,23,-1
EndSplineSet
EndChar

StartChar: u1E023
Encoding: 134 122915 135
Width: 0
GlyphClass: 4
Flags: W
AnchorPoint: "+BBEENQQ3BEsEPARPBD0EPQQ+BDUA--1" 0 908 basemark 0
AnchorPoint: "+BBEENQQ3BEsEPARPBD0EPQQ+BDUA--0" 0 605 mark 0
LayerCount: 2
Fore
SplineSet
-158 571 m 1,0,-1
 -158 828 l 2,1,2
 -158 851 -158 851 -152.5 862.5 c 128,-1,3
 -147 874 -147 874 -119 874 c 2,4,-1
 119 874 l 2,5,6
 147 874 147 874 152.5 862.5 c 128,-1,7
 158 851 158 851 158 828 c 2,8,-1
 158 711 l 2,9,10
 158 689 158 689 155 674.5 c 128,-1,11
 152 660 152 660 137 655 c 2,12,-1
 -158 571 l 1,0,-1
-102 632 m 1,13,-1
 -28 653 l 1,14,-1
 -28 830 l 1,15,-1
 -85 830 l 2,16,17
 -96 830 -96 830 -99 826.5 c 128,-1,18
 -102 823 -102 823 -102 813 c 2,19,-1
 -102 632 l 1,13,-1
28 669 m 1,20,-1
 89 688 l 2,21,22
 103 692 103 692 103 709 c 2,23,-1
 103 813 l 2,24,25
 103 823 103 823 99.5 826.5 c 128,-1,26
 96 830 96 830 85 830 c 2,27,-1
 28 830 l 1,28,-1
 28 669 l 1,20,-1
EndSplineSet
EndChar

StartChar: u1E024
Encoding: 135 122916 136
Width: 0
GlyphClass: 4
Flags: W
AnchorPoint: "+BBEENQQ3BEsEPARPBD0EPQQ+BDUA--1" 0 908 basemark 0
AnchorPoint: "+BBEENQQ3BEsEPARPBD0EPQQ+BDUA--0" 19 605 mark 0
LayerCount: 2
Fore
SplineSet
59 601 m 0,0,1
 -2 601 -2 601 -43.5 630 c 128,-1,2
 -85 659 -85 659 -90 723 c 1,3,-1
 -137 723 l 1,4,-1
 -137 765 l 1,5,-1
 -89 765 l 1,6,7
 -81 826 -81 826 -43 852.5 c 128,-1,8
 -5 879 -5 879 51 879 c 0,9,10
 74 879 74 879 96 874.5 c 128,-1,11
 118 870 118 870 134 863 c 1,12,-1
 119 819 l 1,13,14
 104 824 104 824 85 828 c 128,-1,15
 66 832 66 832 51 832 c 0,16,17
 17 832 17 832 -4.5 817 c 128,-1,18
 -26 802 -26 802 -31 765 c 1,19,-1
 107 765 l 1,20,-1
 107 723 l 1,21,-1
 -32 723 l 1,22,23
 -27 686 -27 686 -5.5 666 c 128,-1,24
 16 646 16 646 58 646 c 0,25,26
 82 646 82 646 101 651 c 128,-1,27
 120 656 120 656 137 662 c 1,28,-1
 137 615 l 1,29,30
 121 608 121 608 103 604.5 c 128,-1,31
 85 601 85 601 59 601 c 0,0,1
EndSplineSet
EndChar

StartChar: u1E026
Encoding: 136 122918 137
Width: 0
GlyphClass: 4
Flags: W
AnchorPoint: "+BBEENQQ3BEsEPARPBD0EPQQ+BDUA--1" 0 908 basemark 0
AnchorPoint: "+BBEENQQ3BEsEPARPBD0EPQQ+BDUA--0" 0 605 mark 0
LayerCount: 2
Fore
SplineSet
-90 605 m 1,0,-1
 -90 695 l 2,1,2
 -90 702 -90 702 -87.5 709 c 128,-1,3
 -85 716 -85 716 -82 723 c 1,4,-1
 -179 723 l 1,5,6
 -151 778 -151 778 -135.5 809 c 128,-1,7
 -120 840 -120 840 -113 853.5 c 128,-1,8
 -106 867 -106 867 -104 870.5 c 128,-1,9
 -102 874 -102 874 -102 874 c 1,10,-1
 97 874 l 1,11,-1
 179 723 l 1,12,-1
 80 723 l 1,13,14
 83 716 83 716 85 709 c 128,-1,15
 87 702 87 702 87 694 c 2,16,-1
 87 605 l 1,17,-1
 -90 605 l 1,0,-1
-106 765 m 1,18,-1
 -26 765 l 1,19,-1
 -26 832 l 1,20,-1
 -71 832 l 1,21,-1
 -106 765 l 1,18,-1
24 765 m 1,22,-1
 101 765 l 1,23,-1
 66 832 l 1,24,-1
 24 832 l 1,25,-1
 24 765 l 1,22,-1
-34 649 m 1,26,-1
 31 649 l 1,27,-1
 31 670 l 2,28,29
 31 695 31 695 26 708 c 128,-1,30
 21 721 21 721 -1 721 c 0,31,32
 -26 721 -26 721 -30 707 c 128,-1,33
 -34 693 -34 693 -34 670 c 2,34,-1
 -34 649 l 1,26,-1
EndSplineSet
EndChar

StartChar: u1E027
Encoding: 137 122919 138
Width: 0
GlyphClass: 4
Flags: W
AnchorPoint: "+BBEENQQ3BEsEPARPBD0EPQQ+BDUA--1" 0 908 basemark 0
AnchorPoint: "+BBEENQQ3BEsEPARPBD0EPQQ+BDUA--0" 0 605 mark 0
LayerCount: 2
Fore
SplineSet
-144 601 m 0,0,1
 -161 601 -161 601 -172.5 602.5 c 128,-1,2
 -184 604 -184 604 -195 605 c 1,3,-1
 -195 652 l 1,4,5
 -184 650 -184 650 -173.5 648 c 128,-1,6
 -163 646 -163 646 -146 646 c 0,7,8
 -114 646 -114 646 -98.5 666 c 128,-1,9
 -83 686 -83 686 -78 723 c 1,10,-1
 -173 723 l 1,11,-1
 -173 765 l 1,12,-1
 -79 765 l 1,13,14
 -83 802 -83 802 -98.5 817 c 128,-1,15
 -114 832 -114 832 -139 832 c 0,16,17
 -152 832 -152 832 -164 830 c 128,-1,18
 -176 828 -176 828 -187 826 c 1,19,-1
 -197 872 l 1,20,21
 -184 874 -184 874 -171 876.5 c 128,-1,22
 -158 879 -158 879 -140 879 c 0,23,24
 -91 879 -91 879 -59 852.5 c 128,-1,25
 -27 826 -27 826 -21 765 c 1,26,-1
 21 765 l 1,27,28
 27 826 27 826 59.5 852.5 c 128,-1,29
 92 879 92 879 141 879 c 0,30,31
 159 879 159 879 172 876.5 c 128,-1,32
 185 874 185 874 198 872 c 1,33,-1
 187 826 l 1,34,35
 177 828 177 828 165 830 c 128,-1,36
 153 832 153 832 139 832 c 0,37,38
 114 832 114 832 99 817 c 128,-1,39
 84 802 84 802 80 765 c 1,40,-1
 174 765 l 1,41,-1
 174 723 l 1,42,-1
 79 723 l 1,43,44
 84 686 84 686 99 666 c 128,-1,45
 114 646 114 646 146 646 c 0,46,47
 163 646 163 646 174 648 c 128,-1,48
 185 650 185 650 196 652 c 1,49,-1
 196 605 l 1,50,51
 186 604 186 604 174 602.5 c 128,-1,52
 162 601 162 601 145 601 c 0,53,54
 94 601 94 601 59.5 630 c 128,-1,55
 25 659 25 659 21 723 c 1,56,-1
 -20 723 l 1,57,58
 -24 659 -24 659 -58.5 630 c 128,-1,59
 -93 601 -93 601 -144 601 c 0,0,1
EndSplineSet
EndChar

StartChar: u1E028
Encoding: 138 122920 139
Width: 0
GlyphClass: 4
Flags: W
AnchorPoint: "+BBEENQQ3BEsEPARPBD0EPQQ+BDUA--1" 0 908 basemark 0
AnchorPoint: "+BBEENQQ3BEsEPARPBD0EPQQ+BDUA--0" 0 605 mark 0
LayerCount: 2
Fore
SplineSet
152 601 m 0,0,1
 101 601 101 601 67 630 c 128,-1,2
 33 659 33 659 28 723 c 1,3,-1
 -13 723 l 1,4,-1
 -13 643 l 2,5,6
 -13 619 -13 619 -22 612 c 128,-1,7
 -31 605 -31 605 -63 605 c 2,8,-1
 -150 605 l 2,9,10
 -175 605 -175 605 -187 613.5 c 128,-1,11
 -199 622 -199 622 -202 634.5 c 128,-1,12
 -205 647 -205 647 -205 659 c 0,13,14
 -205 686 -205 686 -188 708.5 c 128,-1,15
 -171 731 -171 731 -143 744 c 1,16,17
 -172 756 -172 756 -188.5 774.5 c 128,-1,18
 -205 793 -205 793 -205 820 c 0,19,20
 -205 838 -205 838 -194.5 856 c 128,-1,21
 -184 874 -184 874 -153 874 c 2,22,-1
 -58 874 l 2,23,24
 -26 874 -26 874 -19.5 866.5 c 128,-1,25
 -13 859 -13 859 -13 836 c 2,26,-1
 -13 765 l 1,27,-1
 29 765 l 1,28,29
 35 826 35 826 67 852.5 c 128,-1,30
 99 879 99 879 148 879 c 0,31,32
 166 879 166 879 179.5 876.5 c 128,-1,33
 193 874 193 874 206 872 c 1,34,-1
 195 826 l 1,35,36
 185 828 185 828 173 830 c 128,-1,37
 161 832 161 832 147 832 c 0,38,39
 122 832 122 832 107 817 c 128,-1,40
 92 802 92 802 87 765 c 1,41,-1
 182 765 l 1,42,-1
 182 723 l 1,43,-1
 86 723 l 1,44,45
 91 686 91 686 106.5 666 c 128,-1,46
 122 646 122 646 154 646 c 0,47,48
 171 646 171 646 181.5 648 c 128,-1,49
 192 650 192 650 204 652 c 1,50,-1
 204 605 l 1,51,52
 193 604 193 604 181.5 602.5 c 128,-1,53
 170 601 170 601 152 601 c 0,0,1
-68 765 m 1,54,-1
 -68 816 l 2,55,56
 -68 823 -68 823 -70.5 826.5 c 128,-1,57
 -73 830 -73 830 -82 830 c 2,58,-1
 -129 830 l 2,59,60
 -144 830 -144 830 -146.5 824 c 128,-1,61
 -149 818 -149 818 -149 810 c 0,62,63
 -149 795 -149 795 -131 781 c 128,-1,64
 -113 767 -113 767 -68 765 c 1,54,-1
-135 649 m 2,65,-1
 -80 649 l 2,66,67
 -68 649 -68 649 -68 664 c 2,68,-1
 -68 725 l 1,69,70
 -111 721 -111 721 -130 705 c 128,-1,71
 -149 689 -149 689 -149 670 c 0,72,73
 -149 662 -149 662 -147 655.5 c 128,-1,74
 -145 649 -145 649 -135 649 c 2,65,-1
EndSplineSet
EndChar

StartChar: u1E029
Encoding: 139 122921 140
Width: 0
GlyphClass: 4
Flags: W
AnchorPoint: "+BBEENQQ3BEsEPARPBD0EPQQ+BDUA--1" 0 908 basemark 0
AnchorPoint: "+BBEENQQ3BEsEPARPBD0EPQQ+BDUA--0" 24 605 mark 0
LayerCount: 2
Fore
SplineSet
212 601 m 0,0,1
 162 601 162 601 127.5 630 c 128,-1,2
 93 659 93 659 88 723 c 1,3,-1
 -7 723 l 1,4,5
 1 707 1 707 1 694 c 2,6,-1
 1 605 l 1,7,-1
 -176 605 l 1,8,-1
 -176 694 l 2,9,10
 -176 702 -176 702 -173.5 709 c 128,-1,11
 -171 716 -171 716 -167 723 c 1,12,-1
 -265 723 l 1,13,-1
 -188 874 l 1,14,-1
 11 874 l 1,15,-1
 70 765 l 1,16,-1
 89 765 l 1,17,18
 95 826 95 826 127 852.5 c 128,-1,19
 159 879 159 879 208 879 c 0,20,21
 226 879 226 879 239.5 876.5 c 128,-1,22
 253 874 253 874 266 872 c 1,23,-1
 255 826 l 1,24,25
 245 828 245 828 233 830 c 128,-1,26
 221 832 221 832 207 832 c 0,27,28
 182 832 182 832 167 817 c 128,-1,29
 152 802 152 802 147 765 c 1,30,-1
 242 765 l 1,31,-1
 242 723 l 1,32,-1
 146 723 l 1,33,34
 151 686 151 686 166.5 666 c 128,-1,35
 182 646 182 646 214 646 c 0,36,37
 231 646 231 646 242 648 c 128,-1,38
 253 650 253 650 264 652 c 1,39,-1
 264 605 l 1,40,41
 254 604 254 604 242 602.5 c 128,-1,42
 230 601 230 601 212 601 c 0,0,1
-192 765 m 1,43,-1
 -112 765 l 1,44,-1
 -112 832 l 1,45,-1
 -157 832 l 1,46,-1
 -192 765 l 1,43,-1
-62 765 m 1,47,-1
 15 765 l 1,48,-1
 -20 832 l 1,49,-1
 -62 832 l 1,50,-1
 -62 765 l 1,47,-1
-120 649 m 1,51,-1
 -55 649 l 1,52,-1
 -55 670 l 2,53,54
 -55 695 -55 695 -60 708 c 128,-1,55
 -65 721 -65 721 -87 721 c 0,56,57
 -112 721 -112 721 -116 707 c 128,-1,58
 -120 693 -120 693 -120 670 c 2,59,-1
 -120 649 l 1,51,-1
EndSplineSet
EndChar

StartChar: u1E02A
Encoding: 140 122922 141
Width: 0
GlyphClass: 4
Flags: W
AnchorPoint: "+BBEENQQ3BEsEPARPBD0EPQQ+BDUA--1" 0 908 basemark 0
AnchorPoint: "+BBEENQQ3BEsEPARPBD0EPQQ+BDUA--0" 0 605 mark 0
LayerCount: 2
Fore
SplineSet
-1 601 m 0,0,1
 -53 601 -53 601 -87.5 632 c 128,-1,2
 -122 663 -122 663 -126 723 c 1,3,-1
 -134 723 l 2,4,5
 -143 723 -143 723 -146 720.5 c 128,-1,6
 -149 718 -149 718 -149 710 c 2,7,-1
 -149 701 l 1,8,-1
 -196 701 l 1,9,-1
 -196 735 l 2,10,11
 -196 755 -196 755 -187.5 761 c 128,-1,12
 -179 767 -179 767 -156 767 c 2,13,-1
 -126 767 l 1,14,15
 -121 823 -121 823 -88 851 c 128,-1,16
 -55 879 -55 879 0 879 c 0,17,18
 52 879 52 879 85.5 851 c 128,-1,19
 119 823 119 823 125 767 c 1,20,-1
 157 767 l 2,21,22
 180 767 180 767 188 761 c 128,-1,23
 196 755 196 755 196 735 c 2,24,-1
 196 701 l 1,25,-1
 148 701 l 1,26,-1
 148 710 l 2,27,28
 148 718 148 718 145.5 720.5 c 128,-1,29
 143 723 143 723 134 723 c 2,30,-1
 126 723 l 1,31,32
 122 663 122 663 88.5 632 c 128,-1,33
 55 601 55 601 -1 601 c 0,0,1
-67 767 m 1,34,-1
 67 767 l 1,35,36
 63 802 63 802 46.5 817.5 c 128,-1,37
 30 833 30 833 0 833 c 0,38,39
 -31 833 -31 833 -47 817.5 c 128,-1,40
 -63 802 -63 802 -67 767 c 1,34,-1
0 645 m 256,41,42
 64 645 64 645 68 723 c 1,43,-1
 -68 723 l 1,44,45
 -64 645 -64 645 0 645 c 256,41,42
EndSplineSet
EndChar

StartChar: DottedCircle
Encoding: 142 9676 142
Width: 704
Flags: WO
AnchorPoint: "+BBEENQQ3BEsEPARPBD0EPQQ+BDUA--0" 354 703 basechar 0
LayerCount: 2
Fore
SplineSet
323.200195312 618 m 0,0,1
 323.200195312 630.599609375 323.200195312 630.599609375 332.799804688 640.200195312 c 128,-1,2
 342.400390625 649.802734375 342.400390625 649.802734375 355 649.799804688 c 0,3,4
 368.200195312 649.799804688 368.200195312 649.799804688 377.799804688 640.200195312 c 128,-1,5
 387.400390625 630.599609375 387.400390625 630.599609375 387.400390625 618 c 0,6,7
 387.400390625 604.799804688 387.400390625 604.799804688 377.799804688 595.200195312 c 128,-1,8
 368.19921875 585.596679688 368.19921875 585.596679688 355 585.599609375 c 0,9,10
 342.400390625 585.599609375 342.400390625 585.599609375 332.799804688 595.200195312 c 128,-1,11
 323.200195312 604.799804688 323.200195312 604.799804688 323.200195312 618 c 0,0,1
220 595.799804688 m 0,12,13
 220 608.399414062 220 608.399414062 229.599609375 618 c 128,-1,14
 239.200195312 627.602539062 239.200195312 627.602539062 251.799804688 627.599609375 c 0,15,16
 265 627.599609375 265 627.599609375 274.299804688 618 c 128,-1,17
 283.599609375 608.396484375 283.599609375 608.396484375 283.599609375 595.799804688 c 0,18,19
 283.599609375 582.599609375 283.599609375 582.599609375 274.299804688 573.299804688 c 128,-1,20
 265 564 265 564 251.799804688 564 c 0,21,22
 239.200195312 564 239.200195312 564 229.599609375 573.299804688 c 128,-1,23
 220 582.599609375 220 582.599609375 220 595.799804688 c 0,12,13
426.400390625 595.799804688 m 0,24,25
 426.400390625 608.399414062 426.400390625 608.399414062 436 618 c 128,-1,26
 445.600585938 627.602539062 445.600585938 627.602539062 458.200195312 627.599609375 c 0,27,28
 471.400390625 627.599609375 471.400390625 627.599609375 481 618 c 128,-1,29
 490.599609375 608.399414062 490.599609375 608.399414062 490.599609375 595.799804688 c 0,30,31
 490.599609375 582.599609375 490.599609375 582.599609375 481 573.299804688 c 128,-1,32
 471.399414062 564 471.399414062 564 458.200195312 564 c 0,33,34
 445.599609375 564 445.599609375 564 436 573.299804688 c 128,-1,35
 426.400390625 582.599609375 426.400390625 582.599609375 426.400390625 595.799804688 c 0,24,25
128.799804688 538.200195312 m 0,36,37
 128.799804688 550.799804688 128.799804688 550.799804688 138.400390625 560.399414062 c 128,-1,38
 148 570 148 570 161.200195312 570 c 0,39,40
 173.799804688 570 173.799804688 570 183.400390625 560.399414062 c 128,-1,41
 193 550.799804688 193 550.799804688 193 538.200195312 c 0,42,43
 193 524.999023438 193 524.999023438 183.400390625 515.399414062 c 128,-1,44
 173.799804688 505.799804688 173.799804688 505.799804688 161.200195312 505.799804688 c 0,45,46
 148 505.799804688 148 505.799804688 138.400390625 515.399414062 c 128,-1,47
 128.799804688 525 128.799804688 525 128.799804688 538.200195312 c 0,36,37
517.599609375 538.200195312 m 0,48,49
 517.599609375 550.799804688 517.599609375 550.799804688 526.900390625 560.399414062 c 128,-1,50
 536.19921875 570 536.19921875 570 549.400390625 570 c 128,-1,51
 562.600585938 570 562.600585938 570 571.900390625 560.399414062 c 128,-1,52
 581.19921875 550.799804688 581.19921875 550.799804688 581.200195312 538.200195312 c 0,53,54
 581.200195312 524.999023438 581.200195312 524.999023438 571.900390625 515.399414062 c 128,-1,55
 562.600585938 505.799804688 562.600585938 505.799804688 549.400390625 505.799804688 c 128,-1,56
 536.19921875 505.799804688 536.19921875 505.799804688 526.900390625 515.399414062 c 128,-1,57
 517.600585938 525 517.600585938 525 517.599609375 538.200195312 c 0,48,49
71.2001953125 447 m 128,-1,59
 71.2001953125 460.200195312 71.2001953125 460.200195312 80.7998046875 469.5 c 128,-1,60
 90.400390625 478.799804688 90.400390625 478.799804688 103 478.799804688 c 0,61,62
 116.200195312 478.799804688 116.200195312 478.799804688 125.799804688 469.5 c 128,-1,63
 135.400390625 460.200195312 135.400390625 460.200195312 135.400390625 447 c 128,-1,64
 135.400390625 433.799804688 135.400390625 433.799804688 125.799804688 424.5 c 128,-1,65
 116.19921875 415.200195312 116.19921875 415.200195312 103 415.200195312 c 0,66,67
 90.400390625 415.200195312 90.400390625 415.200195312 80.7998046875 424.5 c 128,-1,58
 71.19921875 433.799804688 71.19921875 433.799804688 71.2001953125 447 c 128,-1,59
575.200195312 447 m 128,-1,69
 575.200195312 460.200195312 575.200195312 460.200195312 584.5 469.5 c 128,-1,70
 593.796875 478.799804688 593.796875 478.799804688 607 478.799804688 c 128,-1,71
 620.203125 478.799804688 620.203125 478.799804688 629.5 469.5 c 128,-1,72
 638.796875 460.200195312 638.796875 460.200195312 638.799804688 447 c 128,-1,73
 638.799804688 433.799804688 638.799804688 433.799804688 629.5 424.5 c 128,-1,74
 620.203125 415.200195312 620.203125 415.200195312 607 415.200195312 c 128,-1,75
 593.796875 415.200195312 593.796875 415.200195312 584.5 424.5 c 128,-1,68
 575.200195312 433.799804688 575.200195312 433.799804688 575.200195312 447 c 128,-1,69
49 343.799804688 m 128,-1,77
 49 357 49 357 58.599609375 366.299804688 c 128,-1,78
 68.2001953125 375.599609375 68.2001953125 375.599609375 81.400390625 375.599609375 c 0,79,80
 94 375.599609375 94 375.599609375 103.599609375 366.299804688 c 128,-1,81
 113.200195312 357 113.200195312 357 113.200195312 343.799804688 c 128,-1,82
 113.200195312 330.599609375 113.200195312 330.599609375 103.599609375 321.299804688 c 128,-1,83
 94 312 94 312 81.400390625 312 c 0,84,85
 68.19921875 312 68.19921875 312 58.599609375 321.299804688 c 128,-1,76
 49 330.599609375 49 330.599609375 49 343.799804688 c 128,-1,77
597.400390625 343.799804688 m 128,-1,87
 597.400390625 357 597.400390625 357 606.700195312 366.299804688 c 128,-1,88
 615.997070312 375.599609375 615.997070312 375.599609375 629.200195312 375.599609375 c 128,-1,89
 642.403320312 375.599609375 642.403320312 375.599609375 651.700195312 366.299804688 c 128,-1,90
 660.997070312 357 660.997070312 357 661 343.799804688 c 128,-1,91
 661 330.599609375 661 330.599609375 651.700195312 321.299804688 c 128,-1,92
 642.403320312 312 642.403320312 312 629.200195312 312 c 128,-1,93
 615.997070312 312 615.997070312 312 606.700195312 321.299804688 c 128,-1,86
 597.403320312 330.599609375 597.403320312 330.599609375 597.400390625 343.799804688 c 128,-1,87
71.2001953125 240.599609375 m 128,-1,95
 71.2001953125 253.799804688 71.2001953125 253.799804688 80.7998046875 263.099609375 c 128,-1,96
 90.400390625 272.399414062 90.400390625 272.399414062 103 272.399414062 c 0,97,98
 116.200195312 272.399414062 116.200195312 272.399414062 125.799804688 263.099609375 c 128,-1,99
 135.400390625 253.799804688 135.400390625 253.799804688 135.400390625 240.599609375 c 128,-1,100
 135.400390625 227.399414062 135.400390625 227.399414062 125.799804688 218.099609375 c 128,-1,101
 116.19921875 208.799804688 116.19921875 208.799804688 103 208.799804688 c 0,102,103
 90.400390625 208.799804688 90.400390625 208.799804688 80.7998046875 218.099609375 c 128,-1,94
 71.19921875 227.399414062 71.19921875 227.399414062 71.2001953125 240.599609375 c 128,-1,95
575.200195312 240.599609375 m 128,-1,105
 575.200195312 253.799804688 575.200195312 253.799804688 584.5 263.099609375 c 128,-1,106
 593.796875 272.399414062 593.796875 272.399414062 607 272.399414062 c 128,-1,107
 620.203125 272.399414062 620.203125 272.399414062 629.5 263.099609375 c 128,-1,108
 638.796875 253.799804688 638.796875 253.799804688 638.799804688 240.599609375 c 128,-1,109
 638.799804688 227.399414062 638.799804688 227.399414062 629.5 218.099609375 c 128,-1,110
 620.203125 208.799804688 620.203125 208.799804688 607 208.799804688 c 128,-1,111
 593.796875 208.799804688 593.796875 208.799804688 584.5 218.099609375 c 128,-1,104
 575.200195312 227.399414062 575.200195312 227.399414062 575.200195312 240.599609375 c 128,-1,105
128.799804688 149.399414062 m 0,112,113
 128.799804688 162.600585938 128.799804688 162.600585938 138.400390625 172.200195312 c 128,-1,114
 148 181.799804688 148 181.799804688 161.200195312 181.799804688 c 0,115,116
 173.799804688 181.799804688 173.799804688 181.799804688 183.400390625 172.200195312 c 128,-1,117
 193 162.599609375 193 162.599609375 193 149.399414062 c 0,118,119
 193 136.799804688 193 136.799804688 183.400390625 127.200195312 c 128,-1,120
 173.799804688 117.599609375 173.799804688 117.599609375 161.200195312 117.599609375 c 0,121,122
 148 117.599609375 148 117.599609375 138.400390625 127.200195312 c 128,-1,123
 128.799804688 136.799804688 128.799804688 136.799804688 128.799804688 149.399414062 c 0,112,113
517.599609375 149.399414062 m 0,124,125
 517.599609375 162.600585938 517.599609375 162.600585938 526.900390625 172.200195312 c 128,-1,126
 536.19921875 181.799804688 536.19921875 181.799804688 549.400390625 181.799804688 c 128,-1,127
 562.600585938 181.799804688 562.600585938 181.799804688 571.900390625 172.200195312 c 128,-1,128
 581.19921875 162.599609375 581.19921875 162.599609375 581.200195312 149.399414062 c 0,129,130
 581.200195312 136.799804688 581.200195312 136.799804688 571.900390625 127.200195312 c 128,-1,131
 562.600585938 117.599609375 562.600585938 117.599609375 549.400390625 117.599609375 c 128,-1,132
 536.19921875 117.599609375 536.19921875 117.599609375 526.900390625 127.200195312 c 128,-1,133
 517.600585938 136.799804688 517.600585938 136.799804688 517.599609375 149.399414062 c 0,124,125
220 91.7998046875 m 128,-1,135
 220 105 220 105 229.599609375 114.299804688 c 128,-1,136
 239.200195312 123.599609375 239.200195312 123.599609375 251.799804688 123.599609375 c 0,137,138
 265 123.599609375 265 123.599609375 274.299804688 114.299804688 c 128,-1,139
 283.599609375 105 283.599609375 105 283.599609375 91.7998046875 c 128,-1,140
 283.599609375 78.599609375 283.599609375 78.599609375 274.299804688 69.2998046875 c 128,-1,141
 265 60 265 60 251.799804688 60 c 0,142,143
 239.200195312 60 239.200195312 60 229.599609375 69.2998046875 c 128,-1,134
 220 78.599609375 220 78.599609375 220 91.7998046875 c 128,-1,135
426.400390625 91.7998046875 m 128,-1,145
 426.400390625 105 426.400390625 105 436 114.299804688 c 128,-1,146
 445.600585938 123.599609375 445.600585938 123.599609375 458.200195312 123.599609375 c 0,147,148
 471.400390625 123.599609375 471.400390625 123.599609375 481 114.299804688 c 128,-1,149
 490.600585938 105 490.600585938 105 490.599609375 91.7998046875 c 128,-1,150
 490.599609375 78.599609375 490.599609375 78.599609375 481 69.2998046875 c 128,-1,151
 471.399414062 60 471.399414062 60 458.200195312 60 c 0,152,153
 445.599609375 60 445.599609375 60 436 69.2998046875 c 128,-1,144
 426.399414062 78.599609375 426.399414062 78.599609375 426.400390625 91.7998046875 c 128,-1,145
323.200195312 69.599609375 m 0,154,155
 323.200195312 82.7998046875 323.200195312 82.7998046875 332.799804688 92.3994140625 c 128,-1,156
 342.400390625 102 342.400390625 102 355 102 c 0,157,158
 368.200195312 102 368.200195312 102 377.799804688 92.3994140625 c 128,-1,159
 387.400390625 82.7998046875 387.400390625 82.7998046875 387.400390625 69.599609375 c 0,160,161
 387.400390625 57 387.400390625 57 377.799804688 47.3994140625 c 128,-1,162
 368.19921875 37.7998046875 368.19921875 37.7998046875 355 37.7998046875 c 0,163,164
 342.400390625 37.7998046875 342.400390625 37.7998046875 332.799804688 47.3994140625 c 128,-1,165
 323.19921875 57 323.19921875 57 323.200195312 69.599609375 c 0,154,155
EndSplineSet
EndChar
